SplineFontDB: 3.0
FontName: EarthsMightiest
FullName: EarthsMightiest
FamilyName: EarthsMightiest
Weight: Book
Copyright: 2002 Iconian Fonts - www.iconian.com
Version: 1
ItalicAngle: 0
UnderlinePosition: -75
UnderlineWidth: 50
Ascent: 800
Descent: 200
LayerCount: 2
Layer: 0 1 "Back"  1
Layer: 1 1 "Fore"  0
NeedsXUIDChange: 1
XUID: [1021 55 1405406523 10000017]
FSType: 0
OS2Version: 0
OS2_WeightWidthSlopeOnly: 0
OS2_UseTypoMetrics: 1
CreationTime: 1002510953
ModificationTime: 1285231279
PfmFamily: 81
TTFWeight: 400
TTFWidth: 5
LineGap: 9
VLineGap: 0
Panose: 0 0 0 0 0 0 0 0 0 0
OS2TypoAscent: -50
OS2TypoAOffset: 1
OS2TypoDescent: 30
OS2TypoDOffset: 1
OS2TypoLinegap: 30
OS2WinAscent: 0
OS2WinAOffset: 1
OS2WinDescent: 4
OS2WinDOffset: 1
HheadAscent: 0
HheadAOffset: 1
HheadDescent: -4
HheadDOffset: 1
OS2SubXSize: 100
OS2SubYSize: 100
OS2SubXOff: 0
OS2SubYOff: 140
OS2SupXSize: 100
OS2SupYSize: 100
OS2SupXOff: 0
OS2SupYOff: 140
OS2StrikeYSize: 50
OS2StrikeYPos: 250
OS2Vendor: 'pyrs'
OS2UnicodeRanges: 80000007.00000000.00000000.00000000
Lookup: 258 0 0 "'kern' Horizontal Kerning in Latin lookup 0"  {"'kern' Horizontal Kerning in Latin lookup 0 subtable"  } ['kern' ('DFLT' <'dflt' > 'latn' <'dflt' > ) ]
DEI: 91125
TtTable: prep
PUSHW_1
 250
CALL
PUSHW_1
 240
CALL
PUSHW_1
 230
CALL
PUSHW_1
 220
CALL
PUSHW_1
 210
CALL
PUSHW_1
 200
CALL
PUSHW_1
 190
CALL
PUSHW_1
 180
CALL
PUSHW_1
 170
CALL
PUSHW_1
 160
CALL
PUSHW_1
 150
CALL
PUSHW_1
 140
CALL
PUSHW_1
 130
CALL
PUSHW_1
 120
CALL
PUSHW_1
 110
CALL
PUSHW_1
 100
CALL
PUSHW_1
 90
CALL
PUSHW_1
 80
CALL
PUSHW_1
 70
CALL
PUSHW_1
 60
CALL
PUSHW_1
 50
CALL
PUSHW_1
 40
CALL
PUSHW_1
 30
CALL
PUSHW_1
 20
CALL
PUSHW_1
 10
CALL
PUSHW_1
 0
CALL
EndTTInstrs
TtTable: fpgm
PUSHW_1
 0
FDEF
MPPEM
PUSHW_1
 9
LT
IF
PUSHB_2
 1
 1
INSTCTRL
EIF
PUSHW_1
 511
SCANCTRL
PUSHW_1
 68
SCVTCI
PUSHW_2
 9
 3
SDS
SDB
ENDF
PUSHW_1
 1
FDEF
DUP
DUP
RCVT
ROUND[Black]
WCVTP
PUSHB_1
 1
ADD
ENDF
PUSHW_1
 2
FDEF
PUSHW_1
 1
LOOPCALL
POP
ENDF
PUSHW_1
 3
FDEF
DUP
GC[cur]

StartChar: FL0FB0h
Encoding: 33 33 4
Width: 201
Flags: W
LayerCount: 2
Fore
SplineSet
27 260 m 2,0,1
 27 305 27 305 27.5 345 c 128,-1,2
 28 385 28 385 29.5 425 c 128,-1,3
 31 465 31 465 33.5 506 c 128,-1,4
 36 547 36 547 39 595 c 1,5,-1
 137 595 l 1,6,7
 137 544 137 544 134.5 489 c 128,-1,8
 132 434 132 434 128 379 c 128,-1,9
 124 324 124 324 119 270 c 128,-1,10
 114 216 114 216 110 166 c 1,11,-1
 39 166 l 1,12,-1
 28 192 l 1,13,-1
 28 201 l 2,14,15
 28 209 28 209 27.5 220 c 128,-1,16
 27 231 27 231 27 242 c 2,17,-1
 27 260 l 2,0,1
34 80 m 1,18,-1
 129 80 l 1,19,-1
 126 -4 l 1,20,-1
 32 -2 l 1,21,-1
 34 80 l 1,18,-1
EndSplineSet
Validated: 1
EndChar

StartChar: FL0022h
Encoding: 34 34 5
Width: 335
Flags: W
LayerCount: 2
Fore
SplineSet
158 470 m 1,0,1
 198 415 198 415 250 470 c 1,2,-1
 256 593 l 1,3,-1
 153 593 l 1,4,5
 153 557 153 557 154.5 526.5 c 128,-1,6
 156 496 156 496 158 470 c 1,0,1
14 474 m 1,7,8
 54 419 54 419 106 474 c 1,9,-1
 112 597 l 1,10,-1
 9 597 l 1,11,12
 9 561 9 561 10.5 530.5 c 128,-1,13
 12 500 12 500 14 474 c 1,7,8
EndSplineSet
Validated: 41
EndChar

StartChar: FL0023h
Encoding: 35 35 6
Width: 533
Flags: W
LayerCount: 2
Fore
SplineSet
14 188 m 1,0,-1
 50 188 l 1,1,2
 51 238 51 238 53 289.5 c 128,-1,3
 55 341 55 341 58 396 c 1,4,-1
 14 396 l 1,5,-1
 14 492 l 1,6,-1
 62 492 l 1,7,-1
 63 586 l 1,8,-1
 161 586 l 1,9,-1
 158 550 l 1,10,-1
 158 492 l 1,11,-1
 310 492 l 1,12,-1
 311 584 l 1,13,-1
 409 584 l 1,14,-1
 406 492 l 1,15,-1
 450 492 l 1,16,-1
 446 400 l 1,17,-1
 398 396 l 1,18,19
 397 353 397 353 397 316 c 0,20,21
 397 280 397 280 396 250 c 128,-1,22
 395 220 395 220 395 203 c 0,23,24
 395 187 395 187 394 184 c 1,25,-1
 438 188 l 1,26,-1
 438 104 l 1,27,-1
 382 104 l 1,28,-1
 382 -28 l 1,29,-1
 311 -28 l 1,30,-1
 300 9 l 1,31,-1
 299 22 l 1,32,-1
 299 80 l 1,33,-1
 299 105 l 1,34,-1
 142 105 l 1,35,36
 140 76 140 76 138 43.5 c 128,-1,37
 136 11 136 11 134 -24 c 1,38,-1
 63 -24 l 1,39,-1
 52 13 l 1,40,-1
 50 108 l 1,41,-1
 14 108 l 1,42,-1
 14 188 l 1,0,-1
150 396 m 1,43,-1
 146 180 l 1,44,-1
 302 180 l 1,45,-1
 302 396 l 1,46,-1
 150 396 l 1,43,-1
EndSplineSet
Validated: 1
EndChar

StartChar: FL0024h
Encoding: 36 36 7
Width: 348
Flags: W
LayerCount: 2
Fore
SplineSet
12 124 m 1,0,-1
 23 124 l 2,1,2
 44 124 44 124 64 119 c 128,-1,3
 84 114 84 114 110 112 c 1,4,-1
 110 264 l 1,5,6
 102 272 102 272 87 280 c 128,-1,7
 72 288 72 288 54 305 c 0,8,9
 36 323 36 323 23.5 344 c 128,-1,10
 11 365 11 365 11 392 c 0,11,12
 11 435 11 435 41.5 464.5 c 128,-1,13
 72 494 72 494 114 500 c 1,14,-1
 114 560 l 1,15,-1
 166 556 l 1,16,-1
 166 512 l 1,17,18
 177 513 177 513 185 513 c 0,19,20
 194 513 194 513 199 513 c 0,21,22
 205 513 205 513 210 513 c 0,23,24
 216 513 216 513 221 512 c 1,25,26
 232 512 232 512 239.5 508 c 128,-1,27
 247 504 247 504 247 496 c 0,28,29
 247 494 247 494 246.5 490 c 128,-1,30
 246 486 246 486 246 486 c 2,31,32
 246 483 246 483 244.5 476.5 c 128,-1,33
 243 470 243 470 241 462.5 c 128,-1,34
 239 455 239 455 237 448.5 c 128,-1,35
 235 442 235 442 234 440 c 1,36,37
 223 439 223 439 205.5 438.5 c 128,-1,38
 188 438 188 438 162 436 c 1,39,-1
 162 320 l 1,40,41
 183 302 183 302 199 287.5 c 128,-1,42
 215 273 215 273 227.5 261 c 128,-1,43
 240 249 240 249 249 237.5 c 128,-1,44
 258 226 258 226 266 213 c 0,45,46
 282 188 282 188 282 156 c 0,47,48
 282 128 282 128 269 106 c 0,49,50
 256 85 256 85 233 71 c 128,-1,51
 210 57 210 57 158 44 c 1,52,-1
 158 -16 l 1,53,-1
 110 -12 l 1,54,-1
 110 44 l 1,55,56
 59 42 59 42 34 60 c 128,-1,57
 9 78 9 78 12 124 c 1,0,-1
110 412 m 1,58,59
 83 395 83 395 83 377 c 0,60,61
 83 367 83 367 84.5 358.5 c 128,-1,62
 86 350 86 350 110 340 c 1,63,-1
 110 412 l 1,58,59
159 244 m 1,64,-1
 159 116 l 1,65,66
 200 143 200 143 200 169 c 0,67,68
 200 191 200 191 159 244 c 1,64,-1
EndSplineSet
Validated: 33
EndChar

StartChar: FL0025h
Encoding: 37 37 8
Width: 361
Flags: W
LayerCount: 2
Fore
SplineSet
182 564 m 1,0,-1
 56 -20 l 1,1,-1
 146 -20 l 1,2,-1
 278 564 l 1,3,-1
 182 564 l 1,0,-1
210 146 m 1,4,-1
 208 64 l 1,5,-1
 302 62 l 1,6,-1
 305 146 l 1,7,-1
 210 146 l 1,4,-1
26 466 m 1,8,-1
 24 384 l 1,9,-1
 118 382 l 1,10,-1
 121 466 l 1,11,-1
 26 466 l 1,8,-1
EndSplineSet
Validated: 9
EndChar

StartChar: FL0026h
Encoding: 38 38 9
Width: 378
Flags: W
LayerCount: 2
Fore
SplineSet
304 452 m 1,0,1
 302 457 302 457 291 458 c 128,-1,2
 280 459 280 459 271 459 c 2,3,-1
 263 459 l 1,4,-1
 252 459 l 1,5,-1
 232 459 l 1,6,-1
 238 528 l 1,7,8
 224 530 224 530 211 531 c 128,-1,9
 198 532 198 532 186 532 c 0,10,11
 178 532 178 532 177 460 c 1,12,13
 131 461 131 461 115 458 c 0,14,15
 98 455 98 455 77.5 446.5 c 128,-1,16
 57 438 57 438 49 426 c 1,17,18
 42 413 42 413 49 397 c 128,-1,19
 56 381 56 381 70 371 c 128,-1,20
 84 361 84 361 96 353 c 128,-1,21
 108 345 108 345 122 334 c 1,22,-1
 129 327 l 1,23,-1
 129 324 l 1,24,-1
 129 321 l 1,25,26
 107 310 107 310 86 298 c 128,-1,27
 65 286 65 286 48.5 272 c 128,-1,28
 32 258 32 258 22 242 c 128,-1,29
 12 226 12 226 12 207 c 0,30,31
 12 169 12 169 44.5 146.5 c 128,-1,32
 77 124 77 124 134 112 c 1,33,-1
 130 52 l 1,34,-1
 190 48 l 1,35,-1
 194 108 l 1,36,37
 228 107 228 107 253 107.5 c 128,-1,38
 278 108 278 108 295 108 c 1,39,40
 294 111 294 111 294 123 c 2,41,-1
 294 137 l 2,42,43
 294 152 294 152 288 172 c 128,-1,44
 282 192 282 192 242 192 c 2,45,-1
 194 192 l 1,46,47
 98 194 98 194 103 203 c 1,48,49
 103 208 103 208 102.5 211.5 c 128,-1,50
 102 215 102 215 102 218 c 0,51,52
 102 246 102 246 138 267 c 0,53,54
 146 271 146 271 154 276.5 c 128,-1,55
 162 282 162 282 170 288 c 1,56,-1
 250 288 l 1,57,58
 267 312 267 312 250 347 c 1,59,60
 179 354 179 354 160 375 c 0,61,62
 151 386 151 386 158 395 c 128,-1,63
 165 404 165 404 238 404 c 1,64,65
 297 399 297 399 302 418 c 1,66,-1
 304 452 l 1,0,1
EndSplineSet
Validated: 41
EndChar

StartChar: FL0027h
Encoding: 39 39 10
Width: 187
Flags: W
LayerCount: 2
Fore
SplineSet
14 474 m 1,0,1
 54 419 54 419 106 474 c 1,2,-1
 112 597 l 1,3,-1
 9 597 l 1,4,5
 9 561 9 561 10.5 530.5 c 128,-1,6
 12 500 12 500 14 474 c 1,0,1
EndSplineSet
Validated: 41
EndChar

StartChar: FL0028h
Encoding: 40 40 11
Width: 232
Flags: W
LayerCount: 2
Fore
SplineSet
11 232 m 0,0,1
 11 284 11 284 26 370 c 0,2,3
 34 413 34 413 45 448 c 128,-1,4
 56 483 56 483 70 510 c 0,5,6
 98 564 98 564 118 576 c 0,7,8
 137 588 137 588 154 586 c 1,9,10
 160 545 160 545 146 494 c 1,11,12
 98 414 98 414 89 344 c 0,13,14
 85 309 85 309 83 279.5 c 128,-1,15
 81 250 81 250 81 226 c 0,16,17
 81 207 81 207 83.5 175.5 c 128,-1,18
 86 144 86 144 94 113.5 c 128,-1,19
 102 83 102 83 118.5 60.5 c 128,-1,20
 135 38 135 38 163 38 c 1,21,22
 176 -10 176 -10 170 -44 c 1,23,24
 114 -44 114 -44 82.5 -16.5 c 128,-1,25
 51 11 51 11 35 52 c 128,-1,26
 19 93 19 93 15 141.5 c 128,-1,27
 11 190 11 190 11 232 c 0,0,1
EndSplineSet
Validated: 33
EndChar

StartChar: FL0029h
Encoding: 41 41 12
Width: 256
Flags: W
LayerCount: 2
Fore
SplineSet
176 232 m 0,0,1
 176 290 176 290 160 370 c 1,2,3
 145 458 145 458 117 510 c 0,4,5
 88 564 88 564 69 576 c 128,-1,6
 50 588 50 588 33 586 c 1,7,8
 27 545 27 545 41 494 c 1,9,10
 89 415 89 415 97 344 c 0,11,12
 106 273 106 273 106 226 c 0,13,14
 106 207 106 207 103.5 175.5 c 128,-1,15
 101 144 101 144 93 113.5 c 128,-1,16
 85 83 85 83 68.5 60.5 c 128,-1,17
 52 38 52 38 24 38 c 1,18,19
 11 -10 11 -10 17 -44 c 1,20,21
 72 -44 72 -44 104 -16.5 c 128,-1,22
 136 11 136 11 152 52 c 128,-1,23
 168 93 168 93 172 141.5 c 128,-1,24
 176 190 176 190 176 232 c 0,0,1
EndSplineSet
Validated: 41
EndChar

StartChar: FL002Ah
Encoding: 42 42 13
Width: 290
Flags: W
LayerCount: 2
Fore
SplineSet
228 533 m 1,0,1
 230 541 230 541 222 547.5 c 128,-1,2
 214 554 214 554 204 554 c 0,3,4
 196 554 196 554 188.5 551 c 128,-1,5
 181 548 181 548 175 545 c 0,6,7
 165 539 165 539 158 535 c 128,-1,8
 151 531 151 531 143 526 c 1,9,10
 146 537 146 537 148.5 548.5 c 128,-1,11
 151 560 151 560 153 571 c 1,12,13
 153 578 153 578 146 583 c 128,-1,14
 139 588 139 588 131 588 c 0,15,16
 119 588 119 588 113 584 c 128,-1,17
 107 580 107 580 104 573.5 c 128,-1,18
 101 567 101 567 99.5 560 c 128,-1,19
 98 553 98 553 95 547 c 1,20,21
 95 540 95 540 94.5 533.5 c 128,-1,22
 94 527 94 527 94 520 c 1,23,24
 86 529 86 529 76.5 536 c 128,-1,25
 67 543 67 543 60 551 c 1,26,-1
 51 554 l 1,27,-1
 46 554 l 2,28,29
 36 554 36 554 27 547.5 c 128,-1,30
 18 541 18 541 15 533 c 1,31,32
 15 524 15 524 22 518 c 128,-1,33
 29 512 29 512 36 506 c 1,34,35
 43 502 43 502 52.5 496.5 c 128,-1,36
 62 491 62 491 69 486 c 1,37,38
 61 481 61 481 49.5 475 c 128,-1,39
 38 469 38 469 28 465 c 1,40,41
 19 460 19 460 11.5 454 c 128,-1,42
 4 448 4 448 3 440 c 1,43,44
 3 429 3 429 12 425 c 0,45,46
 17 423 17 423 23 421 c 128,-1,47
 29 419 29 419 36 418 c 0,48,49
 38 418 38 418 40.5 418.5 c 128,-1,50
 43 419 43 419 49 421 c 1,51,52
 57 426 57 426 65.5 431 c 128,-1,53
 74 436 74 436 82 441 c 1,54,55
 81 433 81 433 80.5 425.5 c 128,-1,56
 80 418 80 418 80 409 c 1,57,58
 82 399 82 399 84 393 c 128,-1,59
 86 387 86 387 98 383 c 1,60,61
 104 385 104 385 109 387 c 128,-1,62
 114 389 114 389 121 392 c 0,63,64
 133 396 133 396 136 407 c 1,65,66
 134 415 134 415 135 422.5 c 128,-1,67
 136 430 136 430 134 437 c 1,68,69
 140 432 140 432 146.5 428.5 c 128,-1,70
 153 425 153 425 160 419 c 1,71,72
 165 417 165 417 171 413.5 c 128,-1,73
 177 410 177 410 186 410 c 0,74,75
 198 410 198 410 204 419 c 128,-1,76
 210 428 210 428 213 435 c 1,77,78
 214 445 214 445 207 452 c 1,79,80
 191 459 191 459 177 467 c 128,-1,81
 163 475 163 475 147 484 c 1,82,83
 165 491 165 491 183 500.5 c 128,-1,84
 201 510 201 510 221 518 c 1,85,86
 228 522 228 522 228 533 c 1,0,1
EndSplineSet
Validated: 9
EndChar

StartChar: FL002Bh
Encoding: 43 43 14
Width: 286
Flags: W
LayerCount: 2
Fore
SplineSet
10 288 m 1,0,-1
 74 290 l 1,1,-1
 74 382 l 1,2,-1
 158 382 l 1,3,-1
 159 290 l 1,4,-1
 218 290 l 1,5,-1
 218 210 l 1,6,-1
 158 206 l 1,7,-1
 158 122 l 1,8,-1
 74 118 l 1,9,-1
 74 206 l 1,10,-1
 10 208 l 1,11,-1
 10 288 l 1,0,-1
EndSplineSet
Validated: 1
EndChar

StartChar: FL002Ch
Encoding: 44 44 15
Width: 189
Flags: W
LayerCount: 2
Fore
SplineSet
22 82 m 1,0,-1
 14 -106 l 1,1,-1
 114 -2 l 1,2,-1
 117 82 l 1,3,-1
 22 82 l 1,0,-1
EndSplineSet
Validated: 9
EndChar

StartChar: FL002Dh
Encoding: 45 45 16
Width: 238
Flags: W
LayerCount: 2
Fore
SplineSet
10 288 m 1,0,-1
 80 290 l 1,1,-1
 170 290 l 1,2,-1
 170 205 l 1,3,-1
 80 205 l 1,4,-1
 10 208 l 1,5,-1
 10 288 l 1,0,-1
EndSplineSet
Validated: 1
EndChar

StartChar: FL002Eh
Encoding: 46 46 17
Width: 193
Flags: W
LayerCount: 2
Fore
SplineSet
18 82 m 1,0,-1
 16 0 l 1,1,-1
 110 -2 l 1,2,-1
 113 82 l 1,3,-1
 18 82 l 1,0,-1
EndSplineSet
Validated: 9
EndChar

StartChar: FL002Fh
Encoding: 47 47 18
Width: 293
Flags: W
LayerCount: 2
Fore
SplineSet
150 556 m 1,0,-1
 24 -28 l 1,1,-1
 114 -28 l 1,2,-1
 246 556 l 1,3,-1
 150 556 l 1,0,-1
EndSplineSet
Validated: 9
EndChar

StartChar: FL0030h
Encoding: 48 48 19
Width: 374
Flags: W
LayerCount: 2
Fore
SplineSet
309 310 m 0,0,1
 309 256 309 256 299 202 c 128,-1,2
 289 148 289 148 266 103 c 1,3,4
 253 80 253 80 243 63.5 c 128,-1,5
 233 47 233 47 225 37 c 0,6,7
 208 17 208 17 165 2 c 1,8,9
 118 -1 118 -1 88.5 26 c 128,-1,10
 59 53 59 53 42.5 94.5 c 128,-1,11
 26 136 26 136 20.5 185 c 128,-1,12
 15 234 15 234 16 275 c 1,13,14
 16 329 16 329 26 383 c 128,-1,15
 36 437 36 437 61 483 c 0,16,17
 73 506 73 506 82.5 522.5 c 128,-1,18
 92 539 92 539 101.5 551 c 128,-1,19
 111 563 111 563 122.5 571.5 c 128,-1,20
 134 580 134 580 150 586 c 1,21,22
 205 586 205 586 236.5 558.5 c 128,-1,23
 268 531 268 531 284 490 c 128,-1,24
 300 449 300 449 304.5 400.5 c 128,-1,25
 309 352 309 352 309 310 c 0,0,1
188 480 m 1,26,27
 153 471 153 471 129 433 c 1,28,29
 106 394 106 394 96 355.5 c 128,-1,30
 86 317 86 317 86 269 c 0,31,32
 86 251 86 251 88.5 219.5 c 128,-1,33
 91 188 91 188 99 157 c 128,-1,34
 107 126 107 126 117.5 120 c 128,-1,35
 128 114 128 114 144 117 c 0,36,37
 161 120 161 120 172.5 129 c 128,-1,38
 184 138 184 138 201 165 c 1,39,40
 219 191 219 191 229 229.5 c 128,-1,41
 239 268 239 268 239 316 c 0,42,43
 239 334 239 334 236.5 365.5 c 128,-1,44
 234 397 234 397 226 429 c 1,45,46
 221 444 221 444 218.5 453.5 c 128,-1,47
 216 463 216 463 215 468 c 1,48,49
 213 472 213 472 188 480 c 1,26,27
EndSplineSet
Validated: 33
EndChar

StartChar: FL0031h
Encoding: 49 49 20
Width: 216
Flags: W
LayerCount: 2
Fore
SplineSet
134 580 m 1,0,-1
 30 584 l 2,1,2
 14 584 14 584 10 568 c 1,3,-1
 18 488 l 1,4,-1
 54 486 l 1,5,6
 54 389 54 389 53 307.5 c 128,-1,7
 52 226 52 226 52 154 c 0,8,9
 52 13 52 13 57 5 c 1,10,11
 71 1 71 1 80 0.5 c 128,-1,12
 89 0 89 0 91 0 c 0,13,14
 133 1 133 1 135 9 c 1,15,16
 138 16 138 16 138 36 c 2,17,-1
 138 489 l 1,18,-1
 134 580 l 1,0,-1
EndSplineSet
Validated: 9
EndChar

StartChar: FL0032h
Encoding: 50 50 21
Width: 344
Flags: W
LayerCount: 2
Fore
SplineSet
278 18 m 1,0,-1
 270 102 l 1,1,2
 238 100 238 100 217 98.5 c 128,-1,3
 196 97 196 97 185 97 c 2,4,-1
 118 98 l 1,5,-1
 114 166 l 1,6,7
 114 194 114 194 126.5 216.5 c 128,-1,8
 139 239 139 239 157 259 c 128,-1,9
 175 279 175 279 197 298 c 128,-1,10
 219 317 219 317 237 339 c 128,-1,11
 255 361 255 361 267.5 387.5 c 128,-1,12
 280 414 280 414 280 448 c 0,13,14
 280 483 280 483 266 511.5 c 128,-1,15
 252 540 252 540 228.5 560 c 128,-1,16
 205 580 205 580 174.5 590.5 c 128,-1,17
 144 601 144 601 110 601 c 2,18,-1
 91 601 l 2,19,20
 86 601 86 601 80 601 c 256,21,22
 74 601 74 601 69 600 c 0,23,24
 59 599 59 599 51.5 594 c 128,-1,25
 44 589 44 589 30 582 c 1,26,27
 3 514 3 514 57 508 c 1,28,29
 78 507 78 507 101 503.5 c 128,-1,30
 124 500 124 500 143 491.5 c 128,-1,31
 162 483 162 483 174.5 468 c 128,-1,32
 187 453 187 453 187 429 c 0,33,34
 187 415 187 415 186 404.5 c 128,-1,35
 185 394 185 394 174 383 c 1,36,37
 147 360 147 360 117.5 335 c 128,-1,38
 88 310 88 310 64 281.5 c 128,-1,39
 40 253 40 253 24.5 220.5 c 128,-1,40
 9 188 9 188 9 150 c 2,41,-1
 10 2 l 1,42,-1
 174 6 l 1,43,44
 231 6 231 6 252.5 10 c 128,-1,45
 274 14 274 14 278 18 c 1,0,-1
EndSplineSet
Validated: 41
EndChar

StartChar: FL0033h
Encoding: 51 51 22
Width: 370
Flags: W
LayerCount: 2
Fore
SplineSet
12 584 m 1,0,-1
 14 526 l 1,1,2
 42 526 42 526 101 529 c 1,3,4
 185 523 185 523 178 501 c 0,5,6
 176 496 176 496 170.5 484 c 128,-1,7
 165 472 165 472 156 454 c 0,8,9
 138 418 138 418 66 406 c 1,10,11
 50 346 50 346 66 330 c 1,12,13
 130 325 130 325 146 306 c 0,14,15
 154 296 154 296 162 287 c 128,-1,16
 170 278 170 278 178 270 c 0,17,18
 214 234 214 234 214 186 c 0,19,20
 214 183 214 183 213.5 176.5 c 128,-1,21
 213 170 213 170 212.5 162.5 c 128,-1,22
 212 155 212 155 211.5 148.5 c 128,-1,23
 211 142 211 142 211 139 c 1,24,25
 197 117 197 117 171.5 110 c 128,-1,26
 146 103 146 103 123 103 c 0,27,28
 119 103 119 103 108 103.5 c 128,-1,29
 97 104 97 104 69 103 c 0,30,31
 42 102 42 102 32 88 c 128,-1,32
 22 74 22 74 22 50 c 2,33,-1
 22 25 l 2,34,35
 22 19 22 19 22 13 c 256,36,37
 22 7 22 7 21 0 c 1,38,39
 38 0 38 0 63 -1 c 128,-1,40
 88 -2 88 -2 111 -2 c 0,41,42
 150 -2 150 -2 185 8.5 c 128,-1,43
 220 19 220 19 246.5 40 c 128,-1,44
 273 61 273 61 288.5 93 c 128,-1,45
 304 125 304 125 304 168 c 0,46,47
 304 200 304 200 294 227 c 128,-1,48
 284 254 284 254 267.5 277.5 c 128,-1,49
 251 301 251 301 230 322 c 128,-1,50
 209 343 209 343 187 362 c 1,51,-1
 187 367 l 1,52,-1
 187 373 l 1,53,-1
 194 384 l 1,54,55
 208 402 208 402 220 416 c 128,-1,56
 232 430 232 430 246 447 c 128,-1,57
 260 464 260 464 267 491.5 c 128,-1,58
 274 519 274 519 267 541 c 1,59,60
 259 562 259 562 238.5 576 c 128,-1,61
 218 590 218 590 201 594 c 1,62,63
 190 600 190 600 139 598 c 0,64,65
 134 597 134 597 128 597 c 0,66,67
 123 597 123 597 118 597 c 2,68,-1
 102 597 l 1,69,-1
 84 597 l 1,70,-1
 64 597 l 1,71,-1
 53 597 l 2,72,73
 51 597 51 597 44.5 597.5 c 128,-1,74
 38 598 38 598 31.5 597 c 128,-1,75
 25 596 25 596 19 593 c 128,-1,76
 13 590 13 590 12 584 c 1,0,-1
EndSplineSet
Validated: 41
EndChar

StartChar: FL0034h
Encoding: 52 52 23
Width: 355
Flags: W
LayerCount: 2
Fore
SplineSet
23 573 m 1,0,1
 25 573 25 573 34.5 574.5 c 128,-1,2
 44 576 44 576 46 576 c 0,3,4
 53 576 53 576 66 574.5 c 128,-1,5
 79 573 79 573 96 562 c 1,6,7
 99 554 99 554 100.5 549 c 128,-1,8
 102 544 102 544 103 541 c 0,9,10
 107 534 107 534 101 351 c 1,11,-1
 181 360 l 1,12,-1
 181 592 l 1,13,-1
 284 592 l 1,14,15
 283 521 283 521 281 444 c 128,-1,16
 279 367 279 367 276.5 289.5 c 128,-1,17
 274 212 274 212 271 137 c 128,-1,18
 268 62 268 62 265 -5 c 1,19,-1
 187 -5 l 1,20,-1
 185 253 l 1,21,-1
 18 252 l 1,22,23
 17 343 17 343 18.5 422 c 128,-1,24
 20 501 20 501 23 573 c 1,0,1
EndSplineSet
Validated: 33
EndChar

StartChar: FL0035h
Encoding: 53 53 24
Width: 340
Flags: W
LayerCount: 2
Fore
SplineSet
12 96 m 1,0,-1
 23 96 l 2,1,2
 44 96 44 96 64 89.5 c 128,-1,3
 84 83 84 83 106 83 c 0,4,5
 141 83 141 83 159 101.5 c 128,-1,6
 177 120 177 120 177 154 c 2,7,-1
 177 178 l 2,8,9
 177 187 177 187 177.5 194.5 c 128,-1,10
 178 202 178 202 178 209 c 2,11,-1
 178 226 l 2,12,13
 178 249 178 249 174 264 c 0,14,15
 169 282 169 282 114 294 c 1,16,-1
 10 290 l 1,17,-1
 11 443 l 2,18,19
 11 480 11 480 12.5 523 c 128,-1,20
 14 566 14 566 18 598 c 1,21,22
 84 599 84 599 124 599.5 c 128,-1,23
 164 600 164 600 181 600 c 0,24,25
 188 600 188 600 199.5 600.5 c 128,-1,26
 211 601 211 601 221.5 599.5 c 128,-1,27
 232 598 232 598 239.5 593 c 128,-1,28
 247 588 247 588 247 578 c 0,29,30
 247 575 247 575 246.5 570 c 128,-1,31
 246 565 246 565 246 564 c 0,32,33
 246 561 246 561 244.5 552.5 c 128,-1,34
 243 544 243 544 241 534.5 c 128,-1,35
 239 525 239 525 237 516.5 c 128,-1,36
 235 508 235 508 234 505 c 1,37,38
 223 504 223 504 212 504.5 c 128,-1,39
 201 505 201 505 189 507 c 0,40,41
 166 510 166 510 78 510 c 1,42,-1
 78 386 l 1,43,-1
 202 382 l 1,44,45
 235 360 235 360 250 344 c 0,46,47
 262 330 262 330 268 300 c 0,48,49
 271 285 271 285 273.5 265 c 128,-1,50
 276 245 276 245 278 223 c 128,-1,51
 280 201 280 201 281 178.5 c 128,-1,52
 282 156 282 156 282 137 c 0,53,54
 282 100 282 100 269 72.5 c 128,-1,55
 256 45 256 45 233.5 26.5 c 128,-1,56
 211 8 211 8 181 -1.5 c 128,-1,57
 151 -11 151 -11 117 -11 c 0,58,59
 60 -11 60 -11 34.5 12.5 c 128,-1,60
 9 36 9 36 12 96 c 1,0,-1
EndSplineSet
Validated: 33
EndChar

StartChar: FL0036h
Encoding: 54 54 25
Width: 371
Flags: W
LayerCount: 2
Fore
SplineSet
12 558 m 1,0,-1
 12 475 l 1,1,-1
 12 391 l 2,2,3
 12 378 12 378 12.5 349 c 128,-1,4
 13 320 13 320 14 283.5 c 128,-1,5
 15 247 15 247 16 207 c 128,-1,6
 17 167 17 167 18.5 130.5 c 128,-1,7
 20 94 20 94 21 65.5 c 128,-1,8
 22 37 22 37 23 24 c 1,9,10
 30 13 30 13 40.5 7.5 c 128,-1,11
 51 2 51 2 63 0 c 128,-1,12
 75 -2 75 -2 87.5 -1.5 c 128,-1,13
 100 -1 100 -1 111 -1 c 0,14,15
 150 -1 150 -1 185 9 c 128,-1,16
 220 19 220 19 246.5 39.5 c 128,-1,17
 273 60 273 60 288.5 91 c 128,-1,18
 304 122 304 122 304 163 c 0,19,20
 304 192 304 192 294 218 c 128,-1,21
 284 244 284 244 267 266 c 1,22,23
 242 301 242 301 207 327 c 0,24,25
 190 339 190 339 177.5 348 c 128,-1,26
 165 357 165 357 153 362 c 128,-1,27
 141 367 141 367 128.5 367.5 c 128,-1,28
 116 368 116 368 100 364 c 1,29,-1
 99 558 l 2,30,31
 99 566 99 566 87 568.5 c 128,-1,32
 75 571 75 571 64 571 c 2,33,-1
 53 571 l 2,34,35
 51 571 51 571 44.5 571.5 c 128,-1,36
 38 572 38 572 31.5 571.5 c 128,-1,37
 25 571 25 571 19 568 c 128,-1,38
 13 565 13 565 12 558 c 1,0,-1
94 101 m 1,39,-1
 92 252 l 1,40,41
 116 284 116 284 139 276 c 0,42,43
 161 268 161 268 178 252 c 0,44,45
 195 237 195 237 204.5 217 c 128,-1,46
 214 197 214 197 214 176 c 0,47,48
 214 173 214 173 213.5 167 c 128,-1,49
 213 161 213 161 212.5 154 c 128,-1,50
 212 147 212 147 211.5 141.5 c 128,-1,51
 211 136 211 136 211 134 c 1,52,53
 197 113 197 113 171.5 106.5 c 128,-1,54
 146 100 146 100 123 100 c 0,55,56
 119 100 119 100 108 100.5 c 128,-1,57
 97 101 97 101 94 101 c 1,39,-1
EndSplineSet
Validated: 41
EndChar

StartChar: FL0037h
Encoding: 55 55 26
Width: 285
Flags: W
LayerCount: 2
Fore
SplineSet
10 4 m 1,0,-1
 82 4 l 1,1,-1
 210 453 l 1,2,-1
 210 586 l 1,3,-1
 8 586 l 1,4,-1
 8 504 l 1,5,-1
 113 504 l 1,6,-1
 118 484 l 1,7,-1
 10 4 l 1,0,-1
EndSplineSet
Validated: 9
EndChar

StartChar: FL0038h
Encoding: 56 56 27
Width: 410
Flags: W
LayerCount: 2
Fore
SplineSet
190 94 m 1,0,-1
 170 94 l 1,1,2
 119 116 119 116 105 139 c 1,3,4
 105 142 105 142 104.5 148.5 c 128,-1,5
 104 155 104 155 103.5 162.5 c 128,-1,6
 103 170 103 170 102.5 176.5 c 128,-1,7
 102 183 102 183 102 186 c 0,8,9
 102 202 102 202 107.5 220 c 128,-1,10
 113 238 113 238 122.5 253 c 128,-1,11
 132 268 132 268 146 276.5 c 128,-1,12
 160 285 160 285 178 282 c 1,13,14
 198 283 198 283 213 273.5 c 128,-1,15
 228 264 228 264 238 249 c 128,-1,16
 248 234 248 234 253 216 c 128,-1,17
 258 198 258 198 258 182 c 0,18,19
 258 179 258 179 257.5 172.5 c 128,-1,20
 257 166 257 166 256.5 158.5 c 128,-1,21
 256 151 256 151 255.5 144.5 c 128,-1,22
 255 138 255 138 255 135 c 1,23,24
 241 113 241 113 190 94 c 1,0,-1
182 426 m 1,25,26
 162 431 162 431 152 452.5 c 128,-1,27
 142 474 142 474 138 499 c 1,28,29
 130 523 130 523 150 526 c 1,30,31
 165 530 165 530 180 530 c 0,32,33
 189 530 189 530 209 524 c 0,34,35
 230 518 230 518 222 495 c 0,36,37
 220 489 220 489 216.5 479 c 128,-1,38
 213 469 213 469 208 458.5 c 128,-1,39
 203 448 203 448 196.5 439 c 128,-1,40
 190 430 190 430 182 426 c 1,25,26
178 2 m 1,41,42
 263 15 263 15 290 36 c 128,-1,43
 317 57 317 57 332 89 c 1,44,45
 348 120 348 120 348 164 c 0,46,47
 348 196 348 196 338 223 c 128,-1,48
 328 250 328 250 311.5 273.5 c 128,-1,49
 295 297 295 297 274 318 c 128,-1,50
 253 339 253 339 231 358 c 1,51,-1
 231 363 l 1,52,-1
 231 369 l 1,53,-1
 238 380 l 1,54,55
 252 398 252 398 264 412 c 128,-1,56
 276 426 276 426 290 443 c 128,-1,57
 304 460 304 460 311 487.5 c 128,-1,58
 318 515 318 515 311 537 c 1,59,60
 303 558 303 558 282.5 572 c 128,-1,61
 262 586 262 586 245 590 c 1,62,63
 232 596 232 596 166 598 c 0,64,65
 126 600 126 600 115 594 c 1,66,67
 98 590 98 590 77.5 576 c 128,-1,68
 57 562 57 562 49 541 c 1,69,70
 42 519 42 519 49 491.5 c 128,-1,71
 56 464 56 464 70 447 c 128,-1,72
 84 430 84 430 96 416 c 128,-1,73
 108 402 108 402 122 384 c 1,74,-1
 129 373 l 1,75,-1
 129 367 l 1,76,-1
 129 362 l 1,77,78
 107 343 107 343 86 322 c 128,-1,79
 65 301 65 301 48.5 277.5 c 128,-1,80
 32 254 32 254 22 227 c 128,-1,81
 12 200 12 200 12 168 c 0,82,83
 12 125 12 125 27.5 93 c 128,-1,84
 43 61 43 61 69 40 c 0,85,86
 96 19 96 19 178 2 c 1,41,42
EndSplineSet
Validated: 41
EndChar

StartChar: FL0039h
Encoding: 57 57 28
Width: 371
Flags: W
LayerCount: 2
Fore
SplineSet
304 12 m 1,0,-1
 304 95 l 1,1,-1
 304 179 l 2,2,3
 304 192 304 192 303.5 221 c 128,-1,4
 303 250 303 250 302 286.5 c 128,-1,5
 301 323 301 323 300 363 c 128,-1,6
 299 403 299 403 297.5 439.5 c 128,-1,7
 296 476 296 476 295 504.5 c 128,-1,8
 294 533 294 533 293 546 c 1,9,10
 286 557 286 557 275.5 562.5 c 128,-1,11
 265 568 265 568 253 570 c 128,-1,12
 241 572 241 572 228.5 571.5 c 128,-1,13
 216 571 216 571 205 571 c 0,14,15
 166 571 166 571 131 561 c 128,-1,16
 96 551 96 551 69.5 530.5 c 128,-1,17
 43 510 43 510 27.5 479 c 128,-1,18
 12 448 12 448 12 407 c 0,19,20
 12 378 12 378 22 352 c 128,-1,21
 32 326 32 326 49 304 c 0,22,23
 75 268 75 268 108.5 243 c 128,-1,24
 142 218 142 218 198 192 c 1,25,-1
 217 179 l 1,26,-1
 217 12 l 2,27,28
 217 4 217 4 229 1.5 c 128,-1,29
 241 -1 241 -1 252 -1 c 2,30,-1
 263 -1 l 2,31,32
 265 -1 265 -1 271.5 -1.5 c 128,-1,33
 278 -2 278 -2 284.5 -1.5 c 128,-1,34
 291 -1 291 -1 297 2 c 128,-1,35
 303 5 303 5 304 12 c 1,0,-1
222 469 m 1,36,-1
 222 284 l 1,37,38
 197 284 197 284 175.5 293 c 128,-1,39
 154 302 154 302 137.5 317.5 c 128,-1,40
 121 333 121 333 111.5 353 c 128,-1,41
 102 373 102 373 102 394 c 0,42,43
 102 397 102 397 102.5 403 c 128,-1,44
 103 409 103 409 103.5 415.5 c 128,-1,45
 104 422 104 422 104.5 428 c 128,-1,46
 105 434 105 434 105 436 c 1,47,48
 119 457 119 457 144.5 463.5 c 128,-1,49
 170 470 170 470 193 470 c 0,50,51
 197 470 197 470 208 469.5 c 128,-1,52
 219 469 219 469 222 469 c 1,36,-1
EndSplineSet
Validated: 9
EndChar

StartChar: FL003Ah
Encoding: 58 58 29
Width: 193
Flags: W
LayerCount: 2
Fore
SplineSet
18 338 m 1,0,-1
 16 256 l 1,1,-1
 110 254 l 1,2,-1
 113 338 l 1,3,-1
 18 338 l 1,0,-1
18 82 m 1,4,-1
 16 0 l 1,5,-1
 110 -2 l 1,6,-1
 113 82 l 1,7,-1
 18 82 l 1,4,-1
EndSplineSet
Validated: 9
EndChar

StartChar: FL003Bh
Encoding: 59 59 30
Width: 193
Flags: W
LayerCount: 2
Fore
SplineSet
18 338 m 1,0,-1
 16 256 l 1,1,-1
 110 254 l 1,2,-1
 113 338 l 1,3,-1
 18 338 l 1,0,-1
22 82 m 1,4,-1
 14 -106 l 1,5,-1
 114 -2 l 1,6,-1
 117 82 l 1,7,-1
 22 82 l 1,4,-1
EndSplineSet
Validated: 9
EndChar

StartChar: FL003Ch
Encoding: 60 60 31
Width: 238
Flags: W
LayerCount: 2
Fore
SplineSet
162 41 m 1,0,1
 159 41 159 41 152 40 c 128,-1,2
 145 39 145 39 137 37.5 c 128,-1,3
 129 36 129 36 122 35 c 128,-1,4
 115 34 115 34 112 34 c 2,5,-1
 101 34 l 2,6,7
 96 34 96 34 90 35 c 128,-1,8
 84 36 84 36 82 41 c 2,9,-1
 42 184 l 1,10,-1
 12 290 l 1,11,-1
 30 345 l 2,12,13
 31 346 31 346 32.5 351 c 128,-1,14
 34 356 34 356 35.5 362.5 c 128,-1,15
 37 369 37 369 38.5 374.5 c 128,-1,16
 40 380 40 380 40 381 c 0,17,18
 42 389 42 389 46 410 c 128,-1,19
 50 431 50 431 55 455 c 128,-1,20
 60 479 60 479 64 500.5 c 128,-1,21
 68 522 68 522 70 530 c 1,22,-1
 82 530 l 1,23,-1
 170 530 l 1,24,-1
 90 276 l 1,25,-1
 162 41 l 1,0,1
EndSplineSet
Validated: 1
EndChar

StartChar: FL003Dh
Encoding: 61 61 32
Width: 246
Flags: W
LayerCount: 2
Fore
SplineSet
10 360 m 1,0,-1
 80 362 l 1,1,-1
 170 362 l 1,2,-1
 170 277 l 1,3,-1
 80 277 l 1,4,-1
 10 280 l 1,5,-1
 10 360 l 1,0,-1
10 212 m 1,6,-1
 80 214 l 1,7,-1
 170 214 l 1,8,-1
 170 129 l 1,9,-1
 80 129 l 1,10,-1
 10 132 l 1,11,-1
 10 212 l 1,6,-1
EndSplineSet
Validated: 1
EndChar

StartChar: FL003Eh
Encoding: 62 62 33
Width: 230
Flags: W
LayerCount: 2
Fore
SplineSet
20 41 m 1,0,1
 23 41 23 41 30 40 c 128,-1,2
 37 39 37 39 45 37.5 c 128,-1,3
 53 36 53 36 60 35 c 128,-1,4
 67 34 67 34 70 34 c 2,5,-1
 81 34 l 2,6,7
 86 34 86 34 92 35 c 128,-1,8
 98 36 98 36 100 41 c 2,9,-1
 140 184 l 1,10,-1
 170 290 l 1,11,-1
 152 345 l 2,12,13
 151 346 151 346 149.5 351 c 128,-1,14
 148 356 148 356 146.5 362.5 c 128,-1,15
 145 369 145 369 143.5 374.5 c 128,-1,16
 142 380 142 380 142 381 c 0,17,18
 140 389 140 389 136 410 c 128,-1,19
 132 431 132 431 127 455 c 128,-1,20
 122 479 122 479 118 500.5 c 128,-1,21
 114 522 114 522 112 530 c 1,22,-1
 100 530 l 1,23,-1
 12 530 l 1,24,-1
 92 276 l 1,25,-1
 20 41 l 1,0,1
EndSplineSet
Validated: 9
EndChar

StartChar: FL003Fh
Encoding: 63 63 34
Width: 348
Flags: W
LayerCount: 2
Fore
SplineSet
12 494 m 1,0,-1
 23 494 l 2,1,2
 44 494 44 494 64 500.5 c 128,-1,3
 84 507 84 507 106 507 c 0,4,5
 141 507 141 507 159 488.5 c 128,-1,6
 177 470 177 470 177 436 c 0,7,8
 177 394 177 394 151.5 361.5 c 128,-1,9
 126 329 126 329 94 300 c 0,10,11
 72 281 72 281 54 258.5 c 128,-1,12
 36 236 36 236 23 209 c 0,13,14
 11 182 11 182 26 154 c 1,15,-1
 106 154 l 1,16,17
 106 202 106 202 117 213 c 1,18,19
 144 236 144 236 173.5 262 c 128,-1,20
 203 288 203 288 227 317 c 128,-1,21
 251 346 251 346 266.5 380 c 128,-1,22
 282 414 282 414 282 453 c 0,23,24
 282 490 282 490 269 517.5 c 128,-1,25
 256 545 256 545 233.5 563.5 c 128,-1,26
 211 582 211 582 181 591.5 c 128,-1,27
 151 601 151 601 117 601 c 0,28,29
 60 601 60 601 34.5 577.5 c 128,-1,30
 9 554 9 554 12 494 c 1,0,-1
34 82 m 1,31,-1
 32 0 l 1,32,-1
 126 -2 l 1,33,-1
 129 82 l 1,34,-1
 34 82 l 1,31,-1
EndSplineSet
Validated: 41
EndChar

StartChar: FL0040h
Encoding: 64 64 35
Width: 356
Flags: W
LayerCount: 2
Fore
SplineSet
11 310 m 0,0,1
 11 256 11 256 20.5 198.5 c 128,-1,2
 30 141 30 141 54.5 93 c 128,-1,3
 79 45 79 45 121.5 14.5 c 128,-1,4
 164 -16 164 -16 229 -16 c 0,5,6
 237 -16 237 -16 250 -15 c 128,-1,7
 263 -14 263 -14 264 -14 c 2,8,-1
 276 -2 l 1,9,-1
 276 101 l 1,10,11
 171 101 171 101 127 157.5 c 128,-1,12
 83 214 83 214 83 316 c 0,13,14
 83 335 83 335 85 368.5 c 128,-1,15
 87 402 87 402 95.5 434 c 128,-1,16
 104 466 104 466 121 489.5 c 128,-1,17
 138 513 138 513 167 513 c 0,18,19
 168 513 168 513 174 513.5 c 128,-1,20
 180 514 180 514 187 513 c 128,-1,21
 194 512 194 512 199 509 c 128,-1,22
 204 506 204 506 204 500 c 2,23,-1
 203 344 l 1,24,25
 155 363 155 363 147 331 c 1,26,27
 144 314 144 314 144.5 298.5 c 128,-1,28
 145 283 145 283 151 270.5 c 128,-1,29
 157 258 157 258 170 249.5 c 128,-1,30
 183 241 183 241 205 240 c 1,31,32
 237 237 237 237 254 248.5 c 128,-1,33
 271 260 271 260 278.5 276.5 c 128,-1,34
 286 293 286 293 287 308 c 128,-1,35
 288 323 288 323 289 328 c 1,36,-1
 289 340 l 1,37,38
 286 380 286 380 287 426 c 128,-1,39
 288 472 288 472 280.5 510 c 128,-1,40
 273 548 273 548 249.5 573.5 c 128,-1,41
 226 599 226 599 174 599 c 0,42,43
 117 599 117 599 84.5 570.5 c 128,-1,44
 52 542 52 542 35.5 499 c 128,-1,45
 19 456 19 456 15 405 c 128,-1,46
 11 354 11 354 11 310 c 0,0,1
EndSplineSet
Validated: 41
EndChar

StartChar: A
Encoding: 65 65 36
Width: 458
Flags: W
LayerCount: 2
Fore
SplineSet
290 120 m 1,0,-1
 280 130 l 1,1,-1
 140 140 l 2,2,3
 139 140 139 140 135.5 132.5 c 128,-1,4
 132 125 132 125 130 120 c 0,5,6
 128 114 128 114 123.5 100 c 128,-1,7
 119 86 119 86 114 70.5 c 128,-1,8
 109 55 109 55 105 40.5 c 128,-1,9
 101 26 101 26 100 20 c 1,10,-1
 90 10 l 1,11,-1
 4 10 l 1,12,-1
 186 600 l 1,13,-1
 330 600 l 1,14,-1
 330 520 l 1,15,16
 318 525 318 525 311.5 523 c 128,-1,17
 305 521 305 521 302 515.5 c 128,-1,18
 299 510 299 510 298.5 503.5 c 128,-1,19
 298 497 298 497 298 492 c 0,20,21
 298 488 298 488 299 480 c 128,-1,22
 300 472 300 472 300 470 c 2,23,-1
 409 0 l 1,24,-1
 320 0 l 2,25,26
 319 0 319 0 315 7.5 c 128,-1,27
 311 15 311 15 310 20 c 0,28,29
 308 26 308 26 305 40 c 128,-1,30
 302 54 302 54 299 70 c 128,-1,31
 296 86 296 86 293.5 100 c 128,-1,32
 291 114 291 114 290 120 c 1,0,-1
158 230 m 1,33,-1
 250 230 l 2,34,35
 259 230 259 230 260 240 c 128,-1,36
 261 250 261 250 261 254 c 0,37,38
 261 257 261 257 260.5 263 c 128,-1,39
 260 269 260 269 260 270 c 0,40,41
 257 286 257 286 252 312.5 c 128,-1,42
 247 339 247 339 242.5 364.5 c 128,-1,43
 238 390 238 390 234.5 409 c 128,-1,44
 231 428 231 428 230 430 c 2,45,-1
 220 450 l 1,46,-1
 210 440 l 1,47,-1
 158 230 l 1,33,-1
EndSplineSet
Validated: 1
EndChar

StartChar: FL0042h
Encoding: 66 66 37
Width: 370
Flags: W
LayerCount: 2
Fore
SplineSet
10 598 m 1,0,-1
 12 496 l 1,1,-1
 12 408 l 2,2,3
 12 397 12 397 12.5 377.5 c 128,-1,4
 13 358 13 358 14 332 c 128,-1,5
 15 306 15 306 16 276 c 128,-1,6
 17 246 17 246 18 215 c 0,7,8
 20 164 20 164 21 125 c 128,-1,9
 22 86 22 86 22 50 c 2,10,-1
 22 25 l 2,11,12
 22 19 22 19 22 13 c 256,13,14
 22 7 22 7 21 0 c 1,15,16
 38 0 38 0 63 -1 c 128,-1,17
 88 -2 88 -2 111 -2 c 0,18,19
 150 -2 150 -2 185 8.5 c 128,-1,20
 220 19 220 19 246.5 40 c 128,-1,21
 273 61 273 61 288.5 93 c 128,-1,22
 304 125 304 125 304 168 c 0,23,24
 304 200 304 200 294 227 c 128,-1,25
 284 254 284 254 267.5 277.5 c 128,-1,26
 251 301 251 301 230 322 c 128,-1,27
 209 343 209 343 187 362 c 1,28,-1
 187 367 l 1,29,-1
 187 373 l 1,30,-1
 194 384 l 1,31,32
 208 402 208 402 220 416 c 128,-1,33
 232 430 232 430 246 447 c 128,-1,34
 260 464 260 464 267 491.5 c 128,-1,35
 274 519 274 519 267 541 c 1,36,37
 259 562 259 562 238.5 576 c 128,-1,38
 218 590 218 590 201 594 c 1,39,40
 190 600 190 600 139 598 c 0,41,42
 134 597 134 597 128 597 c 0,43,44
 123 597 123 597 118 597 c 2,45,-1
 102 597 l 1,46,-1
 84 597 l 1,47,-1
 64 597 l 1,48,-1
 53 597 l 1,49,-1
 41 597 l 2,50,51
 36 597 36 597 28 597 c 256,52,53
 20 597 20 597 10 598 c 1,0,-1
94 104 m 1,54,-1
 94 307 l 1,55,56
 119 307 119 307 140.5 297 c 128,-1,57
 162 287 162 287 178.5 270 c 128,-1,58
 195 253 195 253 204.5 231.5 c 128,-1,59
 214 210 214 210 214 186 c 0,60,61
 214 183 214 183 213.5 176.5 c 128,-1,62
 213 170 213 170 212.5 162.5 c 128,-1,63
 212 155 212 155 211.5 148.5 c 128,-1,64
 211 142 211 142 211 139 c 1,65,66
 197 117 197 117 171.5 110 c 128,-1,67
 146 103 146 103 123 103 c 0,68,69
 119 103 119 103 108 103.5 c 128,-1,70
 97 104 97 104 94 104 c 1,54,-1
94 530 m 1,71,72
 185 522 185 522 178 500 c 0,73,74
 174 486 174 486 158.5 460 c 128,-1,75
 143 434 143 434 117 396 c 1,76,-1
 90 398 l 1,77,-1
 94 530 l 1,71,72
EndSplineSet
Validated: 41
EndChar

StartChar: FL0043h
Encoding: 67 67 38
Width: 344
Flags: W
LayerCount: 2
Fore
SplineSet
11 310 m 0,0,1
 11 352 11 352 15 400.5 c 128,-1,2
 19 449 19 449 35 490 c 128,-1,3
 51 531 51 531 82.5 558.5 c 128,-1,4
 114 586 114 586 170 586 c 0,5,6
 225 586 225 586 248 557 c 0,7,8
 259 543 259 543 265.5 534 c 128,-1,9
 272 525 272 525 275 522 c 1,10,-1
 226 475 l 1,11,12
 217 477 217 477 212 481.5 c 128,-1,13
 207 486 207 486 201.5 490.5 c 128,-1,14
 196 495 196 495 187.5 499 c 128,-1,15
 179 503 179 503 163 504 c 1,16,17
 135 504 135 504 118.5 481.5 c 128,-1,18
 102 459 102 459 94 428.5 c 128,-1,19
 86 398 86 398 83.5 366.5 c 128,-1,20
 81 335 81 335 81 316 c 0,21,22
 81 268 81 268 91 229.5 c 128,-1,23
 101 191 101 191 123.5 164.5 c 128,-1,24
 146 138 146 138 181.5 124 c 128,-1,25
 217 110 217 110 269 110 c 1,26,-1
 269 12 l 1,27,-1
 257 0 l 2,28,29
 256 0 256 0 243.5 -0.5 c 128,-1,30
 231 -1 231 -1 223 -1 c 0,31,32
 160 -1 160 -1 119 28 c 128,-1,33
 78 57 78 57 54 102.5 c 128,-1,34
 30 148 30 148 20.5 203 c 128,-1,35
 11 258 11 258 11 310 c 0,0,1
EndSplineSet
Validated: 1
EndChar

StartChar: FL0044h
Encoding: 68 68 39
Width: 346
Flags: W
LayerCount: 2
Fore
SplineSet
282 275 m 0,0,1
 282 233 282 233 277.5 184.5 c 128,-1,2
 273 136 273 136 257 95 c 128,-1,3
 241 54 241 54 209.5 26.5 c 128,-1,4
 178 -1 178 -1 123 -1 c 1,5,-1
 29 -6 l 1,6,7
 28 23 28 23 27 41 c 128,-1,8
 26 59 26 59 25 67 c 2,9,-1
 14 590 l 1,10,-1
 75 590 l 1,11,12
 134 586 134 586 174 556.5 c 128,-1,13
 214 527 214 527 238 482.5 c 128,-1,14
 262 438 262 438 272 383.5 c 128,-1,15
 282 329 282 329 282 275 c 0,0,1
84 473 m 1,16,17
 82 87 82 87 87 84 c 0,18,19
 91 81 91 81 99 81 c 0,20,21
 104 81 104 81 111 81.5 c 128,-1,22
 118 82 118 82 128 83 c 1,23,24
 160 94 160 94 174.5 109.5 c 128,-1,25
 189 125 189 125 197 156 c 0,26,27
 205 188 205 188 207 219.5 c 128,-1,28
 209 251 209 251 209 269 c 1,29,30
 213 318 213 318 200 356.5 c 128,-1,31
 187 395 187 395 166 421 c 128,-1,32
 145 447 145 447 122 460.5 c 128,-1,33
 99 474 99 474 84 473 c 1,16,17
EndSplineSet
Validated: 33
EndChar

StartChar: E
Encoding: 69 69 40
Width: 302
Flags: W
LayerCount: 2
Fore
SplineSet
18 574 m 1,0,1
 13 471 13 471 11.5 357 c 128,-1,2
 10 243 10 243 8 133 c 1,3,-1
 8 0 l 1,4,-1
 211 0 l 1,5,-1
 211 82 l 1,6,-1
 105 82 l 1,7,-1
 105 252 l 1,8,-1
 199 252 l 1,9,-1
 199 345 l 1,10,-1
 94 345 l 1,11,-1
 94 486 l 1,12,-1
 234 486 l 1,13,-1
 234 573 l 1,14,-1
 222 585 l 2,15,16
 221 585 221 585 208.5 585.5 c 128,-1,17
 196 586 196 586 190 586 c 0,18,19
 166 586 166 586 147 585 c 128,-1,20
 128 584 128 584 109 582.5 c 128,-1,21
 90 581 90 581 68 579 c 128,-1,22
 46 577 46 577 18 574 c 1,0,1
EndSplineSet
Validated: 9
EndChar

StartChar: FL0046h
Encoding: 70 70 41
Width: 292
Flags: W
LayerCount: 2
Fore
SplineSet
15 12 m 1,0,1
 13 65 13 65 12 145 c 0,2,3
 11 166 11 166 11 186 c 256,4,5
 11 206 11 206 11 226 c 256,6,7
 11 246 11 246 10.5 265.5 c 128,-1,8
 10 285 10 285 9 304 c 128,-1,9
 8 323 8 323 8 341 c 0,10,11
 8 360 8 360 8 379 c 2,12,-1
 8 453 l 1,13,-1
 8 586 l 1,14,-1
 227 587 l 1,15,-1
 220 503 l 1,16,-1
 105 504 l 1,17,-1
 105 335 l 1,18,-1
 199 335 l 1,19,-1
 199 241 l 1,20,-1
 94 241 l 1,21,-1
 94 101 l 1,22,-1
 92 11 l 1,23,-1
 15 12 l 1,0,1
EndSplineSet
Validated: 1
EndChar

StartChar: FL0047h
Encoding: 71 71 42
Width: 348
Flags: W
LayerCount: 2
Fore
SplineSet
11 275 m 0,0,1
 11 233 11 233 15 184.5 c 128,-1,2
 19 136 19 136 35 95 c 128,-1,3
 51 54 51 54 82.5 26.5 c 128,-1,4
 114 -1 114 -1 170 -1 c 0,5,6
 220 -1 220 -1 243 23 c 128,-1,7
 266 47 266 47 273.5 84 c 128,-1,8
 281 121 281 121 280 164 c 128,-1,9
 279 207 279 207 281 246 c 1,10,-1
 281 257 l 2,11,12
 281 265 281 265 281.5 274.5 c 128,-1,13
 282 284 282 284 282 292 c 2,14,-1
 282 304 l 1,15,-1
 175 304 l 2,16,17
 173 304 173 304 168.5 299.5 c 128,-1,18
 164 295 164 295 164 292 c 0,19,20
 164 291 164 291 163.5 278 c 128,-1,21
 163 265 163 265 163 257 c 0,22,23
 163 240 163 240 163.5 231 c 128,-1,24
 164 222 164 222 167 218.5 c 128,-1,25
 170 215 170 215 177.5 214.5 c 128,-1,26
 185 214 185 214 199 214 c 1,27,-1
 199 94 l 2,28,29
 199 88 199 88 194 85 c 128,-1,30
 189 82 189 82 182.5 81 c 128,-1,31
 176 80 176 80 170 80.5 c 128,-1,32
 164 81 164 81 163 81 c 0,33,34
 135 81 135 81 118.5 103.5 c 128,-1,35
 102 126 102 126 94 156.5 c 128,-1,36
 86 187 86 187 83.5 218.5 c 128,-1,37
 81 250 81 250 81 269 c 0,38,39
 81 317 81 317 91 355.5 c 128,-1,40
 101 394 101 394 123.5 420.5 c 128,-1,41
 146 447 146 447 181.5 461 c 128,-1,42
 217 475 217 475 269 475 c 1,43,-1
 269 573 l 1,44,-1
 257 585 l 2,45,46
 256 585 256 585 243.5 585.5 c 128,-1,47
 231 586 231 586 223 586 c 0,48,49
 160 586 160 586 119 557 c 128,-1,50
 78 528 78 528 54 482.5 c 128,-1,51
 30 437 30 437 20.5 382 c 128,-1,52
 11 327 11 327 11 275 c 0,0,1
EndSplineSet
Validated: 41
EndChar

StartChar: FL0048h
Encoding: 72 72 43
Width: 367
Flags: W
LayerCount: 2
Fore
SplineSet
286 573 m 1,0,1
 284 573 284 573 274.5 574.5 c 128,-1,2
 265 576 265 576 263 576 c 0,3,4
 256 576 256 576 243 574.5 c 128,-1,5
 230 573 230 573 213 562 c 1,6,7
 210 554 210 554 208.5 549 c 128,-1,8
 207 544 207 544 206 541 c 1,9,10
 206 536 206 536 206.5 489 c 128,-1,11
 207 442 207 442 208 351 c 1,12,-1
 128 360 l 1,13,-1
 128 592 l 1,14,-1
 25 592 l 1,15,16
 26 521 26 521 28 444 c 128,-1,17
 30 367 30 367 32.5 289.5 c 128,-1,18
 35 212 35 212 38 137 c 128,-1,19
 41 62 41 62 44 -5 c 1,20,-1
 122 -5 l 1,21,-1
 124 253 l 1,22,23
 173 267 173 267 213 242 c 1,24,-1
 216 -5 l 1,25,-1
 300 -5 l 1,26,27
 300 142 300 142 296 286 c 128,-1,28
 292 430 292 430 286 573 c 1,0,1
EndSplineSet
Validated: 41
EndChar

StartChar: I
Encoding: 73 73 44
Width: 205
Flags: W
LayerCount: 2
Fore
SplineSet
35 121 m 2,0,1
 35 179 35 179 35.5 231 c 128,-1,2
 36 283 36 283 37.5 335 c 128,-1,3
 39 387 39 387 41.5 441 c 128,-1,4
 44 495 44 495 47 558 c 1,5,-1
 145 558 l 1,6,7
 145 489 145 489 142.5 418.5 c 128,-1,8
 140 348 140 348 136 276 c 128,-1,9
 132 204 132 204 129 132 c 128,-1,10
 126 60 126 60 118 0 c 1,11,-1
 47 0 l 1,12,-1
 36 33 l 1,13,-1
 36 44 l 2,14,15
 36 55 36 55 35.5 69.5 c 128,-1,16
 35 84 35 84 35 98 c 2,17,-1
 35 121 l 2,0,1
EndSplineSet
Validated: 1
EndChar

StartChar: FL004Ah
Encoding: 74 74 45
Width: 352
Flags: W
LayerCount: 2
Fore
SplineSet
285 576 m 1,0,-1
 206 562 l 1,1,2
 211 480 211 480 213 431 c 128,-1,3
 215 382 215 382 216 366 c 0,4,5
 219 334 219 334 219 316 c 0,6,7
 219 268 219 268 209 229.5 c 128,-1,8
 199 191 199 191 177 152 c 1,9,10
 152 115 152 115 117 105 c 1,11,12
 91 112 91 112 90 117 c 128,-1,13
 89 122 89 122 85 128.5 c 128,-1,14
 81 135 81 135 74 146 c 1,15,16
 62 169 62 169 33 152 c 1,17,18
 4 137 4 137 21 95 c 1,19,20
 37 51 37 51 69 26 c 1,21,22
 100 -1 100 -1 156 -1 c 1,23,24
 171 5 171 5 182.5 13.5 c 128,-1,25
 194 22 194 22 204 34 c 128,-1,26
 214 46 214 46 223.5 62.5 c 128,-1,27
 233 79 233 79 245 102 c 0,28,29
 269 148 269 148 279 202 c 128,-1,30
 289 256 289 256 289 310 c 0,31,32
 289 331 289 331 288.5 356 c 128,-1,33
 288 381 288 381 287 412.5 c 128,-1,34
 286 444 286 444 285.5 484.5 c 128,-1,35
 285 525 285 525 285 576 c 1,0,-1
EndSplineSet
Validated: 41
EndChar

StartChar: FL004Bh
Encoding: 75 75 46
Width: 362
Flags: W
LayerCount: 2
Fore
SplineSet
12 546 m 1,0,1
 13 552 13 552 19 555 c 128,-1,2
 25 558 25 558 31.5 559 c 128,-1,3
 38 560 38 560 44.5 559.5 c 128,-1,4
 51 559 51 559 53 559 c 2,5,-1
 64 559 l 2,6,7
 75 559 75 559 87 556.5 c 128,-1,8
 99 554 99 554 99 546 c 2,9,-1
 99 383 l 1,10,-1
 117 383 l 1,11,-1
 199 536 l 2,12,13
 204 544 204 544 208 546 c 128,-1,14
 212 548 212 548 222 548 c 0,15,16
 241 548 241 548 262 538.5 c 128,-1,17
 283 529 283 529 292 514 c 1,18,19
 287 506 287 506 273.5 486 c 128,-1,20
 260 466 260 466 245 443.5 c 128,-1,21
 230 421 230 421 216.5 400.5 c 128,-1,22
 203 380 203 380 199 371 c 2,23,-1
 187 349 l 1,24,-1
 187 344 l 1,25,-1
 187 339 l 1,26,27
 197 325 197 325 217.5 292.5 c 128,-1,28
 238 260 238 260 270 208 c 1,29,-1
 302 116 l 1,30,-1
 322 8 l 1,31,32
 290 5 290 5 271.5 2.5 c 128,-1,33
 253 0 253 0 239 0 c 1,34,-1
 218 92 l 1,35,-1
 194 164 l 1,36,37
 180 188 180 188 167 209.5 c 128,-1,38
 154 231 154 231 143 250 c 0,39,40
 120 289 120 289 94 287 c 1,41,-1
 94 98 l 1,42,43
 95 85 95 85 95.5 75 c 128,-1,44
 96 65 96 65 96 58 c 0,45,46
 96 52 96 52 94.5 36.5 c 128,-1,47
 93 21 93 21 88 -2 c 1,48,49
 39 -1 39 -1 21 1 c 1,50,51
 22 13 22 13 22 25 c 256,52,53
 22 37 22 37 22 48 c 0,54,55
 22 83 22 83 21 118.5 c 128,-1,56
 20 154 20 154 18 201 c 0,57,58
 16 261 16 261 14 311 c 128,-1,59
 12 361 12 361 12 383 c 2,60,-1
 12 464 l 1,61,-1
 12 546 l 1,0,1
EndSplineSet
Validated: 33
EndChar

StartChar: FL004Ch
Encoding: 76 76 47
Width: 291
Flags: W
LayerCount: 2
Fore
SplineSet
94 583 m 1,0,1
 65 583 65 583 51 581 c 128,-1,2
 37 579 37 579 29 576 c 1,3,4
 21 571 21 571 20 567 c 0,5,6
 19 566 19 566 19 484 c 1,7,-1
 12 175 l 2,8,9
 12 168 12 168 11.5 151.5 c 128,-1,10
 11 135 11 135 10.5 115 c 128,-1,11
 10 95 10 95 9.5 73.5 c 128,-1,12
 9 52 9 52 9 35 c 2,13,-1
 9 0 l 1,14,-1
 211 0 l 1,15,-1
 222 82 l 1,16,-1
 94 82 l 1,17,-1
 94 583 l 1,0,1
EndSplineSet
Validated: 9
EndChar

StartChar: FL004Dh
Encoding: 77 77 48
Width: 510
Flags: W
LayerCount: 2
Fore
SplineSet
239 70 m 1,0,1
 254 115 254 115 264.5 145 c 128,-1,2
 275 175 275 175 281 192 c 0,3,4
 288 209 288 209 294 224.5 c 128,-1,5
 300 240 300 240 307 255 c 0,6,7
 313 270 313 270 316.5 280.5 c 128,-1,8
 320 291 320 291 323 297 c 0,9,10
 325 301 325 301 331.5 309.5 c 128,-1,11
 338 318 338 318 340 321 c 1,12,-1
 340 5 l 1,13,-1
 443 5 l 1,14,15
 443 76 443 76 440.5 152.5 c 128,-1,16
 438 229 438 229 434 306 c 128,-1,17
 430 383 430 383 425.5 458 c 128,-1,18
 421 533 421 533 417 601 c 1,19,-1
 346 601 l 1,20,-1
 239 323 l 1,21,-1
 225 300 l 1,22,-1
 106 583 l 1,23,-1
 36 583 l 1,24,25
 31 515 31 515 26 440 c 128,-1,26
 21 365 21 365 17.5 288 c 128,-1,27
 14 211 14 211 11.5 134.5 c 128,-1,28
 9 58 9 58 9 -14 c 1,29,-1
 112 -14 l 1,30,-1
 112 302 l 1,31,32
 115 299 115 299 121 290.5 c 128,-1,33
 127 282 127 282 130 278 c 1,34,35
 135 267 135 267 146 237.5 c 128,-1,36
 157 208 157 208 171 173 c 0,37,38
 185 139 185 139 190.5 116.5 c 128,-1,39
 196 94 196 94 206 70 c 1,40,41
 225 56 225 56 239 70 c 1,0,1
EndSplineSet
Validated: 41
EndChar

StartChar: FL004Eh
Encoding: 78 78 49
Width: 349
Flags: W
LayerCount: 2
Fore
SplineSet
23 526 m 1,0,1
 17 396 17 396 13 264 c 128,-1,2
 9 132 9 132 9 0 c 1,3,-1
 94 0 l 1,4,-1
 94 269 l 1,5,-1
 187 0 l 1,6,-1
 257 0 l 1,7,8
 262 68 262 68 267 143 c 128,-1,9
 272 218 272 218 275.5 295 c 128,-1,10
 279 372 279 372 281.5 448.5 c 128,-1,11
 284 525 284 525 284 597 c 1,12,-1
 181 597 l 1,13,-1
 181 281 l 1,14,15
 179 283 179 283 172.5 292 c 128,-1,16
 166 301 166 301 164 304 c 0,17,18
 159 316 159 316 147 346 c 128,-1,19
 135 376 135 376 122 409.5 c 128,-1,20
 109 443 109 443 97.5 473 c 128,-1,21
 86 503 86 503 82 515 c 0,22,23
 79 526 79 526 66.5 527 c 128,-1,24
 54 528 54 528 47 528 c 0,25,26
 44 528 44 528 35 527 c 128,-1,27
 26 526 26 526 23 526 c 1,0,1
EndSplineSet
Validated: 9
EndChar

StartChar: FL004Fh
Encoding: 79 79 50
Width: 374
Flags: W
LayerCount: 2
Fore
SplineSet
15 275 m 0,0,1
 15 233 15 233 19.5 184.5 c 128,-1,2
 24 136 24 136 40 95 c 128,-1,3
 56 54 56 54 87.5 26.5 c 128,-1,4
 119 -1 119 -1 174 -1 c 1,5,6
 190 5 190 5 201.5 13.5 c 128,-1,7
 213 22 213 22 222.5 34 c 128,-1,8
 232 46 232 46 241.5 62.5 c 128,-1,9
 251 79 251 79 263 102 c 0,10,11
 288 148 288 148 298 202 c 128,-1,12
 308 256 308 256 308 310 c 1,13,14
 309 351 309 351 303.5 400 c 128,-1,15
 298 449 298 449 281.5 490.5 c 128,-1,16
 265 532 265 532 235.5 559 c 128,-1,17
 206 586 206 586 159 583 c 1,18,19
 116 568 116 568 99 548 c 0,20,21
 91 538 91 538 81 521.5 c 128,-1,22
 71 505 71 505 58 482 c 1,23,24
 35 437 35 437 25 383 c 128,-1,25
 15 329 15 329 15 275 c 0,0,1
136 105 m 1,26,27
 110 112 110 112 109 117 c 128,-1,28
 108 122 108 122 105.5 131.5 c 128,-1,29
 103 141 103 141 98 156 c 1,30,31
 90 188 90 188 87.5 219.5 c 128,-1,32
 85 251 85 251 85 269 c 0,33,34
 85 317 85 317 95 355.5 c 128,-1,35
 105 394 105 394 123 420 c 1,36,37
 140 447 140 447 151.5 456 c 128,-1,38
 163 465 163 465 180 468 c 0,39,40
 196 471 196 471 206.5 465 c 128,-1,41
 217 459 217 459 225 428 c 128,-1,42
 233 397 233 397 235.5 365.5 c 128,-1,43
 238 334 238 334 238 316 c 0,44,45
 238 268 238 268 228 229.5 c 128,-1,46
 218 191 218 191 195 152 c 1,47,48
 171 114 171 114 136 105 c 1,26,27
EndSplineSet
Validated: 41
EndChar

StartChar: FL0050h
Encoding: 80 80 51
Width: 371
Flags: W
LayerCount: 2
Fore
SplineSet
12 12 m 1,0,1
 13 5 13 5 19 2 c 128,-1,2
 25 -1 25 -1 31.5 -1.5 c 128,-1,3
 38 -2 38 -2 44.5 -1.5 c 128,-1,4
 51 -1 51 -1 53 -1 c 2,5,-1
 64 -1 l 2,6,7
 75 -1 75 -1 87 1.5 c 128,-1,8
 99 4 99 4 99 12 c 2,9,-1
 99 179 l 1,10,-1
 118 192 l 1,11,12
 174 218 174 218 207.5 243 c 128,-1,13
 241 268 241 268 267 304 c 0,14,15
 284 326 284 326 294 352 c 128,-1,16
 304 378 304 378 304 407 c 0,17,18
 304 448 304 448 288.5 479 c 128,-1,19
 273 510 273 510 246.5 530.5 c 128,-1,20
 220 551 220 551 185 561 c 128,-1,21
 150 571 150 571 111 571 c 0,22,23
 100 571 100 571 87.5 571.5 c 128,-1,24
 75 572 75 572 63 570 c 128,-1,25
 51 568 51 568 40.5 562.5 c 128,-1,26
 30 557 30 557 23 546 c 1,27,28
 22 533 22 533 21 504.5 c 128,-1,29
 20 476 20 476 18.5 439.5 c 128,-1,30
 17 403 17 403 16 363 c 128,-1,31
 15 323 15 323 14 286.5 c 128,-1,32
 13 250 13 250 12.5 221 c 128,-1,33
 12 192 12 192 12 179 c 2,34,-1
 12 95 l 1,35,-1
 12 12 l 1,0,1
94 469 m 1,36,37
 97 469 97 469 108 469.5 c 128,-1,38
 119 470 119 470 123 470 c 0,39,40
 146 470 146 470 171.5 463.5 c 128,-1,41
 197 457 197 457 211 436 c 1,42,43
 211 434 211 434 211.5 428 c 128,-1,44
 212 422 212 422 212.5 415.5 c 128,-1,45
 213 409 213 409 213.5 403 c 128,-1,46
 214 397 214 397 214 394 c 0,47,48
 214 373 214 373 204.5 353 c 128,-1,49
 195 333 195 333 178.5 317.5 c 128,-1,50
 162 302 162 302 140.5 293 c 128,-1,51
 119 284 119 284 94 284 c 1,52,-1
 94 469 l 1,36,37
EndSplineSet
Validated: 9
EndChar

StartChar: FL0051h
Encoding: 81 81 52
Width: 369
Flags: W
LayerCount: 2
Fore
SplineSet
15 310 m 0,0,1
 15 256 15 256 25 202 c 128,-1,2
 35 148 35 148 58 102 c 1,3,4
 71 80 71 80 81 63.5 c 128,-1,5
 91 47 91 47 99 36 c 1,6,7
 117 17 117 17 140 6 c 1,8,9
 164 -4 164 -4 229 23 c 1,10,11
 356 -107 356 -107 281 103 c 1,12,13
 294 169 294 169 301 211.5 c 128,-1,14
 308 254 308 254 308 275 c 0,15,16
 308 301 308 301 306 331 c 128,-1,17
 304 361 304 361 301 394 c 0,18,19
 295 465 295 465 276 501 c 1,20,21
 258 540 258 540 232 556.5 c 128,-1,22
 206 573 206 573 174 586 c 1,23,24
 119 586 119 586 87.5 558.5 c 128,-1,25
 56 531 56 531 40 490 c 128,-1,26
 24 449 24 449 19.5 400.5 c 128,-1,27
 15 352 15 352 15 310 c 0,0,1
136 480 m 1,28,29
 172 471 172 471 195 432 c 0,30,31
 218 394 218 394 228 355.5 c 128,-1,32
 238 317 238 317 238 269 c 0,33,34
 238 259 238 259 237 233 c 128,-1,35
 236 207 236 207 234 172 c 1,36,37
 184 283 184 283 160 272 c 0,38,39
 137 262 137 262 180 114 c 1,40,41
 166 118 166 118 152 129 c 0,42,43
 143 135 143 135 130.5 151.5 c 128,-1,44
 118 168 118 168 107.5 193 c 128,-1,45
 97 218 97 218 90 249.5 c 128,-1,46
 83 281 83 281 85 316 c 1,47,48
 85 334 85 334 87.5 365.5 c 128,-1,49
 90 397 90 397 98 428 c 0,50,51
 103 444 103 444 105.5 453.5 c 128,-1,52
 108 463 108 463 109 467 c 0,53,54
 111 472 111 472 118 474.5 c 128,-1,55
 125 477 125 477 136 480 c 1,28,29
EndSplineSet
Validated: 41
EndChar

StartChar: FL0052h
Encoding: 82 82 53
Width: 364
Flags: W
LayerCount: 2
Fore
SplineSet
12 12 m 1,0,1
 13 5 13 5 19 2 c 128,-1,2
 25 -1 25 -1 31.5 -1.5 c 128,-1,3
 38 -2 38 -2 44.5 -1.5 c 128,-1,4
 51 -1 51 -1 53 -1 c 2,5,-1
 64 -1 l 2,6,7
 75 -1 75 -1 87 1.5 c 128,-1,8
 99 4 99 4 99 12 c 2,9,-1
 99 187 l 1,10,-1
 117 187 l 1,11,-1
 199 23 l 2,12,13
 204 14 204 14 208 12.5 c 128,-1,14
 212 11 212 11 222 11 c 0,15,16
 241 11 241 11 262 20.5 c 128,-1,17
 283 30 283 30 292 47 c 1,18,19
 286 54 286 54 272.5 75.5 c 128,-1,20
 259 97 259 97 244 121.5 c 128,-1,21
 229 146 229 146 216 168 c 128,-1,22
 203 190 203 190 199 199 c 2,23,-1
 187 222 l 1,24,-1
 187 228 l 1,25,-1
 187 234 l 1,26,27
 209 253 209 253 230 273.5 c 128,-1,28
 251 294 251 294 267.5 317.5 c 128,-1,29
 284 341 284 341 294 368 c 128,-1,30
 304 395 304 395 304 427 c 0,31,32
 304 470 304 470 288.5 502.5 c 128,-1,33
 273 535 273 535 246.5 556 c 128,-1,34
 220 577 220 577 185 587.5 c 128,-1,35
 150 598 150 598 111 598 c 0,36,37
 100 598 100 598 87.5 598.5 c 128,-1,38
 75 599 75 599 63 597 c 128,-1,39
 51 595 51 595 40.5 589.5 c 128,-1,40
 30 584 30 584 23 573 c 1,41,42
 22 559 22 559 21 529 c 128,-1,43
 20 499 20 499 18.5 460.5 c 128,-1,44
 17 422 17 422 16 380 c 128,-1,45
 15 338 15 338 14 299.5 c 128,-1,46
 13 261 13 261 12.5 231 c 128,-1,47
 12 201 12 201 12 187 c 2,48,-1
 12 99 l 1,49,-1
 12 12 l 1,0,1
94 491 m 1,50,51
 97 491 97 491 108 492 c 128,-1,52
 119 493 119 493 123 493 c 0,53,54
 146 493 146 493 171.5 486 c 128,-1,55
 197 479 197 479 211 456 c 1,56,57
 212 450 212 450 213 433 c 128,-1,58
 214 416 214 416 214 409 c 0,59,60
 214 385 214 385 204.5 363.5 c 128,-1,61
 195 342 195 342 178.5 325.5 c 128,-1,62
 162 309 162 309 140.5 299 c 128,-1,63
 119 289 119 289 94 289 c 1,64,-1
 94 491 l 1,50,51
EndSplineSet
Validated: 9
EndChar

StartChar: FL0053h
Encoding: 83 83 54
Width: 348
Flags: W
LayerCount: 2
Fore
SplineSet
12 96 m 1,0,1
 9 36 9 36 34.5 12.5 c 128,-1,2
 60 -11 60 -11 117 -11 c 0,3,4
 151 -11 151 -11 181 -1.5 c 128,-1,5
 211 8 211 8 233.5 26.5 c 128,-1,6
 256 45 256 45 269 72.5 c 128,-1,7
 282 100 282 100 282 137 c 0,8,9
 282 176 282 176 266.5 210 c 128,-1,10
 251 244 251 244 227 273 c 128,-1,11
 203 302 203 302 173.5 328 c 128,-1,12
 144 354 144 354 117 377 c 1,13,14
 106 388 106 388 105 399 c 128,-1,15
 104 410 104 410 104 424 c 0,16,17
 104 449 104 449 116.5 464.5 c 128,-1,18
 129 480 129 480 148 488.5 c 128,-1,19
 167 497 167 497 190 500.5 c 128,-1,20
 213 504 213 504 234 505 c 1,21,22
 235 508 235 508 237 516.5 c 128,-1,23
 239 525 239 525 241 534.5 c 128,-1,24
 243 544 243 544 244.5 552.5 c 128,-1,25
 246 561 246 561 246 564 c 0,26,27
 246 565 246 565 246.5 570 c 128,-1,28
 247 575 247 575 247 578 c 0,29,30
 247 588 247 588 239.5 593 c 128,-1,31
 232 598 232 598 221.5 599.5 c 128,-1,32
 211 601 211 601 199.5 600.5 c 128,-1,33
 188 600 188 600 181 600 c 0,34,35
 147 600 147 600 116.5 589 c 128,-1,36
 86 578 86 578 62.5 558 c 128,-1,37
 39 538 39 538 25 509 c 128,-1,38
 11 480 11 480 11 443 c 0,39,40
 11 408 11 408 23.5 381 c 128,-1,41
 36 354 36 354 54 331.5 c 128,-1,42
 72 309 72 309 94 289.5 c 128,-1,43
 116 270 116 270 134 249.5 c 128,-1,44
 152 229 152 229 164.5 206 c 128,-1,45
 177 183 177 183 177 154 c 0,46,47
 177 120 177 120 159 101.5 c 128,-1,48
 141 83 141 83 106 83 c 0,49,50
 84 83 84 83 64 89.5 c 128,-1,51
 44 96 44 96 23 96 c 2,52,-1
 12 96 l 1,0,1
EndSplineSet
Validated: 41
EndChar

StartChar: FL0054h
Encoding: 84 84 55
Width: 320
Flags: W
LayerCount: 2
Fore
SplineSet
255 587 m 1,0,1
 259 548 259 548 260.5 525.5 c 128,-1,2
 262 503 262 503 262 498 c 0,3,4
 262 489 262 489 178 489 c 1,5,-1
 178 398 l 1,6,-1
 178 36 l 2,7,8
 178 16 178 16 175 9 c 1,9,10
 174 2 174 2 131 0 c 0,11,12
 129 0 129 0 120 0.5 c 128,-1,13
 111 1 111 1 97 5 c 1,14,15
 92 13 92 13 92 154 c 1,16,17
 93 190 93 190 93.5 228 c 128,-1,18
 94 266 94 266 94 308 c 2,19,-1
 94 484 l 1,20,-1
 8 486 l 1,21,-1
 8 573 l 1,22,-1
 21 585 l 1,23,24
 21 585 21 585 26 585 c 256,25,26
 31 585 31 585 37 585.5 c 128,-1,27
 43 586 43 586 49 586 c 0,28,29
 56 586 56 586 60 586 c 0,30,31
 112 586 112 586 157 584 c 128,-1,32
 202 582 202 582 255 587 c 1,0,1
EndSplineSet
Validated: 33
EndChar

StartChar: FL0055h
Encoding: 85 85 56
Width: 410
Flags: W
LayerCount: 2
Fore
SplineSet
27 576 m 1,0,-1
 117 571 l 1,1,2
 117 538 117 538 116 502.5 c 128,-1,3
 115 467 115 467 114.5 432.5 c 128,-1,4
 114 398 114 398 113 366.5 c 128,-1,5
 112 335 112 335 112 309 c 0,6,7
 112 267 112 267 117 227 c 128,-1,8
 122 187 122 187 139 151 c 1,9,10
 158 114 158 114 183 108 c 1,11,12
 192 110 192 110 198.5 112 c 128,-1,13
 205 114 205 114 208 117 c 0,14,15
 217 124 217 124 227 154 c 0,16,17
 239 188 239 188 248 576 c 1,18,-1
 346 571 l 1,19,-1
 332 215 l 1,20,21
 325 166 325 166 317.5 131 c 128,-1,22
 310 96 310 96 300 75 c 0,23,24
 280 35 280 35 246 16 c 1,25,26
 209 -1 209 -1 157 -1 c 1,27,28
 141 5 141 5 129.5 13.5 c 128,-1,29
 118 22 118 22 108 34 c 128,-1,30
 98 46 98 46 88.5 62.5 c 128,-1,31
 79 79 79 79 67 102 c 0,32,33
 43 148 43 148 33 202 c 128,-1,34
 23 256 23 256 23 310 c 0,35,36
 23 331 23 331 23.5 356 c 128,-1,37
 24 381 24 381 25 412.5 c 128,-1,38
 26 444 26 444 26.5 484.5 c 128,-1,39
 27 525 27 525 27 576 c 1,0,-1
EndSplineSet
Validated: 1
EndChar

StartChar: FL0056h
Encoding: 86 86 57
Width: 382
Flags: W
LayerCount: 2
Fore
SplineSet
12 531 m 1,0,-1
 129 16 l 2,1,2
 132 4 132 4 133 -3 c 128,-1,3
 134 -10 134 -10 136.5 -14 c 128,-1,4
 139 -18 139 -18 143 -19 c 128,-1,5
 147 -20 147 -20 156 -20 c 0,6,7
 190 -20 190 -20 199 16 c 1,8,-1
 330 613 l 1,9,-1
 222 613 l 1,10,-1
 211 590 l 1,11,12
 209 581 209 581 206 561.5 c 128,-1,13
 203 542 203 542 199.5 517.5 c 128,-1,14
 196 493 196 493 192 466.5 c 128,-1,15
 188 440 188 440 184.5 415.5 c 128,-1,16
 181 391 181 391 178.5 372 c 128,-1,17
 176 353 176 353 175 344 c 0,18,19
 175 341 175 341 173.5 332.5 c 128,-1,20
 172 324 172 324 170 314 c 128,-1,21
 168 304 168 304 166.5 296 c 128,-1,22
 165 288 165 288 164 285 c 1,23,-1
 152 297 l 1,24,-1
 105 531 l 2,25,26
 103 541 103 541 96 542 c 128,-1,27
 89 543 89 543 83 543 c 2,28,-1
 70 543 l 2,29,30
 67 543 67 543 58.5 541.5 c 128,-1,31
 50 540 50 540 41 538 c 128,-1,32
 32 536 32 536 23.5 534 c 128,-1,33
 15 532 15 532 12 531 c 1,0,-1
EndSplineSet
Validated: 9
EndChar

StartChar: FL0057h
Encoding: 87 87 58
Width: 515
Flags: W
LayerCount: 2
Fore
SplineSet
239 512 m 1,0,1
 254 467 254 467 264.5 437.5 c 128,-1,2
 275 408 275 408 281 391 c 0,3,4
 288 374 288 374 294 357.5 c 128,-1,5
 300 341 300 341 307 326 c 0,6,7
 313 312 313 312 316.5 302 c 128,-1,8
 320 292 320 292 323 285 c 0,9,10
 325 282 325 282 331.5 273.5 c 128,-1,11
 338 265 338 265 340 262 c 1,12,-1
 340 578 l 1,13,-1
 443 578 l 1,14,15
 443 506 443 506 440.5 429.5 c 128,-1,16
 438 353 438 353 434 276 c 128,-1,17
 430 199 430 199 425.5 124 c 128,-1,18
 421 49 421 49 417 -19 c 1,19,-1
 346 -19 l 1,20,-1
 239 260 l 1,21,-1
 225 283 l 1,22,-1
 106 0 l 1,23,-1
 36 0 l 1,24,25
 31 68 31 68 26 143 c 128,-1,26
 21 218 21 218 17.5 295 c 128,-1,27
 14 372 14 372 11.5 448.5 c 128,-1,28
 9 525 9 525 9 597 c 1,29,-1
 112 597 l 1,30,-1
 112 281 l 1,31,32
 115 283 115 283 121 292 c 128,-1,33
 127 301 127 301 130 304 c 1,34,35
 135 315 135 315 146 345 c 128,-1,36
 157 375 157 375 171 409 c 0,37,38
 185 444 185 444 190.5 466.5 c 128,-1,39
 196 489 196 489 206 512 c 1,40,41
 225 525 225 525 239 512 c 1,0,1
EndSplineSet
Validated: 33
EndChar

StartChar: FL0058h
Encoding: 88 88 59
Width: 391
Flags: W
LayerCount: 2
Fore
SplineSet
14 20 m 1,0,-1
 98 295 l 1,1,-1
 5 592 l 1,2,-1
 108 592 l 1,3,-1
 122 592 l 1,4,5
 124 582 124 582 129 557 c 128,-1,6
 134 532 134 532 139.5 504 c 128,-1,7
 145 476 145 476 150 451.5 c 128,-1,8
 155 427 155 427 157 418 c 0,9,10
 157 417 157 417 158.5 410.5 c 128,-1,11
 160 404 160 404 162 396.5 c 128,-1,12
 164 389 164 389 165.5 383 c 128,-1,13
 167 377 167 377 168 376 c 1,14,-1
 180 384 l 1,15,-1
 227 551 l 2,16,17
 229 557 229 557 236 558 c 128,-1,18
 243 559 243 559 249 559 c 2,19,-1
 262 559 l 2,20,21
 265 559 265 559 273.5 557.5 c 128,-1,22
 282 556 282 556 291 554.5 c 128,-1,23
 300 553 300 553 308.5 552 c 128,-1,24
 317 551 317 551 321 551 c 1,25,-1
 234 271 l 1,26,-1
 330 -21 l 1,27,-1
 227 -21 l 1,28,-1
 213 -21 l 1,29,30
 211 -11 211 -11 206 14 c 128,-1,31
 201 39 201 39 195.5 67 c 128,-1,32
 190 95 190 95 185 119.5 c 128,-1,33
 180 144 180 144 178 153 c 0,34,35
 178 155 178 155 176.5 161 c 128,-1,36
 175 167 175 167 173 174 c 128,-1,37
 171 181 171 181 169 187 c 128,-1,38
 167 193 167 193 166 195 c 1,39,-1
 154 187 l 1,40,-1
 108 20 l 1,41,42
 105 14 105 14 98.5 13 c 128,-1,43
 92 12 92 12 85 12 c 2,44,-1
 73 12 l 2,45,46
 69 12 69 12 60.5 13 c 128,-1,47
 52 14 52 14 43 15.5 c 128,-1,48
 34 17 34 17 25.5 18.5 c 128,-1,49
 17 20 17 20 14 20 c 1,0,-1
EndSplineSet
Validated: 1
EndChar

StartChar: FL0059h
Encoding: 89 89 60
Width: 377
Flags: W
LayerCount: 2
Fore
SplineSet
14 574 m 1,0,-1
 124 222 l 1,1,-1
 124 2 l 1,2,-1
 204 -2 l 1,3,-1
 208 236 l 1,4,-1
 330 615 l 1,5,-1
 227 615 l 1,6,-1
 213 615 l 1,7,8
 211 606 211 606 206 581 c 128,-1,9
 201 556 201 556 195.5 528 c 128,-1,10
 190 500 190 500 185 475 c 128,-1,11
 180 450 180 450 178 441 c 0,12,13
 178 439 178 439 176.5 433 c 128,-1,14
 175 427 175 427 173 420 c 128,-1,15
 171 413 171 413 169 407 c 128,-1,16
 167 401 167 401 166 399 c 1,17,-1
 154 407 l 1,18,-1
 108 574 l 1,19,20
 105 581 105 581 98.5 582 c 128,-1,21
 92 583 92 583 85 583 c 2,22,-1
 73 583 l 2,23,24
 69 583 69 583 60.5 581.5 c 128,-1,25
 52 580 52 580 43 578.5 c 128,-1,26
 34 577 34 577 25.5 575.5 c 128,-1,27
 17 574 17 574 14 574 c 1,0,-1
EndSplineSet
Validated: 9
EndChar

StartChar: FL005Ah
Encoding: 90 90 61
Width: 301
Flags: W
LayerCount: 2
Fore
SplineSet
215 583 m 1,0,1
 224 505 224 505 220 489 c 2,2,-1
 129 82 l 1,3,-1
 234 82 l 1,4,-1
 234 0 l 1,5,-1
 32 0 l 1,6,-1
 32 133 l 1,7,-1
 149 486 l 1,8,-1
 8 486 l 1,9,-1
 8 573 l 1,10,-1
 20 585 l 2,11,12
 21 585 21 585 33.5 585.5 c 128,-1,13
 46 586 46 586 53 586 c 0,14,15
 97 586 97 586 134 583 c 128,-1,16
 171 580 171 580 215 583 c 1,0,1
EndSplineSet
Validated: 33
EndChar

StartChar: FL005Bh
Encoding: 91 91 62
Width: 262
Flags: W
LayerCount: 2
Fore
SplineSet
14 378 m 0,0,1
 14 418 14 418 14.5 451.5 c 128,-1,2
 15 485 15 485 16.5 513.5 c 128,-1,3
 18 542 18 542 19.5 567.5 c 128,-1,4
 21 593 21 593 23 617 c 1,5,6
 47 621 47 621 68 623.5 c 128,-1,7
 89 626 89 626 108.5 627.5 c 128,-1,8
 128 629 128 629 147.5 629.5 c 128,-1,9
 167 630 167 630 190 630 c 0,10,11
 195 630 195 630 194 530 c 1,12,-1
 94 530 l 1,13,-1
 113 34 l 1,14,-1
 198 34 l 1,15,-1
 198 -54 l 1,16,-1
 16 -48 l 1,17,-1
 16 85 l 2,18,19
 16 112 16 112 15.5 184.5 c 128,-1,20
 15 257 15 257 14 378 c 0,0,1
EndSplineSet
Validated: 33
EndChar

StartChar: FL005Ch
Encoding: 92 92 63
Width: 277
Flags: W
LayerCount: 2
Fore
SplineSet
120 556 m 1,0,-1
 246 -28 l 1,1,-1
 156 -28 l 1,2,-1
 24 556 l 1,3,-1
 120 556 l 1,0,-1
EndSplineSet
Validated: 1
EndChar

StartChar: FL005Dh
Encoding: 93 93 64
Width: 278
Flags: W
LayerCount: 2
Fore
SplineSet
197 378 m 0,0,1
 197 418 197 418 196.5 451.5 c 128,-1,2
 196 485 196 485 194.5 513.5 c 128,-1,3
 193 542 193 542 191.5 567.5 c 128,-1,4
 190 593 190 593 188 617 c 1,5,6
 164 621 164 621 143 623.5 c 128,-1,7
 122 626 122 626 102.5 627.5 c 128,-1,8
 83 629 83 629 63 629.5 c 128,-1,9
 43 630 43 630 21 630 c 0,10,11
 16 630 16 630 17 530 c 1,12,-1
 117 530 l 1,13,-1
 98 34 l 1,14,-1
 13 34 l 1,15,-1
 13 -54 l 1,16,-1
 195 -48 l 1,17,-1
 195 85 l 2,18,19
 195 112 195 112 195.5 184.5 c 128,-1,20
 196 257 196 257 197 378 c 0,0,1
EndSplineSet
Validated: 41
EndChar

StartChar: FL005Eh
Encoding: 94 94 65
Width: 266
Flags: W
LayerCount: 2
Fore
SplineSet
10 388 m 1,0,1
 11 387 11 387 16.5 386.5 c 128,-1,2
 22 386 22 386 28.5 385.5 c 128,-1,3
 35 385 35 385 40.5 384.5 c 128,-1,4
 46 384 46 384 48 384 c 2,5,-1
 56 384 l 2,6,7
 60 384 60 384 64.5 384.5 c 128,-1,8
 69 385 69 385 71 388 c 2,9,-1
 101 467 l 1,10,-1
 109 471 l 1,11,12
 111 469 111 469 114 461 c 128,-1,13
 117 453 117 453 117 451 c 0,14,15
 118 446 118 446 121 434.5 c 128,-1,16
 124 423 124 423 128 410 c 128,-1,17
 132 397 132 397 135 385.5 c 128,-1,18
 138 374 138 374 139 368 c 1,19,-1
 147 361 l 1,20,-1
 217 361 l 1,21,-1
 132 561 l 1,22,23
 126 572 126 572 104 572 c 0,24,25
 91 572 91 572 91 571 c 2,26,27
 91 571 91 571 86 561 c 2,28,-1
 10 388 l 1,0,1
EndSplineSet
Validated: 9
EndChar

StartChar: FL005Fh
Encoding: 95 95 66
Width: 269
Flags: W
LayerCount: 2
Fore
SplineSet
-12 -62 m 1,0,-1
 -16 -144 l 1,1,-1
 301 -144 l 1,2,-1
 301 -62 l 1,3,-1
 136 -62 l 1,4,-1
 -12 -62 l 1,0,-1
EndSplineSet
Validated: 9
EndChar

StartChar: FL0060h
Encoding: 96 96 67
Width: 187
Flags: W
LayerCount: 2
Fore
SplineSet
107 474 m 1,0,1
 67 419 67 419 15 474 c 1,2,-1
 9 597 l 1,3,-1
 112 597 l 1,4,5
 112 561 112 561 110.5 530.5 c 128,-1,6
 109 500 109 500 107 474 c 1,0,1
EndSplineSet
Validated: 33
EndChar

StartChar: a
Encoding: 97 97 68
Width: 390
Flags: W
LayerCount: 2
Fore
SplineSet
241 100 m 1,0,1
 242 95 242 95 244.5 83.5 c 128,-1,2
 247 72 247 72 249 59.5 c 128,-1,3
 251 47 251 47 253.5 35 c 128,-1,4
 256 23 256 23 257 17 c 0,5,6
 258 14 258 14 261.5 7 c 128,-1,7
 265 0 265 0 266 0 c 2,8,-1
 340 0 l 1,9,-1
 249 386 l 2,10,11
 249 388 249 388 248.5 395 c 128,-1,12
 248 402 248 402 248 405 c 0,13,14
 248 409 248 409 248.5 414.5 c 128,-1,15
 249 420 249 420 251.5 424.5 c 128,-1,16
 254 429 254 429 259.5 430.5 c 128,-1,17
 265 432 265 432 275 428 c 1,18,-1
 275 493 l 1,19,-1
 154 493 l 1,20,-1
 4 10 l 1,21,-1
 74 10 l 1,22,-1
 83 17 l 1,23,24
 84 23 84 23 87.5 34.5 c 128,-1,25
 91 46 91 46 95.5 59 c 128,-1,26
 100 72 100 72 103.5 83.5 c 128,-1,27
 107 95 107 95 108 100 c 0,28,29
 109 102 109 102 110.5 106.5 c 128,-1,30
 112 111 112 111 116 116 c 1,31,-1
 216 108 l 1,32,-1
 232 104 l 1,33,-1
 241 100 l 1,0,1
180 186 m 1,34,-1
 131 188 l 1,35,-1
 174 352 l 1,36,-1
 183 360 l 1,37,-1
 191 345 l 2,38,39
 191 344 191 344 194 329 c 128,-1,40
 197 314 197 314 201.5 293.5 c 128,-1,41
 206 273 206 273 210 252.5 c 128,-1,42
 214 232 214 232 216 220 c 0,43,44
 216 219 216 219 216.5 214.5 c 128,-1,45
 217 210 217 210 217 207 c 256,46,47
 217 204 217 204 216 196 c 128,-1,48
 215 188 215 188 208 188 c 2,49,-1
 180 186 l 1,34,-1
EndSplineSet
Validated: 9
EndChar

StartChar: b
Encoding: 98 98 69
Width: 322
Flags: W
LayerCount: 2
Fore
SplineSet
10 509 m 1,0,-1
 10 424 l 1,1,-1
 10 349 l 2,2,3
 10 340 10 340 10.5 323 c 128,-1,4
 11 306 11 306 11.5 284 c 128,-1,5
 12 262 12 262 13 236 c 128,-1,6
 14 210 14 210 15 184 c 0,7,8
 16 127 16 127 17.5 85.5 c 128,-1,9
 19 44 19 44 18 0 c 1,10,11
 33 0 33 0 54 -1 c 128,-1,12
 75 -2 75 -2 95 -2 c 0,13,14
 128 -2 128 -2 158 7 c 128,-1,15
 188 16 188 16 210.5 34 c 128,-1,16
 233 52 233 52 246.5 79.5 c 128,-1,17
 260 107 260 107 260 144 c 0,18,19
 260 171 260 171 251 194 c 128,-1,20
 242 217 242 217 228 237.5 c 128,-1,21
 214 258 214 258 196 275.5 c 128,-1,22
 178 293 178 293 160 309 c 1,23,-1
 160 314 l 1,24,-1
 160 319 l 1,25,-1
 166 328 l 2,26,27
 174 341 174 341 182.5 350 c 128,-1,28
 191 359 191 359 199 368.5 c 128,-1,29
 207 378 207 378 214.5 390 c 128,-1,30
 222 402 222 402 228 420 c 128,-1,31
 234 438 234 438 230.5 452.5 c 128,-1,32
 227 467 227 467 218 478.5 c 128,-1,33
 209 490 209 490 196.5 497.5 c 128,-1,34
 184 505 184 505 172 508 c 1,35,36
 158 513 158 513 119 511 c 0,37,38
 114 510 114 510 109 510 c 0,39,40
 105 510 105 510 101 510 c 2,41,-1
 87 510 l 1,42,-1
 72 510 l 1,43,-1
 55 510 l 1,44,-1
 45 510 l 1,45,-1
 35 510 l 2,46,47
 31 510 31 510 24 510 c 0,48,49
 18 510 18 510 10 509 c 1,0,-1
80 89 m 1,50,-1
 80 262 l 1,51,52
 101 262 101 262 120 253.5 c 128,-1,53
 139 245 139 245 153 230.5 c 128,-1,54
 167 216 167 216 175 197.5 c 128,-1,55
 183 179 183 179 183 159 c 0,56,57
 183 154 183 154 182 139 c 128,-1,58
 181 124 181 124 180 119 c 1,59,60
 169 100 169 100 147 94 c 128,-1,61
 125 88 125 88 105 88 c 0,62,63
 102 88 102 88 92.5 88.5 c 128,-1,64
 83 89 83 89 80 89 c 1,50,-1
78 452 m 1,65,66
 159 447 159 447 151 427 c 0,67,68
 141 399 141 399 93 339 c 1,69,-1
 77 339 l 1,70,-1
 78 452 l 1,65,66
EndSplineSet
Validated: 41
EndChar

StartChar: c
Encoding: 99 99 70
Width: 292
Flags: W
LayerCount: 2
Fore
SplineSet
9 265 m 0,0,1
 9 301 9 301 12.5 342.5 c 128,-1,2
 16 384 16 384 30 419 c 128,-1,3
 44 454 44 454 71 477.5 c 128,-1,4
 98 501 98 501 145 501 c 0,5,6
 193 501 193 501 212 476 c 0,7,8
 222 464 222 464 227.5 456.5 c 128,-1,9
 233 449 233 449 235 446 c 1,10,-1
 193 406 l 1,11,12
 185 408 185 408 180.5 411.5 c 128,-1,13
 176 415 176 415 171.5 419 c 128,-1,14
 167 423 167 423 159.5 426.5 c 128,-1,15
 152 430 152 430 139 431 c 1,16,17
 115 431 115 431 101 412 c 128,-1,18
 87 393 87 393 80 366.5 c 128,-1,19
 73 340 73 340 71 313 c 128,-1,20
 69 286 69 286 69 270 c 0,21,22
 69 229 69 229 77.5 196 c 128,-1,23
 86 163 86 163 105 140.5 c 128,-1,24
 124 118 124 118 155 106 c 128,-1,25
 186 94 186 94 230 94 c 1,26,-1
 230 10 l 1,27,-1
 220 0 l 2,28,29
 219 0 219 0 208 -0.5 c 128,-1,30
 197 -1 197 -1 191 -1 c 0,31,32
 137 -1 137 -1 102 24 c 128,-1,33
 67 49 67 49 46.5 87.5 c 128,-1,34
 26 126 26 126 17.5 173 c 128,-1,35
 9 220 9 220 9 265 c 0,0,1
EndSplineSet
Validated: 1
EndChar

StartChar: d
Encoding: 100 100 71
Width: 300
Flags: W
LayerCount: 2
Fore
SplineSet
241 235 m 0,0,1
 241 199 241 199 237.5 157.5 c 128,-1,2
 234 116 234 116 220 81 c 128,-1,3
 206 46 206 46 179 22.5 c 128,-1,4
 152 -1 152 -1 105 -1 c 1,5,-1
 25 -5 l 1,6,7
 24 20 24 20 23 35.5 c 128,-1,8
 22 51 22 51 21 57 c 2,9,-1
 12 504 l 1,10,-1
 64 504 l 1,11,12
 115 501 115 501 149 475.5 c 128,-1,13
 183 450 183 450 203.5 412 c 128,-1,14
 224 374 224 374 232.5 327.5 c 128,-1,15
 241 281 241 281 241 235 c 0,0,1
72 404 m 1,16,17
 70 73 70 73 74 72 c 1,18,19
 78 69 78 69 85 69 c 0,20,21
 89 69 89 69 95 69.5 c 128,-1,22
 101 70 101 70 109 71 c 1,23,24
 137 81 137 81 149 94 c 128,-1,25
 161 107 161 107 168 133 c 0,26,27
 175 160 175 160 177 187 c 128,-1,28
 179 214 179 214 179 230 c 1,29,30
 182 272 182 272 170.5 304.5 c 128,-1,31
 159 337 159 337 141.5 359.5 c 128,-1,32
 124 382 124 382 104.5 393.5 c 128,-1,33
 85 405 85 405 72 404 c 1,16,17
EndSplineSet
Validated: 33
EndChar

StartChar: e
Encoding: 101 101 72
Width: 266
Flags: W
LayerCount: 2
Fore
SplineSet
16 480 m 1,0,1
 9 459 9 459 8 382 c 1,2,3
 6 343 6 343 5.5 308 c 128,-1,4
 5 273 5 273 4 242 c 1,5,6
 4 181 4 181 6 119.5 c 128,-1,7
 8 58 8 58 8 0 c 1,8,-1
 180 0 l 1,9,-1
 190 70 l 1,10,-1
 80 70 l 1,11,-1
 80 205 l 1,12,-1
 170 205 l 1,13,-1
 170 290 l 1,14,-1
 80 290 l 1,15,-1
 80 405 l 1,16,-1
 200 405 l 1,17,-1
 200 491 l 1,18,19
 180 491 180 491 157.5 490 c 128,-1,20
 135 489 135 489 112 487 c 0,21,22
 90 486 90 486 69 484 c 128,-1,23
 48 482 48 482 16 480 c 1,0,1
EndSplineSet
Validated: 9
EndChar

StartChar: f
Encoding: 102 102 73
Width: 254
Flags: W
LayerCount: 2
Fore
SplineSet
13 10 m 1,0,1
 11 53 11 53 10 124 c 0,2,3
 9 141 9 141 9 158 c 0,4,5
 9 176 9 176 9 193 c 0,6,7
 9 228 9 228 8 260 c 128,-1,8
 7 292 7 292 7 324 c 2,9,-1
 7 387 l 1,10,-1
 7 501 l 1,11,-1
 194 502 l 1,12,-1
 188 430 l 1,13,-1
 90 431 l 1,14,-1
 90 286 l 1,15,-1
 170 286 l 1,16,-1
 170 206 l 1,17,-1
 80 206 l 1,18,-1
 80 86 l 1,19,-1
 79 9 l 1,20,-1
 13 10 l 1,0,1
EndSplineSet
Validated: 1
EndChar

StartChar: g
Encoding: 103 103 74
Width: 302
Flags: W
LayerCount: 2
Fore
SplineSet
9 235 m 0,0,1
 9 199 9 199 12.5 157.5 c 128,-1,2
 16 116 16 116 30 81 c 128,-1,3
 44 46 44 46 71 22.5 c 128,-1,4
 98 -1 98 -1 145 -1 c 0,5,6
 188 -1 188 -1 207.5 19.5 c 128,-1,7
 227 40 227 40 233.5 71.5 c 128,-1,8
 240 103 240 103 239 140 c 128,-1,9
 238 177 238 177 240 210 c 1,10,-1
 240 220 l 2,11,12
 240 227 240 227 240.5 235 c 128,-1,13
 241 243 241 243 241 250 c 2,14,-1
 241 260 l 1,15,-1
 150 260 l 2,16,17
 148 260 148 260 144 256 c 128,-1,18
 140 252 140 252 140 250 c 0,19,20
 140 249 140 249 139.5 237.5 c 128,-1,21
 139 226 139 226 139 220 c 0,22,23
 139 205 139 205 139.5 197.5 c 128,-1,24
 140 190 140 190 142.5 187 c 128,-1,25
 145 184 145 184 151.5 183.5 c 128,-1,26
 158 183 158 183 170 183 c 1,27,-1
 170 80 l 2,28,29
 170 75 170 75 165.5 72.5 c 128,-1,30
 161 70 161 70 155.5 69 c 128,-1,31
 150 68 150 68 145 68.5 c 128,-1,32
 140 69 140 69 139 69 c 0,33,34
 115 69 115 69 101 88 c 128,-1,35
 87 107 87 107 80 133.5 c 128,-1,36
 73 160 73 160 71 187 c 128,-1,37
 69 214 69 214 69 230 c 0,38,39
 69 271 69 271 77.5 304 c 128,-1,40
 86 337 86 337 105 359.5 c 128,-1,41
 124 382 124 382 155 394 c 128,-1,42
 186 406 186 406 230 406 c 1,43,-1
 230 490 l 1,44,-1
 220 500 l 2,45,46
 219 500 219 500 208 500.5 c 128,-1,47
 197 501 197 501 191 501 c 0,48,49
 137 501 137 501 102 476 c 128,-1,50
 67 451 67 451 46.5 412.5 c 128,-1,51
 26 374 26 374 17.5 327 c 128,-1,52
 9 280 9 280 9 235 c 0,0,1
EndSplineSet
Validated: 41
EndChar

StartChar: h
Encoding: 104 104 75
Width: 294
Flags: W
LayerCount: 2
Fore
SplineSet
231 490 m 1,0,1
 236 369 236 369 239.5 245 c 128,-1,2
 243 121 243 121 243 -4 c 1,3,-1
 171 -4 l 1,4,-1
 168 207 l 1,5,6
 132 228 132 228 92 216 c 1,7,-1
 91 -4 l 1,8,-1
 24 -4 l 1,9,10
 22 53 22 53 19.5 117 c 128,-1,11
 17 181 17 181 15 247.5 c 128,-1,12
 13 314 13 314 11 380 c 128,-1,13
 9 446 9 446 8 506 c 1,14,-1
 96 506 l 1,15,-1
 96 308 l 1,16,-1
 164 300 l 1,17,18
 163 339 163 339 162.5 379.5 c 128,-1,19
 162 420 162 420 162 462 c 1,20,21
 163 468 163 468 168 480 c 1,22,23
 183 490 183 490 194 491 c 128,-1,24
 205 492 205 492 211 492 c 0,25,26
 213 492 213 492 221 491 c 128,-1,27
 229 490 229 490 231 490 c 1,0,1
EndSplineSet
Validated: 33
EndChar

StartChar: i
Encoding: 105 105 76
Width: 160
Flags: W
LayerCount: 2
Fore
SplineSet
31 471 m 1,0,1
 27 464 27 464 27 299 c 1,2,3
 28 257 28 257 28 220 c 256,4,5
 28 183 28 183 28 149 c 2,6,-1
 28 24 l 1,7,8
 59 19 59 19 100 24 c 1,9,-1
 100 434 l 2,10,11
 100 445 100 445 99.5 452.5 c 128,-1,12
 99 460 99 460 98 465 c 0,13,14
 97 473 97 473 60 475 c 0,15,16
 58 475 58 475 50 474.5 c 128,-1,17
 42 474 42 474 31 471 c 1,0,1
EndSplineSet
Validated: 41
EndChar

StartChar: j
Encoding: 106 106 77
Width: 304
Flags: W
LayerCount: 2
Fore
SplineSet
244 492 m 1,0,-1
 176 480 l 1,1,2
 180 410 180 410 182 368.5 c 128,-1,3
 184 327 184 327 185 313 c 128,-1,4
 186 299 186 299 186.5 288.5 c 128,-1,5
 187 278 187 278 187 270 c 0,6,7
 187 228 187 228 178.5 195.5 c 128,-1,8
 170 163 170 163 151 130 c 0,9,10
 132 98 132 98 100 90 c 1,11,12
 81 94 81 94 77 100 c 1,13,14
 75 107 75 107 63 125 c 1,15,16
 53 143 53 143 28 130 c 0,17,18
 5 117 5 117 18 81 c 1,19,20
 32 46 32 46 59 22 c 1,21,22
 88 -1 88 -1 133 -1 c 1,23,24
 160 10 160 10 174.5 29.5 c 128,-1,25
 189 49 189 49 209 87 c 0,26,27
 230 126 230 126 238.5 173 c 128,-1,28
 247 220 247 220 247 265 c 0,29,30
 247 283 247 283 246.5 304.5 c 128,-1,31
 246 326 246 326 245.5 353 c 128,-1,32
 245 380 245 380 244.5 414 c 128,-1,33
 244 448 244 448 244 492 c 1,0,-1
EndSplineSet
Validated: 41
EndChar

StartChar: k
Encoding: 107 107 78
Width: 322
Flags: W
LayerCount: 2
Fore
SplineSet
10 467 m 1,0,1
 12 475 12 475 20.5 476.5 c 128,-1,2
 29 478 29 478 37 478 c 2,3,-1
 45 478 l 1,4,-1
 55 478 l 2,5,6
 64 478 64 478 74.5 476 c 128,-1,7
 85 474 85 474 85 467 c 2,8,-1
 85 327 l 1,9,-1
 100 327 l 1,10,-1
 170 458 l 2,11,12
 174 465 174 465 178 466.5 c 128,-1,13
 182 468 182 468 190 468 c 0,14,15
 206 468 206 468 224 460 c 128,-1,16
 242 452 242 452 250 439 c 1,17,18
 245 433 245 433 233.5 416 c 128,-1,19
 222 399 222 399 209 379.5 c 128,-1,20
 196 360 196 360 185 342 c 128,-1,21
 174 324 174 324 170 317 c 2,22,-1
 160 298 l 1,23,-1
 160 294 l 1,24,-1
 160 290 l 1,25,26
 177 274 177 274 193 252 c 1,27,28
 209 232 209 232 240 160 c 1,29,-1
 256 100 l 1,30,-1
 268 8 l 1,31,32
 248 4 248 4 232 2 c 128,-1,33
 216 0 216 0 204 0 c 1,34,35
 200 59 200 59 184 100 c 1,36,-1
 172 140 l 1,37,38
 137 215 137 215 119 231 c 0,39,40
 102 246 102 246 80 245 c 1,41,-1
 80 84 l 1,42,43
 81 73 81 73 81.5 64 c 128,-1,44
 82 55 82 55 82 50 c 256,45,46
 82 45 82 45 80.5 31.5 c 128,-1,47
 79 18 79 18 75 -2 c 1,48,49
 33 -1 33 -1 18 1 c 1,50,51
 19 12 19 12 19 21 c 0,52,53
 19 31 19 31 19 41 c 0,54,55
 19 71 19 71 18 101.5 c 128,-1,56
 17 132 17 132 15 172 c 0,57,58
 13 223 13 223 11.5 266 c 128,-1,59
 10 309 10 309 10 327 c 2,60,-1
 10 397 l 1,61,-1
 10 467 l 1,0,1
EndSplineSet
Validated: 33
EndChar

StartChar: l
Encoding: 108 108 79
Width: 260
Flags: W
LayerCount: 2
Fore
SplineSet
80 498 m 1,0,1
 46 498 46 498 32.5 494.5 c 128,-1,2
 19 491 19 491 17 485 c 0,3,4
 16 484 16 484 16 414 c 1,5,-1
 10 150 l 2,6,7
 10 144 10 144 9.5 130 c 128,-1,8
 9 116 9 116 9 98 c 0,9,10
 9 81 9 81 8.5 63 c 128,-1,11
 8 45 8 45 8 30 c 2,12,-1
 8 0 l 1,13,-1
 180 0 l 1,14,-1
 190 70 l 1,15,-1
 80 70 l 1,16,-1
 80 498 l 1,0,1
EndSplineSet
Validated: 9
EndChar

StartChar: m
Encoding: 109 109 80
Width: 434
Flags: W
LayerCount: 2
Fore
SplineSet
204 60 m 1,0,1
 217 98 217 98 226 124 c 128,-1,2
 235 150 235 150 240 164 c 0,3,4
 251 191 251 191 261.5 218 c 128,-1,5
 272 245 272 245 276 254 c 0,6,7
 278 257 278 257 283.5 264.5 c 128,-1,8
 289 272 289 272 291 274 c 1,9,-1
 291 4 l 1,10,-1
 379 4 l 1,11,12
 379 65 379 65 377 130.5 c 128,-1,13
 375 196 375 196 371.5 262 c 128,-1,14
 368 328 368 328 364 392 c 128,-1,15
 360 456 360 456 356 514 c 1,16,-1
 296 514 l 1,17,-1
 204 276 l 1,18,-1
 192 256 l 1,19,-1
 91 498 l 1,20,-1
 31 498 l 1,21,22
 27 440 27 440 23 376 c 128,-1,23
 19 312 19 312 15.5 246 c 128,-1,24
 12 180 12 180 10 114.5 c 128,-1,25
 8 49 8 49 8 -12 c 1,26,-1
 96 -12 l 1,27,-1
 96 258 l 1,28,29
 98 256 98 256 103.5 248.5 c 128,-1,30
 109 241 109 241 111 238 c 0,31,32
 115 228 115 228 125 202.5 c 128,-1,33
 135 177 135 177 146 148 c 0,34,35
 158 119 158 119 163 99.5 c 128,-1,36
 168 80 168 80 176 60 c 1,37,38
 192 48 192 48 204 60 c 1,0,1
EndSplineSet
Validated: 9
EndChar

StartChar: n
Encoding: 110 110 81
Width: 302
Flags: W
LayerCount: 2
Fore
SplineSet
20 450 m 1,0,1
 15 338 15 338 11.5 225 c 128,-1,2
 8 112 8 112 8 0 c 1,3,-1
 80 0 l 1,4,-1
 80 230 l 1,5,-1
 160 0 l 1,6,-1
 220 0 l 1,7,8
 224 58 224 58 228 122 c 128,-1,9
 232 186 232 186 235.5 252 c 128,-1,10
 239 318 239 318 241 383.5 c 128,-1,11
 243 449 243 449 243 510 c 1,12,-1
 155 510 l 1,13,-1
 155 240 l 1,14,15
 153 242 153 242 147.5 249.5 c 128,-1,16
 142 257 142 257 140 260 c 0,17,18
 136 270 136 270 126 295.5 c 128,-1,19
 116 321 116 321 105 350 c 128,-1,20
 94 379 94 379 84 404.5 c 128,-1,21
 74 430 74 430 70 440 c 1,22,23
 68 450 68 450 57 450.5 c 128,-1,24
 46 451 46 451 40 451 c 0,25,26
 38 451 38 451 30 450.5 c 128,-1,27
 22 450 22 450 20 450 c 1,0,1
EndSplineSet
Validated: 9
EndChar

StartChar: o
Encoding: 111 111 82
Width: 316
Flags: W
LayerCount: 2
Fore
SplineSet
13 235 m 0,0,1
 13 199 13 199 16.5 157.5 c 128,-1,2
 20 116 20 116 34 81 c 128,-1,3
 48 46 48 46 75 22.5 c 128,-1,4
 102 -1 102 -1 149 -1 c 1,5,6
 176 10 176 10 190.5 29.5 c 128,-1,7
 205 49 205 49 225 87 c 0,8,9
 246 126 246 126 254.5 173 c 128,-1,10
 263 220 263 220 263 265 c 1,11,12
 264 301 264 301 259.5 342.5 c 128,-1,13
 255 384 255 384 241 419.5 c 128,-1,14
 227 455 227 455 201.5 477.5 c 128,-1,15
 176 500 176 500 136 498 c 1,16,17
 100 486 100 486 85 468 c 0,18,19
 71 451 71 451 50 412 c 0,20,21
 30 374 30 374 21.5 327 c 128,-1,22
 13 280 13 280 13 235 c 0,0,1
116 90 m 1,23,24
 97 94 97 94 93 100 c 1,25,26
 91 107 91 107 84 133 c 0,27,28
 77 160 77 160 75 187 c 128,-1,29
 73 214 73 214 73 230 c 0,30,31
 73 272 73 272 81.5 304.5 c 128,-1,32
 90 337 90 337 105 359 c 0,33,34
 120 382 120 382 130 390 c 128,-1,35
 140 398 140 398 154 400 c 128,-1,36
 168 402 168 402 176.5 397.5 c 128,-1,37
 185 393 185 393 192 366 c 0,38,39
 199 340 199 340 201 313 c 128,-1,40
 203 286 203 286 203 270 c 0,41,42
 203 228 203 228 194.5 195.5 c 128,-1,43
 186 163 186 163 167 130 c 0,44,45
 148 98 148 98 116 90 c 1,23,24
EndSplineSet
Validated: 41
EndChar

StartChar: p
Encoding: 112 112 83
Width: 322
Flags: W
LayerCount: 2
Fore
SplineSet
10 10 m 1,0,1
 11 4 11 4 15.5 2 c 128,-1,2
 20 0 20 0 26 -1 c 128,-1,3
 32 -2 32 -2 37.5 -1.5 c 128,-1,4
 43 -1 43 -1 45 -1 c 2,5,-1
 55 -1 l 2,6,7
 64 -1 64 -1 74.5 1 c 128,-1,8
 85 3 85 3 85 10 c 2,9,-1
 85 153 l 1,10,-1
 101 164 l 1,11,12
 125 176 125 176 144 186.5 c 128,-1,13
 163 197 163 197 178 208 c 128,-1,14
 193 219 193 219 205 231.5 c 128,-1,15
 217 244 217 244 228 260 c 1,16,17
 243 279 243 279 251.5 301 c 128,-1,18
 260 323 260 323 260 348 c 0,19,20
 260 383 260 383 246.5 409.5 c 128,-1,21
 233 436 233 436 210.5 453.5 c 128,-1,22
 188 471 188 471 158 479.5 c 128,-1,23
 128 488 128 488 95 488 c 0,24,25
 75 488 75 488 54 487 c 128,-1,26
 33 486 33 486 20 467 c 1,27,28
 19 456 19 456 18 431.5 c 128,-1,29
 17 407 17 407 16 376 c 128,-1,30
 15 345 15 345 13.5 310.5 c 128,-1,31
 12 276 12 276 11.5 245 c 128,-1,32
 11 214 11 214 10.5 189 c 128,-1,33
 10 164 10 164 10 153 c 2,34,-1
 10 81 l 1,35,-1
 10 10 l 1,0,1
80 401 m 1,36,37
 83 401 83 401 92.5 401.5 c 128,-1,38
 102 402 102 402 105 402 c 0,39,40
 125 402 125 402 147 396.5 c 128,-1,41
 169 391 169 391 180 373 c 1,42,43
 181 369 181 369 182 355.5 c 128,-1,44
 183 342 183 342 183 337 c 0,45,46
 183 319 183 319 175 302 c 128,-1,47
 167 285 167 285 153 272 c 128,-1,48
 139 259 139 259 120 251 c 128,-1,49
 101 243 101 243 80 243 c 1,50,-1
 80 401 l 1,36,37
EndSplineSet
Validated: 9
EndChar

StartChar: q
Encoding: 113 113 84
Width: 320
Flags: W
LayerCount: 2
Fore
SplineSet
13 265 m 0,0,1
 13 220 13 220 21.5 173 c 128,-1,2
 30 126 30 126 50 87 c 1,3,4
 61 68 61 68 69.5 54.5 c 128,-1,5
 78 41 78 41 85 31 c 1,6,7
 100 14 100 14 120 5 c 128,-1,8
 140 -4 140 -4 196 20 c 1,9,10
 304 -93 304 -93 240 88 c 1,11,12
 263 206 263 206 263 235 c 0,13,14
 263 280 263 280 257 337 c 0,15,16
 253 382 253 382 243 410.5 c 128,-1,17
 233 439 233 439 218.5 456.5 c 128,-1,18
 204 474 204 474 186 483.5 c 128,-1,19
 168 493 168 493 149 501 c 1,20,21
 102 501 102 501 75 477.5 c 128,-1,22
 48 454 48 454 34 419 c 128,-1,23
 20 384 20 384 16.5 342.5 c 128,-1,24
 13 301 13 301 13 265 c 0,0,1
116 410 m 1,25,26
 147 403 147 403 167 369 c 0,27,28
 186 337 186 337 194.5 304.5 c 128,-1,29
 203 272 203 272 203 230 c 2,30,-1
 203 200 l 2,31,32
 203 189 203 189 203 175 c 256,33,34
 203 161 203 161 202 144 c 1,35,36
 152 223 152 223 132 212 c 128,-1,37
 112 201 112 201 156 98 c 1,38,39
 141 103 141 103 130 110 c 0,40,41
 122 116 122 116 111.5 130 c 128,-1,42
 101 144 101 144 92 165 c 128,-1,43
 83 186 83 186 77 212.5 c 128,-1,44
 71 239 71 239 73 270 c 1,45,46
 73 286 73 286 75 313 c 128,-1,47
 77 340 77 340 84 366 c 0,48,49
 91 393 91 393 93 399 c 0,50,51
 96 405 96 405 116 410 c 1,25,26
EndSplineSet
Validated: 41
EndChar

StartChar: r
Encoding: 114 114 85
Width: 326
Flags: W
LayerCount: 2
Fore
SplineSet
10 10 m 1,0,-1
 10 85 l 1,1,-1
 10 160 l 2,2,3
 10 172 10 172 10.5 198 c 128,-1,4
 11 224 11 224 11.5 256.5 c 128,-1,5
 12 289 12 289 13.5 325 c 128,-1,6
 15 361 15 361 16 393.5 c 128,-1,7
 17 426 17 426 18 452 c 128,-1,8
 19 478 19 478 20 490 c 1,9,10
 33 509 33 509 54 510 c 128,-1,11
 75 511 75 511 95 511 c 0,12,13
 128 511 128 511 158 502 c 128,-1,14
 188 493 188 493 210.5 475 c 128,-1,15
 233 457 233 457 246.5 429.5 c 128,-1,16
 260 402 260 402 260 365 c 0,17,18
 260 338 260 338 251.5 315 c 128,-1,19
 243 292 243 292 228.5 271.5 c 128,-1,20
 214 251 214 251 196 233.5 c 128,-1,21
 178 216 178 216 160 200 c 1,22,-1
 160 195 l 1,23,-1
 160 190 l 1,24,-1
 170 170 l 2,25,26
 174 162 174 162 185 143.5 c 128,-1,27
 196 125 196 125 209 104 c 128,-1,28
 222 83 222 83 233.5 65 c 128,-1,29
 245 47 245 47 250 40 c 1,30,31
 242 26 242 26 224 17.5 c 128,-1,32
 206 9 206 9 190 9 c 0,33,34
 182 9 182 9 178 10.5 c 128,-1,35
 174 12 174 12 170 20 c 2,36,-1
 100 160 l 1,37,-1
 85 160 l 1,38,-1
 85 10 l 2,39,40
 85 3 85 3 74.5 1 c 128,-1,41
 64 -1 64 -1 55 -1 c 2,42,-1
 45 -1 l 2,43,44
 43 -1 43 -1 37.5 -1.5 c 128,-1,45
 32 -2 32 -2 26 -1 c 128,-1,46
 20 0 20 0 15.5 2 c 128,-1,47
 11 4 11 4 10 10 c 1,0,-1
80 420 m 1,48,-1
 80 247 l 1,49,50
 101 247 101 247 120 255.5 c 128,-1,51
 139 264 139 264 153 278 c 128,-1,52
 167 292 167 292 175 311 c 128,-1,53
 183 330 183 330 183 350 c 0,54,55
 183 355 183 355 182 370 c 128,-1,56
 181 385 181 385 180 390 c 1,57,58
 169 409 169 409 147 415 c 128,-1,59
 125 421 125 421 105 421 c 0,60,61
 102 421 102 421 92.5 420.5 c 128,-1,62
 83 420 83 420 80 420 c 1,48,-1
EndSplineSet
Validated: 1
EndChar

StartChar: s
Encoding: 115 115 86
Width: 302
Flags: W
LayerCount: 2
Fore
SplineSet
10 82 m 1,0,1
 8 31 8 31 30 11 c 128,-1,2
 52 -9 52 -9 100 -9 c 0,3,4
 129 -9 129 -9 155 -1 c 128,-1,5
 181 7 181 7 200 22.5 c 128,-1,6
 219 38 219 38 230 61.5 c 128,-1,7
 241 85 241 85 241 117 c 0,8,9
 241 151 241 151 227.5 179.5 c 128,-1,10
 214 208 214 208 193.5 233 c 128,-1,11
 173 258 173 258 148 280 c 128,-1,12
 123 302 123 302 100 322 c 0,13,14
 91 331 91 331 90 341 c 128,-1,15
 89 351 89 351 89 362 c 0,16,17
 89 384 89 384 99.5 397 c 128,-1,18
 110 410 110 410 126.5 417.5 c 128,-1,19
 143 425 143 425 162.5 428 c 128,-1,20
 182 431 182 431 200 432 c 1,21,22
 201 435 201 435 202.5 442 c 128,-1,23
 204 449 204 449 205.5 457 c 128,-1,24
 207 465 207 465 208.5 472 c 128,-1,25
 210 479 210 479 210 482 c 0,26,27
 210 483 210 483 210.5 487.5 c 128,-1,28
 211 492 211 492 211 494 c 0,29,30
 211 503 211 503 204.5 507 c 128,-1,31
 198 511 198 511 189 512.5 c 128,-1,32
 180 514 180 514 170.5 513.5 c 128,-1,33
 161 513 161 513 155 513 c 0,34,35
 126 513 126 513 99.5 503.5 c 128,-1,36
 73 494 73 494 53 477 c 128,-1,37
 33 460 33 460 21 435 c 128,-1,38
 9 410 9 410 9 379 c 0,39,40
 9 334 9 334 31 303.5 c 128,-1,41
 53 273 53 273 80 247.5 c 128,-1,42
 107 222 107 222 129 195.5 c 128,-1,43
 151 169 151 169 151 132 c 0,44,45
 151 71 151 71 91 71 c 0,46,47
 72 71 72 71 55 76.5 c 128,-1,48
 38 82 38 82 20 82 c 2,49,-1
 10 82 l 1,0,1
EndSplineSet
Validated: 41
EndChar

StartChar: t
Encoding: 116 116 87
Width: 286
Flags: W
LayerCount: 2
Fore
SplineSet
218 502 m 1,0,1
 224 434 224 434 224 426 c 256,2,3
 224 418 224 418 152 418 c 1,4,-1
 152 340 l 1,5,-1
 152 31 l 2,6,7
 152 18 152 18 150 8 c 0,8,9
 149 2 149 2 112 0 c 0,10,11
 110 0 110 0 102 0.5 c 128,-1,12
 94 1 94 1 83 4 c 1,13,14
 79 8 79 8 79 132 c 1,15,16
 80 163 80 163 80 196 c 256,17,18
 80 229 80 229 80 264 c 2,19,-1
 80 414 l 1,20,-1
 7 415 l 1,21,-1
 7 490 l 1,22,-1
 18 500 l 2,23,24
 19 500 19 500 32 500.5 c 128,-1,25
 45 501 45 501 51 501 c 0,26,27
 96 501 96 501 134 499.5 c 128,-1,28
 172 498 172 498 218 502 c 1,0,1
EndSplineSet
Validated: 33
EndChar

StartChar: u
Encoding: 117 117 88
Width: 364
Flags: W
LayerCount: 2
Fore
SplineSet
23 492 m 1,0,-1
 100 488 l 1,1,2
 100 431 100 431 98 370 c 128,-1,3
 96 309 96 309 96 264 c 0,4,5
 96 228 96 228 100 194 c 128,-1,6
 104 160 104 160 119 129 c 0,7,8
 135 98 135 98 156 92 c 1,9,10
 172 96 172 96 178 100 c 128,-1,11
 184 104 184 104 194 132 c 128,-1,12
 204 160 204 160 212 492 c 1,13,-1
 296 488 l 1,14,-1
 284 184 l 1,15,16
 272 96 272 96 256 64 c 0,17,18
 240 30 240 30 210 14 c 0,19,20
 181 -1 181 -1 134 -1 c 1,21,22
 107 10 107 10 92.5 29.5 c 128,-1,23
 78 49 78 49 57 87 c 1,24,25
 37 126 37 126 28.5 173 c 128,-1,26
 20 220 20 220 20 265 c 0,27,28
 20 283 20 283 20.5 304.5 c 128,-1,29
 21 326 21 326 21.5 353 c 128,-1,30
 22 380 22 380 22.5 414 c 128,-1,31
 23 448 23 448 23 492 c 1,0,-1
EndSplineSet
Validated: 1
EndChar

StartChar: v
Encoding: 118 118 89
Width: 330
Flags: W
LayerCount: 2
Fore
SplineSet
10 454 m 1,0,-1
 110 14 l 2,1,2
 113 3 113 3 114 -3 c 128,-1,3
 115 -9 115 -9 116.5 -12 c 128,-1,4
 118 -15 118 -15 121.5 -16 c 128,-1,5
 125 -17 125 -17 133 -17 c 0,6,7
 163 -17 163 -17 170 14 c 2,8,-1
 282 524 l 1,9,-1
 190 524 l 1,10,-1
 180 504 l 1,11,12
 178 492 178 492 174 462 c 128,-1,13
 170 432 170 432 165 398.5 c 128,-1,14
 160 365 160 365 156 335.5 c 128,-1,15
 152 306 152 306 150 294 c 0,16,17
 150 291 150 291 148.5 284 c 128,-1,18
 147 277 147 277 145.5 269 c 128,-1,19
 144 261 144 261 142.5 254 c 128,-1,20
 141 247 141 247 140 244 c 1,21,-1
 130 254 l 1,22,-1
 90 454 l 2,23,24
 88 462 88 462 82 463 c 128,-1,25
 76 464 76 464 71 464 c 2,26,-1
 60 464 l 2,27,28
 57 464 57 464 50 462.5 c 128,-1,29
 43 461 43 461 35 459.5 c 128,-1,30
 27 458 27 458 20 456.5 c 128,-1,31
 13 455 13 455 10 454 c 1,0,-1
EndSplineSet
Validated: 9
EndChar

StartChar: w
Encoding: 119 119 90
Width: 446
Flags: W
LayerCount: 2
Fore
SplineSet
204 438 m 1,0,1
 217 400 217 400 226 374 c 128,-1,2
 235 348 235 348 240 334 c 0,3,4
 246 320 246 320 252 306 c 128,-1,5
 258 292 258 292 262.5 279.5 c 128,-1,6
 267 267 267 267 270.5 257.5 c 128,-1,7
 274 248 274 248 276 244 c 0,8,9
 278 241 278 241 283.5 233.5 c 128,-1,10
 289 226 289 226 291 224 c 1,11,-1
 291 494 l 1,12,-1
 379 494 l 1,13,14
 379 433 379 433 377 367.5 c 128,-1,15
 375 302 375 302 371.5 236 c 128,-1,16
 368 170 368 170 364 106 c 128,-1,17
 360 42 360 42 356 -16 c 1,18,-1
 296 -16 l 1,19,-1
 204 222 l 1,20,-1
 192 242 l 1,21,-1
 91 0 l 1,22,-1
 31 0 l 1,23,24
 27 58 27 58 23 122 c 128,-1,25
 19 186 19 186 15.5 252 c 128,-1,26
 12 318 12 318 10 383.5 c 128,-1,27
 8 449 8 449 8 510 c 1,28,-1
 96 510 l 1,29,-1
 96 240 l 1,30,31
 98 242 98 242 103.5 249.5 c 128,-1,32
 109 257 109 257 111 260 c 0,33,34
 115 270 115 270 125 295.5 c 128,-1,35
 135 321 135 321 146 350 c 0,36,37
 158 379 158 379 163 398.5 c 128,-1,38
 168 418 168 418 176 438 c 1,39,40
 192 450 192 450 204 438 c 1,0,1
EndSplineSet
Validated: 1
EndChar

StartChar: x
Encoding: 120 120 91
Width: 338
Flags: W
LayerCount: 2
Fore
SplineSet
12 17 m 1,0,-1
 84 252 l 1,1,-1
 4 506 l 1,2,-1
 92 506 l 1,3,-1
 104 506 l 1,4,5
 106 498 106 498 110 476.5 c 128,-1,6
 114 455 114 455 119 431 c 128,-1,7
 124 407 124 407 128 386 c 128,-1,8
 132 365 132 365 134 357 c 0,9,10
 134 356 134 356 135.5 350.5 c 128,-1,11
 137 345 137 345 138.5 338.5 c 128,-1,12
 140 332 140 332 141.5 327 c 128,-1,13
 143 322 143 322 144 321 c 1,14,-1
 154 328 l 1,15,-1
 194 471 l 2,16,17
 196 476 196 476 202 477 c 128,-1,18
 208 478 208 478 213 478 c 2,19,-1
 224 478 l 2,20,21
 227 478 227 478 234 477 c 128,-1,22
 241 476 241 476 249 474.5 c 128,-1,23
 257 473 257 473 264 472 c 128,-1,24
 271 471 271 471 274 471 c 1,25,-1
 200 232 l 1,26,-1
 282 -18 l 1,27,-1
 194 -18 l 1,28,-1
 182 -18 l 1,29,30
 180 -10 180 -10 176 11.5 c 128,-1,31
 172 33 172 33 167 57 c 128,-1,32
 162 81 162 81 158 102 c 128,-1,33
 154 123 154 123 152 131 c 0,34,35
 152 132 152 132 150.5 137.5 c 128,-1,36
 149 143 149 143 147.5 149 c 128,-1,37
 146 155 146 155 144.5 160 c 128,-1,38
 143 165 143 165 142 167 c 1,39,-1
 132 160 l 1,40,-1
 92 17 l 2,41,42
 90 12 90 12 84 11 c 128,-1,43
 78 10 78 10 73 10 c 2,44,-1
 62 10 l 2,45,46
 59 10 59 10 52 11 c 128,-1,47
 45 12 45 12 37 13.5 c 128,-1,48
 29 15 29 15 22 16 c 128,-1,49
 15 17 15 17 12 17 c 1,0,-1
EndSplineSet
Validated: 1
EndChar

StartChar: y
Encoding: 121 121 92
Width: 326
Flags: W
LayerCount: 2
Fore
SplineSet
12 491 m 1,0,-1
 106 190 l 1,1,-1
 106 2 l 1,2,-1
 174 -2 l 1,3,-1
 178 202 l 1,4,-1
 282 526 l 1,5,-1
 194 526 l 1,6,-1
 182 526 l 1,7,8
 180 518 180 518 176 496.5 c 128,-1,9
 172 475 172 475 167 451 c 128,-1,10
 162 427 162 427 158 406 c 128,-1,11
 154 385 154 385 152 377 c 0,12,13
 152 376 152 376 150.5 370.5 c 128,-1,14
 149 365 149 365 147.5 358.5 c 128,-1,15
 146 352 146 352 144.5 347 c 128,-1,16
 143 342 143 342 142 341 c 1,17,-1
 132 348 l 1,18,-1
 92 491 l 2,19,20
 90 496 90 496 84 497 c 128,-1,21
 78 498 78 498 73 498 c 2,22,-1
 62 498 l 2,23,24
 59 498 59 498 52 497 c 128,-1,25
 45 496 45 496 37 494.5 c 128,-1,26
 29 493 29 493 22 492 c 128,-1,27
 15 491 15 491 12 491 c 1,0,-1
EndSplineSet
Validated: 9
EndChar

StartChar: z
Encoding: 122 122 93
Width: 270
Flags: W
LayerCount: 2
Fore
SplineSet
184 498 m 1,0,1
 188 465 188 465 189 445 c 128,-1,2
 190 425 190 425 188 418 c 2,3,-1
 110 70 l 1,4,-1
 200 70 l 1,5,-1
 200 0 l 1,6,-1
 27 0 l 1,7,-1
 27 114 l 1,8,-1
 127 415 l 1,9,-1
 7 415 l 1,10,-1
 7 490 l 1,11,-1
 17 500 l 2,12,13
 18 500 18 500 29 500.5 c 128,-1,14
 40 501 40 501 45 501 c 0,15,16
 83 501 83 501 114.5 498.5 c 128,-1,17
 146 496 146 496 184 498 c 1,0,1
EndSplineSet
Validated: 33
EndChar

StartChar: FL007Bh
Encoding: 123 123 94
Width: 240
Flags: W
LayerCount: 2
Fore
SplineSet
11 310 m 0,0,1
 11 257 11 257 26 172 c 0,2,3
 34 129 34 129 45 94 c 128,-1,4
 56 59 56 59 70 32 c 0,5,6
 98 -22 98 -22 118 -34 c 0,7,8
 137 -46 137 -46 154 -44 c 1,9,10
 160 -3 160 -3 146 48 c 1,11,12
 98 127 98 127 89 198 c 0,13,14
 85 233 85 233 83 262.5 c 128,-1,15
 81 292 81 292 81 316 c 0,16,17
 81 335 81 335 83.5 366.5 c 128,-1,18
 86 398 86 398 94 428.5 c 128,-1,19
 102 459 102 459 118.5 481.5 c 128,-1,20
 135 504 135 504 163 504 c 1,21,22
 176 552 176 552 170 586 c 1,23,24
 114 586 114 586 82.5 558.5 c 128,-1,25
 51 531 51 531 35 490 c 128,-1,26
 19 449 19 449 15 400.5 c 128,-1,27
 11 352 11 352 11 310 c 0,0,1
EndSplineSet
Validated: 41
EndChar

StartChar: FL007Ch
Encoding: 124 124 95
Width: 205
Flags: W
LayerCount: 2
Fore
SplineSet
31 80 m 2,0,1
 31 151 31 151 31.5 215 c 128,-1,2
 32 279 32 279 33.5 342.5 c 128,-1,3
 35 406 35 406 37.5 472 c 128,-1,4
 40 538 40 538 43 614 c 1,5,-1
 141 614 l 1,6,7
 141 532 141 532 138.5 444.5 c 128,-1,8
 136 357 136 357 132 269 c 128,-1,9
 128 181 128 181 123 95.5 c 128,-1,10
 118 10 118 10 114 -68 c 1,11,-1
 43 -68 l 1,12,-1
 32 -28 l 1,13,-1
 32 -13 l 2,14,15
 32 -1 32 -1 31.5 17 c 128,-1,16
 31 35 31 35 31 51 c 2,17,-1
 31 80 l 2,0,1
EndSplineSet
Validated: 1
EndChar

StartChar: FL007Dh
Encoding: 125 125 96
Width: 240
Flags: W
LayerCount: 2
Fore
SplineSet
176 310 m 0,0,1
 176 252 176 252 160 172 c 1,2,3
 145 84 145 84 117 32 c 0,4,5
 88 -22 88 -22 69 -34 c 128,-1,6
 50 -46 50 -46 33 -44 c 1,7,8
 27 -3 27 -3 41 48 c 1,9,10
 89 127 89 127 97 198 c 1,11,12
 106 268 106 268 106 316 c 0,13,14
 106 335 106 335 103.5 366.5 c 128,-1,15
 101 398 101 398 93 428.5 c 128,-1,16
 85 459 85 459 68.5 481.5 c 128,-1,17
 52 504 52 504 24 504 c 1,18,19
 11 552 11 552 17 586 c 1,20,21
 72 586 72 586 104 558.5 c 128,-1,22
 136 531 136 531 152 490 c 128,-1,23
 168 449 168 449 172 400.5 c 128,-1,24
 176 352 176 352 176 310 c 0,0,1
EndSplineSet
Validated: 33
EndChar

StartChar: FL007Eh
Encoding: 126 126 97
Width: 319
Flags: W
LayerCount: 2
Fore
SplineSet
17 310 m 1,0,-1
 17 230 l 1,1,-1
 92 247 l 1,2,-1
 142 196 l 1,3,-1
 202 193 l 1,4,-1
 259 214 l 1,5,-1
 262 303 l 1,6,-1
 195 267 l 1,7,-1
 142 285 l 1,8,-1
 92 332 l 1,9,-1
 17 310 l 1,0,-1
EndSplineSet
Validated: 9
EndChar

StartChar: FL20ACh
Encoding: 8364 8364 98
Width: 659
Flags: W
LayerCount: 2
Fore
SplineSet
33 60 m 0,0,1
 33 51 33 51 41.5 45.5 c 128,-1,2
 50 40 50 40 62 36.5 c 128,-1,3
 74 33 74 33 86 32 c 128,-1,4
 98 31 98 31 105 31 c 1,5,6
 107 20 107 20 115 20 c 0,7,8
 131 20 131 20 142.5 22 c 128,-1,9
 154 24 154 24 165 26 c 128,-1,10
 176 28 176 28 188.5 30 c 128,-1,11
 201 32 201 32 219 32 c 0,12,13
 222 32 222 32 238.5 32.5 c 128,-1,14
 255 33 255 33 273.5 32.5 c 128,-1,15
 292 32 292 32 306.5 29.5 c 128,-1,16
 321 27 321 27 321 22 c 256,17,18
 321 17 321 17 324 17 c 0,19,20
 331 17 331 17 352.5 21 c 128,-1,21
 374 25 374 25 424 25 c 0,22,23
 457 25 457 25 477 21 c 128,-1,24
 497 17 497 17 493 6 c 1,25,26
 565 -11 565 -11 592.5 0.5 c 128,-1,27
 620 12 620 12 616 42 c 128,-1,28
 612 72 612 72 581.5 117 c 128,-1,29
 551 162 551 162 508 214 c 1,30,-1
 414 438 l 1,31,32
 413 443 413 443 410.5 457.5 c 128,-1,33
 408 472 408 472 403 487.5 c 128,-1,34
 398 503 398 503 390 515 c 128,-1,35
 382 527 382 527 370 527 c 0,36,37
 350 527 350 527 343 525.5 c 128,-1,38
 336 524 336 524 333 518.5 c 128,-1,39
 330 513 330 513 327 502.5 c 128,-1,40
 324 492 324 492 314 474 c 1,41,42
 280 402 280 402 263 362.5 c 128,-1,43
 246 323 246 323 237 302.5 c 128,-1,44
 228 282 228 282 222.5 273.5 c 128,-1,45
 217 265 217 265 207 255 c 128,-1,46
 197 245 197 245 177.5 227 c 128,-1,47
 158 209 158 209 121 170 c 0,48,49
 111 159 111 159 101.5 153.5 c 128,-1,50
 92 148 92 148 84.5 143 c 128,-1,51
 77 138 77 138 72.5 131 c 128,-1,52
 68 124 68 124 68 111 c 1,53,-1
 72 128 l 2,54,55
 68 112 68 112 61.5 105.5 c 128,-1,56
 55 99 55 99 48.5 94.5 c 128,-1,57
 42 90 42 90 37.5 83 c 128,-1,58
 33 76 33 76 33 60 c 0,0,1
EndSplineSet
Validated: 37
EndChar

StartChar: FL201Ah
Encoding: 8218 8218 99
Width: 189
Flags: W
LayerCount: 2
Fore
SplineSet
22 82 m 1,0,-1
 14 -106 l 1,1,-1
 114 -2 l 1,2,-1
 117 82 l 1,3,-1
 22 82 l 1,0,-1
EndSplineSet
Validated: 9
EndChar

StartChar: FL0192h
Encoding: 402 402 100
Width: 388
Flags: W
LayerCount: 2
Fore
SplineSet
14 243 m 1,0,-1
 10 325 l 1,1,-1
 83 325 l 1,2,-1
 81 408 l 2,3,4
 81 415 81 415 80.5 431.5 c 128,-1,5
 80 448 80 448 79.5 468 c 128,-1,6
 79 488 79 488 78.5 509.5 c 128,-1,7
 78 531 78 531 78 548 c 2,8,-1
 78 583 l 1,9,-1
 280 583 l 1,10,-1
 291 501 l 1,11,-1
 163 501 l 1,12,-1
 163 325 l 1,13,-1
 327 325 l 1,14,-1
 327 243 l 1,15,-1
 163 243 l 1,16,-1
 163 0 l 1,17,18
 134 0 134 0 120 2 c 128,-1,19
 106 4 106 4 98 7 c 0,20,21
 90 11 90 11 89 16 c 0,22,23
 88 17 88 17 88 99 c 1,24,-1
 85 243 l 1,25,-1
 14 243 l 1,0,-1
EndSplineSet
Validated: 1
EndChar

StartChar: FL201Eh
Encoding: 8222 8222 101
Width: 348
Flags: W
LayerCount: 2
Fore
SplineSet
22 82 m 1,0,-1
 117 82 l 1,1,-1
 114 -2 l 1,2,-1
 14 -106 l 1,3,-1
 22 82 l 1,0,-1
177 88 m 1,4,-1
 272 88 l 1,5,-1
 269 4 l 1,6,-1
 169 -100 l 1,7,-1
 177 88 l 1,4,-1
EndSplineSet
Validated: 1
EndChar

StartChar: FL2026h
Encoding: 8230 8230 102
Width: 533
Flags: W
LayerCount: 2
Fore
SplineSet
342 86 m 1,0,-1
 437 86 l 1,1,-1
 434 2 l 1,2,-1
 340 4 l 1,3,-1
 342 86 l 1,0,-1
18 82 m 1,4,-1
 113 82 l 1,5,-1
 110 -2 l 1,6,-1
 16 0 l 1,7,-1
 18 82 l 1,4,-1
178 78 m 1,8,-1
 273 78 l 1,9,-1
 270 -6 l 1,10,-1
 176 -4 l 1,11,-1
 178 78 l 1,8,-1
EndSplineSet
Validated: 1
EndChar

StartChar: FL2020h
Encoding: 8224 8224 103
Width: 620
Flags: W
LayerCount: 2
Fore
SplineSet
232 -8 m 1,0,1
 231 7 231 7 233.5 11 c 128,-1,2
 236 15 236 15 236 15 c 1,3,-1
 244 349 l 1,4,-1
 220 353 l 1,5,6
 201 350 201 350 167.5 355 c 128,-1,7
 134 360 134 360 97 360 c 0,8,9
 80 360 80 360 64 358.5 c 128,-1,10
 48 357 48 357 35 358.5 c 128,-1,11
 22 360 22 360 14.5 366.5 c 128,-1,12
 7 373 7 373 7 390 c 0,13,14
 7 392 7 392 7.5 395.5 c 128,-1,15
 8 399 8 399 8 400 c 0,16,17
 12 403 12 403 22 410 c 128,-1,18
 32 417 32 417 43 425 c 128,-1,19
 54 433 54 433 64 440 c 128,-1,20
 74 447 74 447 78 450 c 0,21,22
 94 461 94 461 129 465 c 128,-1,23
 164 469 164 469 206 472 c 0,24,25
 227 474 227 474 239 475 c 128,-1,26
 251 476 251 476 255 477 c 0,27,28
 259 477 259 477 255 480.5 c 128,-1,29
 251 484 251 484 251 486 c 256,30,31
 251 488 251 488 257 488 c 1,32,-1
 267 610 l 1,33,-1
 365 606 l 1,34,35
 357 566 357 566 351.5 541.5 c 128,-1,36
 346 517 346 517 343 503.5 c 128,-1,37
 340 490 340 490 338.5 484.5 c 128,-1,38
 337 479 337 479 337 477 c 0,39,40
 338 475 338 475 343.5 470.5 c 128,-1,41
 349 466 349 466 357.5 461 c 128,-1,42
 366 456 366 456 376 452 c 128,-1,43
 386 448 386 448 395 448 c 0,44,45
 414 448 414 448 438 451.5 c 128,-1,46
 462 455 462 455 485 458.5 c 128,-1,47
 508 462 508 462 526 465.5 c 128,-1,48
 544 469 544 469 551 469 c 1,49,50
 563 474 563 474 564 469 c 128,-1,51
 565 464 565 464 561 454.5 c 128,-1,52
 557 445 557 445 552 435 c 128,-1,53
 547 425 547 425 547 419 c 0,54,55
 547 394 547 394 534 382.5 c 128,-1,56
 521 371 521 371 501.5 367.5 c 128,-1,57
 482 364 482 364 459 366 c 128,-1,58
 436 368 436 368 415.5 369.5 c 128,-1,59
 395 371 395 371 380 370 c 128,-1,60
 365 369 365 369 362 360 c 1,61,62
 354 350 354 350 350 319 c 128,-1,63
 346 288 346 288 344 247 c 128,-1,64
 342 206 342 206 341 161.5 c 128,-1,65
 340 117 340 117 338 79.5 c 128,-1,66
 336 42 336 42 331.5 17.5 c 128,-1,67
 327 -7 327 -7 319 -7 c 1,68,69
 313 -6 313 -6 302.5 -9 c 128,-1,70
 292 -12 292 -12 279.5 -14.5 c 128,-1,71
 267 -17 267 -17 254 -17 c 256,72,73
 241 -17 241 -17 232 -8 c 1,0,1
EndSplineSet
Validated: 33
EndChar

StartChar: FL2021h
Encoding: 8225 8225 104
Width: 620
Flags: W
LayerCount: 2
Fore
SplineSet
354 169 m 1,0,-1
 319 -7 l 1,1,2
 312 -7 312 -7 295.5 -10.5 c 128,-1,3
 279 -14 279 -14 262 -17 c 0,4,5
 246 -20 246 -20 238 -6 c 0,6,7
 231 7 231 7 233.5 11 c 128,-1,8
 236 15 236 15 236 15 c 1,9,-1
 236 158 l 1,10,-1
 212 162 l 1,11,12
 193 159 193 159 159.5 164 c 128,-1,13
 126 169 126 169 89 169 c 0,14,15
 72 169 72 169 56 167.5 c 128,-1,16
 40 166 40 166 27 167.5 c 128,-1,17
 14 169 14 169 6.5 175.5 c 128,-1,18
 -1 182 -1 182 -1 199 c 0,19,20
 -1 201 -1 201 -0.5 204.5 c 128,-1,21
 0 208 0 208 0 209 c 0,22,23
 4 212 4 212 13 215 c 128,-1,24
 22 218 22 218 32 221 c 128,-1,25
 42 224 42 224 51 227 c 128,-1,26
 60 230 60 230 64 233 c 0,27,28
 80 244 80 244 115 248 c 128,-1,29
 150 252 150 252 192 255 c 0,30,31
 209 257 209 257 220 257.5 c 128,-1,32
 231 258 231 258 236 259 c 1,33,-1
 244 349 l 1,34,-1
 220 353 l 1,35,36
 201 350 201 350 167.5 355 c 128,-1,37
 134 360 134 360 97 360 c 0,38,39
 80 360 80 360 64 358.5 c 128,-1,40
 48 357 48 357 35 358.5 c 128,-1,41
 22 360 22 360 14.5 366.5 c 128,-1,42
 7 373 7 373 7 390 c 0,43,44
 7 392 7 392 7.5 395.5 c 128,-1,45
 8 399 8 399 8 400 c 0,46,47
 12 403 12 403 22 410 c 128,-1,48
 32 417 32 417 43 425 c 128,-1,49
 54 433 54 433 64 440 c 128,-1,50
 74 447 74 447 78 450 c 0,51,52
 94 461 94 461 129 465 c 128,-1,53
 164 469 164 469 206 472 c 0,54,55
 227 474 227 474 239 475 c 128,-1,56
 251 476 251 476 255 477 c 0,57,58
 259 477 259 477 255 480.5 c 128,-1,59
 251 484 251 484 251 486 c 256,60,61
 251 488 251 488 257 488 c 1,62,-1
 267 610 l 1,63,-1
 365 606 l 1,64,65
 357 566 357 566 351.5 541.5 c 128,-1,66
 346 517 346 517 343 503.5 c 128,-1,67
 340 490 340 490 338.5 484.5 c 128,-1,68
 337 479 337 479 337 477 c 0,69,70
 338 475 338 475 343.5 470.5 c 128,-1,71
 349 466 349 466 357.5 461 c 128,-1,72
 366 456 366 456 376 452 c 128,-1,73
 386 448 386 448 395 448 c 0,74,75
 414 448 414 448 438 451.5 c 128,-1,76
 462 455 462 455 485 458.5 c 128,-1,77
 508 462 508 462 526 465.5 c 128,-1,78
 544 469 544 469 551 469 c 1,79,80
 563 474 563 474 564 469 c 128,-1,81
 565 464 565 464 561 454.5 c 128,-1,82
 557 445 557 445 552 435 c 128,-1,83
 547 425 547 425 547 419 c 0,84,85
 547 394 547 394 534 382.5 c 128,-1,86
 521 371 521 371 501.5 367.5 c 128,-1,87
 482 364 482 364 459 366 c 128,-1,88
 436 368 436 368 415.5 369.5 c 128,-1,89
 395 371 395 371 380 370 c 128,-1,90
 365 369 365 369 362 360 c 1,91,92
 359 355 359 355 355 343 c 128,-1,93
 351 331 351 331 348 315 c 128,-1,94
 345 299 345 299 342.5 281 c 128,-1,95
 340 263 340 263 339 247 c 1,96,97
 348 241 348 241 359 236 c 128,-1,98
 370 231 370 231 381 231 c 0,99,100
 400 231 400 231 424 234.5 c 128,-1,101
 448 238 448 238 471 241.5 c 128,-1,102
 494 245 494 245 512 248.5 c 128,-1,103
 530 252 530 252 537 252 c 1,104,105
 549 257 549 257 550 252 c 128,-1,106
 551 247 551 247 547 237.5 c 128,-1,107
 543 228 543 228 538 218 c 128,-1,108
 533 208 533 208 533 202 c 0,109,110
 533 177 533 177 520.5 167.5 c 128,-1,111
 508 158 508 158 489 157.5 c 128,-1,112
 470 157 470 157 448 162 c 128,-1,113
 426 167 426 167 406 171.5 c 128,-1,114
 386 176 386 176 371.5 177 c 128,-1,115
 357 178 357 178 354 169 c 1,0,-1
242 260 m 1,116,117
 242 260 242 260 243.5 267 c 128,-1,118
 245 274 245 274 246.5 280.5 c 128,-1,119
 248 287 248 287 248 288 c 2,120,-1
 242 260 l 1,116,117
EndSplineSet
Validated: 37
EndChar

StartChar: FL02C6h
Encoding: 710 710 105
Width: 282
Flags: W
LayerCount: 2
Fore
SplineSet
10 380 m 1,0,1
 11 379 11 379 16.5 378.5 c 128,-1,2
 22 378 22 378 28.5 377.5 c 128,-1,3
 35 377 35 377 40.5 376.5 c 128,-1,4
 46 376 46 376 48 376 c 2,5,-1
 56 376 l 2,6,7
 60 376 60 376 64.5 376.5 c 128,-1,8
 69 377 69 377 71 380 c 2,9,-1
 101 459 l 1,10,-1
 109 463 l 1,11,12
 111 461 111 461 114 453 c 128,-1,13
 117 445 117 445 117 443 c 0,14,15
 118 438 118 438 121 426.5 c 128,-1,16
 124 415 124 415 128 402 c 128,-1,17
 132 389 132 389 135 377.5 c 128,-1,18
 138 366 138 366 139 360 c 1,19,-1
 147 353 l 1,20,-1
 217 353 l 1,21,-1
 132 553 l 1,22,23
 126 564 126 564 104 564 c 0,24,25
 91 564 91 564 91 563 c 2,26,27
 91 563 91 563 86 553 c 2,28,-1
 10 380 l 1,0,1
EndSplineSet
Validated: 9
EndChar

StartChar: FL2030h
Encoding: 8240 8240 106
Width: 638
Flags: W
LayerCount: 2
Fore
SplineSet
235 552 m 1,0,-1
 292 556 l 1,1,-1
 131 -32 l 1,2,-1
 70 -28 l 1,3,-1
 235 552 l 1,0,-1
175 425 m 0,4,5
 175 396 175 396 169.5 366.5 c 128,-1,6
 164 337 164 337 151 312 c 0,7,8
 144 299 144 299 138.5 289.5 c 128,-1,9
 133 280 133 280 129 275 c 0,10,11
 122 265 122 265 96 256 c 1,12,13
 70 254 70 254 53.5 269 c 128,-1,14
 37 284 37 284 28 307 c 128,-1,15
 19 330 19 330 16 357 c 128,-1,16
 13 384 13 384 14 406 c 1,17,18
 14 436 14 436 19.5 465.5 c 128,-1,19
 25 495 25 495 39 521 c 0,20,21
 52 546 52 546 61 558 c 128,-1,22
 70 570 70 570 87 577 c 1,23,24
 117 577 117 577 134.5 562 c 128,-1,25
 152 547 152 547 161 524.5 c 128,-1,26
 170 502 170 502 172.5 475 c 128,-1,27
 175 448 175 448 175 425 c 0,4,5
108 519 m 1,28,29
 90 514 90 514 76 493 c 1,30,31
 52 452 52 452 52 403 c 0,32,33
 52 393 52 393 53 375.5 c 128,-1,34
 54 358 54 358 59 341 c 128,-1,35
 64 324 64 324 70 320.5 c 128,-1,36
 76 317 76 317 84 319 c 0,37,38
 94 321 94 321 100 326 c 128,-1,39
 106 331 106 331 116 346 c 0,40,41
 136 375 136 375 136 429 c 0,42,43
 136 439 136 439 135 456 c 128,-1,44
 134 473 134 473 129 491 c 0,45,46
 126 499 126 499 125 504.5 c 128,-1,47
 124 510 124 510 123 512 c 0,48,49
 123 514 123 514 108 519 c 1,28,29
376 155 m 0,50,51
 376 126 376 126 370.5 96.5 c 128,-1,52
 365 67 365 67 352 42 c 0,53,54
 345 29 345 29 339.5 19.5 c 128,-1,55
 334 10 334 10 330 5 c 0,56,57
 323 -5 323 -5 297 -14 c 1,58,59
 271 -16 271 -16 254.5 -1 c 128,-1,60
 238 14 238 14 229 37 c 128,-1,61
 220 60 220 60 217 87 c 128,-1,62
 214 114 214 114 215 136 c 1,63,64
 215 166 215 166 220.5 195.5 c 128,-1,65
 226 225 226 225 240 251 c 0,66,67
 253 276 253 276 262 288 c 128,-1,68
 271 300 271 300 288 307 c 1,69,70
 318 307 318 307 335.5 292 c 128,-1,71
 353 277 353 277 362 254.5 c 128,-1,72
 371 232 371 232 373.5 205 c 128,-1,73
 376 178 376 178 376 155 c 0,50,51
309 249 m 1,74,75
 291 244 291 244 277 223 c 1,76,77
 253 182 253 182 253 133 c 0,78,79
 253 123 253 123 254 105.5 c 128,-1,80
 255 88 255 88 260 71 c 128,-1,81
 265 54 265 54 271 50.5 c 128,-1,82
 277 47 277 47 285 49 c 0,83,84
 295 51 295 51 301 56 c 128,-1,85
 307 61 307 61 317 76 c 0,86,87
 337 105 337 105 337 159 c 0,88,89
 337 169 337 169 336 186 c 128,-1,90
 335 203 335 203 330 221 c 0,91,92
 327 229 327 229 326 234.5 c 128,-1,93
 325 240 325 240 324 242 c 0,94,95
 324 244 324 244 309 249 c 1,74,75
575 164 m 0,96,97
 575 135 575 135 569.5 105.5 c 128,-1,98
 564 76 564 76 551 51 c 0,99,100
 544 38 544 38 538.5 28.5 c 128,-1,101
 533 19 533 19 529 14 c 0,102,103
 522 4 522 4 496 -5 c 1,104,105
 470 -7 470 -7 453.5 8 c 128,-1,106
 437 23 437 23 428 46 c 128,-1,107
 419 69 419 69 416 96 c 128,-1,108
 413 123 413 123 414 145 c 1,109,110
 414 175 414 175 419.5 204.5 c 128,-1,111
 425 234 425 234 439 260 c 0,112,113
 452 285 452 285 461 297 c 128,-1,114
 470 309 470 309 487 316 c 1,115,116
 517 316 517 316 534.5 301 c 128,-1,117
 552 286 552 286 561 263.5 c 128,-1,118
 570 241 570 241 572.5 214 c 128,-1,119
 575 187 575 187 575 164 c 0,96,97
508 258 m 1,120,121
 490 253 490 253 476 232 c 1,122,123
 452 191 452 191 452 142 c 0,124,125
 452 132 452 132 453 114.5 c 128,-1,126
 454 97 454 97 459 80 c 128,-1,127
 464 63 464 63 470 59.5 c 128,-1,128
 476 56 476 56 484 58 c 0,129,130
 494 60 494 60 500 65 c 128,-1,131
 506 70 506 70 516 85 c 0,132,133
 536 114 536 114 536 168 c 0,134,135
 536 178 536 178 535 195 c 128,-1,136
 534 212 534 212 529 230 c 0,137,138
 526 238 526 238 525 243.5 c 128,-1,139
 524 249 524 249 523 251 c 0,140,141
 523 253 523 253 508 258 c 1,120,121
EndSplineSet
Validated: 33
EndChar

StartChar: FL0160h
Encoding: 352 352 107
Width: 348
Flags: W
LayerCount: 2
Fore
SplineSet
12 96 m 1,0,1
 9 36 9 36 34.5 12.5 c 128,-1,2
 60 -11 60 -11 117 -11 c 0,3,4
 151 -11 151 -11 181 -1.5 c 128,-1,5
 211 8 211 8 233.5 26.5 c 128,-1,6
 256 45 256 45 269 72.5 c 128,-1,7
 282 100 282 100 282 137 c 0,8,9
 282 176 282 176 266.5 210 c 128,-1,10
 251 244 251 244 227 273 c 128,-1,11
 203 302 203 302 173.5 328 c 128,-1,12
 144 354 144 354 117 377 c 1,13,14
 106 388 106 388 105 399 c 128,-1,15
 104 410 104 410 104 424 c 0,16,17
 104 449 104 449 116.5 464.5 c 128,-1,18
 129 480 129 480 148 488.5 c 128,-1,19
 167 497 167 497 190 500.5 c 128,-1,20
 213 504 213 504 234 505 c 1,21,22
 235 508 235 508 237 516.5 c 128,-1,23
 239 525 239 525 241 534.5 c 128,-1,24
 243 544 243 544 244.5 552.5 c 128,-1,25
 246 561 246 561 246 564 c 0,26,27
 246 565 246 565 246.5 570 c 128,-1,28
 247 575 247 575 247 578 c 0,29,30
 247 588 247 588 239.5 593 c 128,-1,31
 232 598 232 598 221.5 599.5 c 128,-1,32
 211 601 211 601 199.5 600.5 c 128,-1,33
 188 600 188 600 181 600 c 0,34,35
 147 600 147 600 116.5 589 c 128,-1,36
 86 578 86 578 62.5 558 c 128,-1,37
 39 538 39 538 25 509 c 128,-1,38
 11 480 11 480 11 443 c 0,39,40
 11 408 11 408 23.5 381 c 128,-1,41
 36 354 36 354 54 331.5 c 128,-1,42
 72 309 72 309 94 289.5 c 128,-1,43
 116 270 116 270 134 249.5 c 128,-1,44
 152 229 152 229 164.5 206 c 128,-1,45
 177 183 177 183 177 154 c 0,46,47
 177 120 177 120 159 101.5 c 128,-1,48
 141 83 141 83 106 83 c 0,49,50
 84 83 84 83 64 89.5 c 128,-1,51
 44 96 44 96 23 96 c 2,52,-1
 12 96 l 1,0,1
269 776 m 1,53,54
 267 778 267 778 256.5 778.5 c 128,-1,55
 246 779 246 779 238 779 c 2,56,-1
 231 779 l 1,57,-1
 223 779 l 1,58,-1
 214 779 l 2,59,60
 209 779 209 779 208 776 c 1,61,-1
 177 747 l 1,62,-1
 169 744 l 1,63,64
 167 746 167 746 164 753 c 128,-1,65
 161 760 161 760 161 762 c 0,66,67
 159 771 159 771 150.5 777.5 c 128,-1,68
 142 784 142 784 140 794 c 1,69,-1
 132 800 l 1,70,-1
 62 800 l 1,71,-1
 146 662 l 2,72,73
 152 651 152 651 174 651 c 0,74,75
 187 651 187 651 187 652 c 2,76,77
 187 652 187 652 188.5 654.5 c 128,-1,78
 190 657 190 657 192 662 c 1,79,-1
 269 776 l 1,53,54
EndSplineSet
Validated: 41
EndChar

StartChar: FL2039h
Encoding: 8249 8249 108
Width: 284
Flags: W
LayerCount: 2
Fore
SplineSet
220 20 m 1,0,-1
 106 296 l 1,1,-1
 229 592 l 1,2,-1
 112 592 l 1,3,4
 105 570 105 570 96 539 c 128,-1,5
 87 508 87 508 77 476.5 c 128,-1,6
 67 445 67 445 57 416.5 c 128,-1,7
 47 388 47 388 38 372 c 1,8,-1
 4 294 l 1,9,-1
 100 92 l 2,10,11
 107 76 107 76 111 66 c 128,-1,12
 115 56 115 56 118 49 c 128,-1,13
 121 42 121 42 123.5 37.5 c 128,-1,14
 126 33 126 33 129 29 c 0,15,16
 142 12 142 12 149 12 c 2,17,-1
 161 12 l 2,18,19
 165 12 165 12 173.5 13 c 128,-1,20
 182 14 182 14 191 15.5 c 128,-1,21
 200 17 200 17 208.5 18.5 c 128,-1,22
 217 20 217 20 220 20 c 1,0,-1
EndSplineSet
Validated: 9
EndChar

StartChar: FL0152h
Encoding: 338 338 109
Width: 536
Flags: W
LayerCount: 2
Fore
SplineSet
268 574 m 1,0,1
 267 563 267 563 266.5 553.5 c 128,-1,2
 266 544 266 544 266 533 c 1,3,4
 258 542 258 542 248 557 c 1,5,6
 225 586 225 586 170 586 c 0,7,8
 114 586 114 586 82.5 558.5 c 128,-1,9
 51 531 51 531 35 490 c 128,-1,10
 19 449 19 449 15 400.5 c 128,-1,11
 11 352 11 352 11 310 c 0,12,13
 11 258 11 258 20.5 203 c 128,-1,14
 30 148 30 148 54 102.5 c 128,-1,15
 78 57 78 57 119 28 c 128,-1,16
 160 -1 160 -1 223 -1 c 0,17,18
 231 -1 231 -1 243.5 -0.5 c 128,-1,19
 256 0 256 0 257 0 c 2,20,-1
 258 1 l 1,21,-1
 258 0 l 1,22,-1
 461 0 l 1,23,-1
 461 82 l 1,24,-1
 355 82 l 1,25,-1
 355 252 l 1,26,-1
 449 252 l 1,27,-1
 449 345 l 1,28,-1
 344 345 l 1,29,-1
 344 486 l 1,30,-1
 484 486 l 1,31,-1
 484 573 l 1,32,-1
 472 585 l 2,33,34
 471 585 471 585 458.5 585.5 c 128,-1,35
 446 586 446 586 440 586 c 0,36,37
 416 586 416 586 397 585 c 128,-1,38
 378 584 378 584 359 582.5 c 128,-1,39
 340 581 340 581 318 579 c 128,-1,40
 296 577 296 577 268 574 c 1,0,1
265 512 m 1,41,42
 262 421 262 421 261 324.5 c 128,-1,43
 260 228 260 228 258 133 c 1,44,-1
 258 110 l 1,45,46
 209 111 209 111 175.5 126 c 128,-1,47
 142 141 142 141 121 167.5 c 128,-1,48
 100 194 100 194 90.5 231.5 c 128,-1,49
 81 269 81 269 81 316 c 0,50,51
 81 335 81 335 83.5 366.5 c 128,-1,52
 86 398 86 398 94 428.5 c 128,-1,53
 102 459 102 459 118.5 481.5 c 128,-1,54
 135 504 135 504 163 504 c 1,55,56
 179 503 179 503 187.5 499 c 128,-1,57
 196 495 196 495 201.5 490.5 c 128,-1,58
 207 486 207 486 212 481.5 c 128,-1,59
 217 477 217 477 226 475 c 1,60,-1
 265 512 l 1,41,42
EndSplineSet
Validated: 9
EndChar

StartChar: FL017Dh
Encoding: 381 381 110
Width: 301
Flags: W
LayerCount: 2
Fore
SplineSet
215 583 m 1,0,1
 171 580 171 580 134 583 c 128,-1,2
 97 586 97 586 53 586 c 0,3,4
 46 586 46 586 33.5 585.5 c 128,-1,5
 21 585 21 585 20 585 c 2,6,-1
 8 573 l 1,7,-1
 8 486 l 1,8,-1
 149 486 l 1,9,-1
 32 133 l 1,10,-1
 32 0 l 1,11,-1
 234 0 l 1,12,-1
 234 82 l 1,13,-1
 129 82 l 1,14,-1
 220 489 l 2,15,16
 224 504 224 504 215 583 c 1,0,1
234 753 m 1,17,18
 232 755 232 755 221.5 755.5 c 128,-1,19
 211 756 211 756 203 756 c 2,20,-1
 196 756 l 1,21,-1
 188 756 l 1,22,-1
 179 756 l 2,23,24
 174 756 174 756 173 753 c 1,25,-1
 142 724 l 1,26,-1
 134 721 l 1,27,28
 132 723 132 723 129 730 c 128,-1,29
 126 737 126 737 126 739 c 0,30,31
 124 748 124 748 115.5 754.5 c 128,-1,32
 107 761 107 761 105 771 c 1,33,-1
 97 777 l 1,34,-1
 27 777 l 1,35,-1
 111 639 l 2,36,37
 117 628 117 628 139 628 c 0,38,39
 152 628 152 628 152 629 c 2,40,41
 152 629 152 629 153.5 631.5 c 128,-1,42
 155 634 155 634 157 639 c 1,43,-1
 234 753 l 1,17,18
EndSplineSet
Validated: 41
EndChar

StartChar: FL2018h
Encoding: 8216 8216 111
Width: 179
Flags: W
LayerCount: 2
Fore
SplineSet
106 474 m 1,0,1
 66 419 66 419 14 474 c 1,2,-1
 8 597 l 1,3,-1
 111 597 l 1,4,5
 111 561 111 561 109.5 530.5 c 128,-1,6
 108 500 108 500 106 474 c 1,0,1
EndSplineSet
Validated: 33
EndChar

StartChar: FL2019h
Encoding: 8217 8217 112
Width: 187
Flags: W
LayerCount: 2
Fore
SplineSet
14 474 m 1,0,1
 54 419 54 419 106 474 c 1,2,-1
 112 597 l 1,3,-1
 9 597 l 1,4,5
 9 561 9 561 10.5 530.5 c 128,-1,6
 12 500 12 500 14 474 c 1,0,1
EndSplineSet
Validated: 41
EndChar

StartChar: FL201Ch
Encoding: 8220 8220 113
Width: 327
Flags: W
LayerCount: 2
Fore
SplineSet
106 470 m 1,0,1
 66 415 66 415 14 470 c 1,2,-1
 8 593 l 1,3,-1
 111 593 l 1,4,5
 111 557 111 557 109.5 526.5 c 128,-1,6
 108 496 108 496 106 470 c 1,0,1
250 474 m 1,7,8
 210 419 210 419 158 474 c 1,9,-1
 152 597 l 1,10,-1
 255 597 l 1,11,12
 255 561 255 561 253.5 530.5 c 128,-1,13
 252 500 252 500 250 474 c 1,7,8
EndSplineSet
Validated: 33
EndChar

StartChar: FL201Dh
Encoding: 8221 8221 114
Width: 335
Flags: W
LayerCount: 2
Fore
SplineSet
158 470 m 1,0,1
 198 415 198 415 250 470 c 1,2,-1
 256 593 l 1,3,-1
 153 593 l 1,4,5
 153 557 153 557 154.5 526.5 c 128,-1,6
 156 496 156 496 158 470 c 1,0,1
14 474 m 1,7,8
 54 419 54 419 106 474 c 1,9,-1
 112 597 l 1,10,-1
 9 597 l 1,11,12
 9 561 9 561 10.5 530.5 c 128,-1,13
 12 500 12 500 14 474 c 1,7,8
EndSplineSet
Validated: 41
EndChar

StartChar: FL2022h
Encoding: 8226 8226 115
Width: 265
Flags: W
LayerCount: 2
Fore
SplineSet
8 266 m 1,0,1
 22 248 22 248 45 231.5 c 128,-1,2
 68 215 68 215 92 215 c 0,3,4
 110 215 110 215 127.5 218.5 c 128,-1,5
 145 222 145 222 158.5 230.5 c 128,-1,6
 172 239 172 239 180.5 252.5 c 128,-1,7
 189 266 189 266 189 287 c 256,8,9
 189 308 189 308 177.5 329.5 c 128,-1,10
 166 351 166 351 148.5 368 c 128,-1,11
 131 385 131 385 109 396 c 128,-1,12
 87 407 87 407 66 407 c 256,13,14
 45 407 45 407 33 396 c 128,-1,15
 21 385 21 385 15.5 369 c 128,-1,16
 10 353 10 353 8.5 334.5 c 128,-1,17
 7 316 7 316 7 301 c 0,18,19
 7 297 7 297 7.5 283.5 c 128,-1,20
 8 270 8 270 8 266 c 1,0,1
EndSplineSet
Validated: 9
EndChar

StartChar: FL2013h
Encoding: 8211 8211 116
Width: 238
Flags: W
LayerCount: 2
Fore
SplineSet
10 288 m 1,0,-1
 80 290 l 1,1,-1
 170 290 l 1,2,-1
 170 205 l 1,3,-1
 80 205 l 1,4,-1
 10 208 l 1,5,-1
 10 288 l 1,0,-1
EndSplineSet
Validated: 1
EndChar

StartChar: FL2014h
Encoding: 8212 8212 117
Width: 238
Flags: W
LayerCount: 2
Fore
SplineSet
10 288 m 1,0,-1
 80 290 l 1,1,-1
 170 290 l 1,2,-1
 170 205 l 1,3,-1
 80 205 l 1,4,-1
 10 208 l 1,5,-1
 10 288 l 1,0,-1
EndSplineSet
Validated: 1
EndChar

StartChar: FL02DCh
Encoding: 732 732 118
Width: 319
Flags: W
LayerCount: 2
Fore
SplineSet
21 689 m 1,0,-1
 21 609 l 1,1,-1
 96 626 l 1,2,-1
 146 575 l 1,3,-1
 206 572 l 1,4,-1
 263 593 l 1,5,-1
 266 682 l 1,6,-1
 199 646 l 1,7,-1
 146 664 l 1,8,-1
 96 711 l 1,9,-1
 21 689 l 1,0,-1
EndSplineSet
Validated: 9
EndChar

StartChar: FL2122h
Encoding: 8482 8482 119
Width: 509
Flags: W
LayerCount: 2
Fore
SplineSet
164 600 m 1,0,1
 166 577 166 577 167 563.5 c 128,-1,2
 168 550 168 550 168 547 c 0,3,4
 168 541 168 541 118 541 c 1,5,-1
 118 487 l 1,6,-1
 118 270 l 2,7,8
 118 261 118 261 116 253 c 0,9,10
 115 249 115 249 90 248 c 0,11,12
 88 248 88 248 83 248.5 c 128,-1,13
 78 249 78 249 69 251 c 1,14,15
 66 255 66 255 66 340 c 1,16,17
 67 351 67 351 67 362 c 256,18,19
 67 373 67 373 67 384 c 2,20,-1
 67 433 l 1,21,-1
 67 538 l 1,22,-1
 16 540 l 1,23,-1
 16 592 l 1,24,-1
 24 599 l 1,25,-1
 27 599 l 2,26,27
 30 599 30 599 33.5 599.5 c 128,-1,28
 37 600 37 600 40 600 c 2,29,-1
 47 600 l 2,30,31
 78 600 78 600 105 598.5 c 128,-1,32
 132 597 132 597 164 600 c 1,0,1
332 294 m 1,33,34
 324 286 324 286 313 294 c 1,35,36
 307 308 307 308 303.5 322 c 128,-1,37
 300 336 300 336 292 356 c 0,38,39
 283 377 283 377 276.5 394.5 c 128,-1,40
 270 412 270 412 267 419 c 1,41,42
 265 421 265 421 261.5 426 c 128,-1,43
 258 431 258 431 256 433 c 1,44,-1
 256 244 l 1,45,-1
 194 244 l 1,46,47
 194 331 194 331 199.5 425 c 128,-1,48
 205 519 205 519 211 602 c 1,49,-1
 253 602 l 1,50,-1
 324 432 l 1,51,-1
 332 446 l 1,52,-1
 397 613 l 1,53,-1
 439 613 l 1,54,55
 442 572 442 572 445 527 c 128,-1,56
 448 482 448 482 450 435.5 c 128,-1,57
 452 389 452 389 453.5 343 c 128,-1,58
 455 297 455 297 455 255 c 1,59,-1
 393 255 l 1,60,-1
 393 445 l 1,61,-1
 383 430 l 1,62,63
 381 425 381 425 376 413 c 128,-1,64
 371 401 371 401 365 387 c 0,65,66
 363 380 363 380 360 372.5 c 128,-1,67
 357 365 357 365 353 354.5 c 128,-1,68
 349 344 349 344 344 329.5 c 128,-1,69
 339 315 339 315 332 294 c 1,33,34
EndSplineSet
Validated: 33
EndChar

StartChar: FL0161h
Encoding: 353 353 120
Width: 302
Flags: W
LayerCount: 2
Fore
SplineSet
10 82 m 1,0,-1
 20 82 l 2,1,2
 38 82 38 82 55 76.5 c 128,-1,3
 72 71 72 71 91 71 c 0,4,5
 151 71 151 71 151 132 c 0,6,7
 151 169 151 169 129 195.5 c 128,-1,8
 107 222 107 222 80 247.5 c 128,-1,9
 53 273 53 273 31 303.5 c 128,-1,10
 9 334 9 334 9 379 c 0,11,12
 9 410 9 410 21 435 c 128,-1,13
 33 460 33 460 53 477 c 128,-1,14
 73 494 73 494 99.5 503.5 c 128,-1,15
 126 513 126 513 155 513 c 0,16,17
 161 513 161 513 170.5 513.5 c 128,-1,18
 180 514 180 514 189 512.5 c 128,-1,19
 198 511 198 511 204.5 507 c 128,-1,20
 211 503 211 503 211 494 c 0,21,22
 211 492 211 492 210.5 487.5 c 128,-1,23
 210 483 210 483 210 482 c 0,24,25
 210 479 210 479 208.5 472 c 128,-1,26
 207 465 207 465 205.5 457 c 128,-1,27
 204 449 204 449 202.5 442 c 128,-1,28
 201 435 201 435 200 432 c 1,29,30
 182 431 182 431 162.5 428 c 128,-1,31
 143 425 143 425 126.5 417.5 c 128,-1,32
 110 410 110 410 99.5 397 c 128,-1,33
 89 384 89 384 89 362 c 0,34,35
 89 351 89 351 90 341 c 128,-1,36
 91 331 91 331 100 322 c 0,37,38
 123 302 123 302 148 280 c 128,-1,39
 173 258 173 258 193.5 233 c 128,-1,40
 214 208 214 208 227.5 179.5 c 128,-1,41
 241 151 241 151 241 117 c 0,42,43
 241 85 241 85 230 61.5 c 128,-1,44
 219 38 219 38 200 22.5 c 128,-1,45
 181 7 181 7 155 -1 c 128,-1,46
 129 -9 129 -9 100 -9 c 0,47,48
 52 -9 52 -9 30 11 c 128,-1,49
 8 31 8 31 10 82 c 1,0,-1
242 688 m 1,50,-1
 165 574 l 1,51,52
 163 569 163 569 161.5 566.5 c 128,-1,53
 160 564 160 564 160 564 c 2,54,55
 160 563 160 563 147 563 c 0,56,57
 125 563 125 563 119 574 c 2,58,-1
 35 712 l 1,59,-1
 105 712 l 1,60,-1
 113 706 l 1,61,62
 115 696 115 696 123.5 689.5 c 128,-1,63
 132 683 132 683 134 674 c 0,64,65
 134 672 134 672 137 665 c 128,-1,66
 140 658 140 658 142 656 c 1,67,-1
 150 659 l 1,68,-1
 181 688 l 1,69,70
 182 691 182 691 187 691 c 2,71,-1
 196 691 l 1,72,-1
 204 691 l 1,73,-1
 211 691 l 2,74,75
 219 691 219 691 229.5 690.5 c 128,-1,76
 240 690 240 690 242 688 c 1,50,-1
EndSplineSet
Validated: 33
EndChar

StartChar: FL203Ah
Encoding: 8250 8250 121
Width: 284
Flags: W
LayerCount: 2
Fore
SplineSet
14 20 m 1,0,-1
 128 296 l 1,1,-1
 5 592 l 1,2,-1
 122 592 l 1,3,4
 129 570 129 570 138 539 c 128,-1,5
 147 508 147 508 156.5 476.5 c 128,-1,6
 166 445 166 445 176.5 416.5 c 128,-1,7
 187 388 187 388 196 372 c 1,8,-1
 230 294 l 1,9,-1
 134 92 l 2,10,11
 127 76 127 76 123 66 c 128,-1,12
 119 56 119 56 116 49 c 128,-1,13
 113 42 113 42 110.5 37.5 c 128,-1,14
 108 33 108 33 105 29 c 0,15,16
 92 12 92 12 85 12 c 2,17,-1
 73 12 l 2,18,19
 69 12 69 12 60.5 13 c 128,-1,20
 52 14 52 14 43 15.5 c 128,-1,21
 34 17 34 17 25.5 18.5 c 128,-1,22
 17 20 17 20 14 20 c 1,0,-1
EndSplineSet
Validated: 1
EndChar

StartChar: FL0153h
Encoding: 339 339 122
Width: 481
Flags: W
LayerCount: 2
Fore
SplineSet
237 483 m 1,0,1
 233 473 233 473 231 451 c 1,2,3
 228 455 228 455 223.5 461 c 128,-1,4
 219 467 219 467 212 476 c 0,5,6
 193 501 193 501 145 501 c 0,7,8
 98 501 98 501 71 477.5 c 128,-1,9
 44 454 44 454 30 419 c 128,-1,10
 16 384 16 384 12.5 342.5 c 128,-1,11
 9 301 9 301 9 265 c 0,12,13
 9 220 9 220 17.5 173 c 128,-1,14
 26 126 26 126 46.5 87.5 c 128,-1,15
 67 49 67 49 102 24 c 128,-1,16
 137 -1 137 -1 191 -1 c 0,17,18
 197 -1 197 -1 208 -0.5 c 128,-1,19
 219 0 219 0 220 0 c 2,20,-1
 229 9 l 1,21,-1
 229 3 l 1,22,-1
 401 3 l 1,23,-1
 411 73 l 1,24,-1
 301 73 l 1,25,-1
 301 208 l 1,26,-1
 391 208 l 1,27,-1
 391 293 l 1,28,-1
 301 293 l 1,29,-1
 301 408 l 1,30,-1
 421 408 l 1,31,-1
 421 494 l 1,32,33
 401 494 401 494 378.5 493 c 128,-1,34
 356 492 356 492 333 490 c 0,35,36
 311 489 311 489 290 487 c 128,-1,37
 269 485 269 485 237 483 c 1,0,1
231 442 m 1,38,39
 230 430 230 430 229.5 416 c 128,-1,40
 229 402 229 402 229 385 c 0,41,42
 227 346 227 346 226.5 311 c 128,-1,43
 226 276 226 276 225 245 c 1,44,45
 225 207 225 207 226 169.5 c 128,-1,46
 227 132 227 132 228 94 c 1,47,48
 140 95 140 95 104.5 141 c 128,-1,49
 69 187 69 187 69 270 c 0,50,51
 69 286 69 286 71 313 c 128,-1,52
 73 340 73 340 80 366.5 c 128,-1,53
 87 393 87 393 101 412 c 128,-1,54
 115 431 115 431 139 431 c 1,55,56
 152 430 152 430 159.5 426.5 c 128,-1,57
 167 423 167 423 171.5 419 c 128,-1,58
 176 415 176 415 180.5 411.5 c 128,-1,59
 185 408 185 408 193 406 c 1,60,-1
 231 442 l 1,38,39
EndSplineSet
Validated: 9
EndChar

StartChar: FL017Eh
Encoding: 382 382 123
Width: 270
Flags: W
LayerCount: 2
Fore
SplineSet
184 498 m 1,0,1
 146 496 146 496 114.5 498.5 c 128,-1,2
 83 501 83 501 45 501 c 0,3,4
 40 501 40 501 29 500.5 c 128,-1,5
 18 500 18 500 17 500 c 2,6,-1
 7 490 l 1,7,-1
 7 415 l 1,8,-1
 127 415 l 1,9,-1
 27 114 l 1,10,-1
 27 0 l 1,11,-1
 200 0 l 1,12,-1
 200 70 l 1,13,-1
 110 70 l 1,14,-1
 188 418 l 2,15,16
 190 425 190 425 189 445 c 128,-1,17
 188 465 188 465 184 498 c 1,0,1
226 673 m 1,18,19
 224 675 224 675 213.5 675.5 c 128,-1,20
 203 676 203 676 195 676 c 2,21,-1
 188 676 l 1,22,-1
 180 676 l 1,23,-1
 171 676 l 2,24,25
 166 676 166 676 165 673 c 1,26,-1
 134 644 l 1,27,-1
 126 641 l 1,28,29
 124 643 124 643 121 650 c 128,-1,30
 118 657 118 657 118 659 c 0,31,32
 116 668 116 668 107.5 674.5 c 128,-1,33
 99 681 99 681 97 691 c 1,34,-1
 89 697 l 1,35,-1
 19 697 l 1,36,-1
 103 559 l 2,37,38
 109 548 109 548 131 548 c 0,39,40
 144 548 144 548 144 549 c 2,41,42
 144 549 144 549 145.5 551.5 c 128,-1,43
 147 554 147 554 149 559 c 1,44,-1
 226 673 l 1,18,19
EndSplineSet
Validated: 41
EndChar

StartChar: FL0178h
Encoding: 376 376 124
Width: 377
Flags: W
LayerCount: 2
Fore
SplineSet
14 574 m 1,0,1
 17 574 17 574 25.5 575.5 c 128,-1,2
 34 577 34 577 43 578.5 c 128,-1,3
 52 580 52 580 60.5 581.5 c 128,-1,4
 69 583 69 583 73 583 c 2,5,-1
 85 583 l 2,6,7
 92 583 92 583 98.5 582 c 128,-1,8
 105 581 105 581 108 574 c 1,9,-1
 154 407 l 1,10,-1
 166 399 l 1,11,12
 167 401 167 401 169 407 c 128,-1,13
 171 413 171 413 173 420 c 128,-1,14
 175 427 175 427 176.5 433 c 128,-1,15
 178 439 178 439 178 441 c 0,16,17
 180 450 180 450 185 475 c 128,-1,18
 190 500 190 500 195.5 528 c 128,-1,19
 201 556 201 556 206 581 c 128,-1,20
 211 606 211 606 213 615 c 1,21,-1
 227 615 l 1,22,-1
 330 615 l 1,23,-1
 208 236 l 1,24,-1
 204 -2 l 1,25,-1
 124 2 l 1,26,-1
 124 222 l 1,27,-1
 14 574 l 1,0,1
37 753 m 1,28,-1
 132 753 l 1,29,-1
 129 669 l 1,30,-1
 35 671 l 1,31,-1
 37 753 l 1,28,-1
198 774 m 1,32,-1
 293 774 l 1,33,-1
 290 690 l 1,34,-1
 196 692 l 1,35,-1
 198 774 l 1,32,-1
EndSplineSet
Validated: 1
EndChar

StartChar: FL00A1h
Encoding: 161 161 125
Width: 201
Flags: W
LayerCount: 2
Fore
SplineSet
137 332 m 2,0,-1
 137 350 l 2,1,2
 137 361 137 361 136.5 372 c 128,-1,3
 136 383 136 383 136 391 c 2,4,-1
 136 400 l 1,5,-1
 125 426 l 1,6,-1
 54 426 l 1,7,8
 50 376 50 376 45 322 c 128,-1,9
 40 268 40 268 36 213 c 128,-1,10
 32 158 32 158 29.5 103 c 128,-1,11
 27 48 27 48 27 -3 c 1,12,-1
 125 -3 l 1,13,14
 128 45 128 45 130 86 c 128,-1,15
 132 127 132 127 133.5 167 c 128,-1,16
 135 207 135 207 136 247 c 128,-1,17
 137 287 137 287 137 332 c 2,0,-1
130 512 m 1,18,-1
 132 594 l 1,19,-1
 38 596 l 1,20,-1
 35 512 l 1,21,-1
 130 512 l 1,18,-1
EndSplineSet
Validated: 9
EndChar

StartChar: FL00A2h
Encoding: 162 162 126
Width: 292
Flags: W
LayerCount: 2
Fore
SplineSet
18 313 m 0,0,1
 18 278 18 278 23 242 c 128,-1,2
 28 206 28 206 39 173 c 128,-1,3
 50 140 50 140 69 112.5 c 128,-1,4
 88 85 88 85 117 68 c 1,5,6
 117 56 117 56 117.5 45 c 128,-1,7
 118 34 118 34 118 26 c 2,8,-1
 118 11 l 1,9,-1
 129 -29 l 1,10,-1
 150 -25 l 1,11,12
 151 -5 151 -5 152 14 c 128,-1,13
 153 33 153 33 154 52 c 1,14,15
 177 47 177 47 200 47 c 0,16,17
 206 47 206 47 217 47.5 c 128,-1,18
 228 48 228 48 229 48 c 2,19,-1
 239 58 l 1,20,-1
 239 142 l 1,21,22
 193 142 193 142 159 156 c 1,23,24
 163 235 163 235 165.5 313 c 128,-1,25
 168 391 168 391 170 474 c 1,26,27
 181 469 181 469 186 462.5 c 128,-1,28
 191 456 191 456 202 454 c 1,29,-1
 244 494 l 1,30,31
 242 497 242 497 236.5 504.5 c 128,-1,32
 231 512 231 512 221 524 c 0,33,34
 204 545 204 545 171 548 c 1,35,-1
 171 591 l 1,36,-1
 123 587 l 1,37,38
 122 575 122 575 122 565 c 0,39,40
 122 556 122 556 121 545 c 1,41,42
 86 537 86 537 65.5 512 c 128,-1,43
 45 487 45 487 34.5 453.5 c 128,-1,44
 24 420 24 420 21 383 c 128,-1,45
 18 346 18 346 18 313 c 0,0,1
78 318 m 0,46,47
 78 331 78 331 79 352 c 128,-1,48
 80 373 80 373 84.5 395 c 128,-1,49
 89 417 89 417 97 437 c 128,-1,50
 105 457 105 457 119 468 c 1,51,52
 117 394 117 394 117 327 c 0,53,54
 117 261 117 261 117 185 c 1,55,56
 96 208 96 208 87 241.5 c 128,-1,57
 78 275 78 275 78 318 c 0,46,47
EndSplineSet
Validated: 9
EndChar

StartChar: FL00A3h
Encoding: 163 163 127
Width: 388
Flags: W
LayerCount: 2
Fore
SplineSet
14 341 m 1,0,-1
 10 259 l 1,1,-1
 83 259 l 1,2,-1
 81 176 l 2,3,4
 81 169 81 169 80.5 152.5 c 128,-1,5
 80 136 80 136 79.5 116 c 128,-1,6
 79 96 79 96 78.5 74.5 c 128,-1,7
 78 53 78 53 78 36 c 2,8,-1
 78 1 l 1,9,-1
 280 1 l 1,10,-1
 291 83 l 1,11,-1
 163 83 l 1,12,-1
 163 259 l 1,13,-1
 327 259 l 1,14,-1
 327 341 l 1,15,-1
 163 341 l 1,16,-1
 163 584 l 1,17,18
 134 584 134 584 120 582 c 128,-1,19
 106 580 106 580 98 577 c 1,20,21
 90 572 90 572 89 568 c 0,22,23
 88 567 88 567 88 485 c 1,24,-1
 85 341 l 1,25,-1
 14 341 l 1,0,-1
EndSplineSet
Validated: 9
EndChar

StartChar: FL00A4h
Encoding: 164 164 128
Width: 360
Flags: W
LayerCount: 2
Fore
SplineSet
105 338 m 0,0,1
 105 347 105 347 111.5 366 c 128,-1,2
 118 385 118 385 128 404.5 c 128,-1,3
 138 424 138 424 149.5 439 c 128,-1,4
 161 454 161 454 171 454 c 256,5,6
 181 454 181 454 190 445 c 128,-1,7
 199 436 199 436 205 424 c 128,-1,8
 211 412 211 412 214.5 399.5 c 128,-1,9
 218 387 218 387 218 380 c 0,10,11
 218 367 218 367 215 349.5 c 128,-1,12
 212 332 212 332 202 322 c 0,13,14
 193 313 193 313 180 305 c 128,-1,15
 167 297 167 297 150 297 c 0,16,17
 123 297 123 297 114 307 c 128,-1,18
 105 317 105 317 105 338 c 0,0,1
292 324 m 1,19,20
 325 409 325 409 325 434 c 0,21,22
 325 457 325 457 310 477 c 128,-1,23
 295 497 295 497 272.5 512 c 128,-1,24
 250 527 250 527 222.5 535.5 c 128,-1,25
 195 544 195 544 171 544 c 0,26,27
 141 544 141 544 111.5 518 c 128,-1,28
 82 492 82 492 58 457 c 128,-1,29
 34 422 34 422 19.5 385.5 c 128,-1,30
 5 349 5 349 5 327 c 256,31,32
 5 305 5 305 13 284 c 128,-1,33
 21 263 21 263 37 247 c 128,-1,34
 53 231 53 231 75 221 c 128,-1,35
 97 211 97 211 126 211 c 0,36,37
 160 211 160 211 186 221 c 128,-1,38
 212 231 212 231 235 248 c 0,39,40
 256 264 256 264 292 324 c 1,19,20
EndSplineSet
Validated: 9
EndChar

StartChar: FL00A5h
Encoding: 165 165 129
Width: 377
Flags: W
LayerCount: 2
Fore
SplineSet
17 325 m 1,0,-1
 13 243 l 1,1,-1
 117 243 l 1,2,-1
 124 222 l 1,3,-1
 124 190 l 1,4,-1
 18 190 l 1,5,-1
 14 108 l 1,6,-1
 124 108 l 1,7,-1
 124 2 l 1,8,-1
 204 -2 l 1,9,-1
 206 108 l 1,10,-1
 331 108 l 1,11,-1
 331 190 l 1,12,-1
 207 190 l 1,13,-1
 208 236 l 1,14,-1
 210 243 l 1,15,-1
 330 243 l 1,16,-1
 330 325 l 1,17,-1
 237 325 l 1,18,-1
 330 615 l 1,19,-1
 213 615 l 1,20,21
 211 606 211 606 206 581 c 128,-1,22
 201 556 201 556 195.5 528 c 128,-1,23
 190 500 190 500 185 475 c 128,-1,24
 180 450 180 450 178 441 c 0,25,26
 178 439 178 439 176.5 433 c 128,-1,27
 175 427 175 427 173 420 c 128,-1,28
 171 413 171 413 169 407 c 128,-1,29
 167 401 167 401 166 399 c 1,30,-1
 154 407 l 1,31,-1
 108 574 l 1,32,33
 105 581 105 581 98.5 582 c 128,-1,34
 92 583 92 583 85 583 c 2,35,-1
 73 583 l 2,36,37
 69 583 69 583 60.5 581.5 c 128,-1,38
 52 580 52 580 43 578.5 c 128,-1,39
 34 577 34 577 25.5 575.5 c 128,-1,40
 17 574 17 574 14 574 c 1,41,-1
 92 325 l 1,42,-1
 17 325 l 1,0,-1
EndSplineSet
Validated: 9
EndChar

StartChar: FL00A6h
Encoding: 166 166 130
Width: 205
Flags: W
LayerCount: 2
Fore
SplineSet
31 80 m 2,0,1
 31 151 31 151 31.5 215 c 128,-1,2
 32 279 32 279 33.5 342.5 c 128,-1,3
 35 406 35 406 37.5 472 c 128,-1,4
 40 538 40 538 43 614 c 1,5,-1
 141 614 l 1,6,7
 141 532 141 532 138.5 444.5 c 128,-1,8
 136 357 136 357 132 269 c 128,-1,9
 128 181 128 181 123 95.5 c 128,-1,10
 118 10 118 10 114 -68 c 1,11,-1
 43 -68 l 1,12,-1
 32 -28 l 1,13,-1
 32 -13 l 2,14,15
 32 -1 32 -1 31.5 17 c 128,-1,16
 31 35 31 35 31 51 c 2,17,-1
 31 80 l 2,0,1
EndSplineSet
Validated: 1
EndChar

StartChar: FL00A7h
Encoding: 167 167 131
Width: 348
Flags: W
LayerCount: 2
Fore
SplineSet
36 229 m 1,0,1
 45 217 45 217 57.5 205.5 c 128,-1,2
 70 194 70 194 84.5 184 c 128,-1,3
 99 174 99 174 114.5 168 c 128,-1,4
 130 162 130 162 146 162 c 0,5,6
 154 162 154 162 161 162 c 256,7,8
 168 162 168 162 176 164 c 1,9,10
 177 160 177 160 177 154 c 0,11,12
 177 120 177 120 159 101.5 c 128,-1,13
 141 83 141 83 106 83 c 0,14,15
 84 83 84 83 64 89.5 c 128,-1,16
 44 96 44 96 23 96 c 2,17,-1
 12 96 l 1,18,19
 9 36 9 36 34.5 12.5 c 128,-1,20
 60 -11 60 -11 117 -11 c 0,21,22
 151 -11 151 -11 181 -1.5 c 128,-1,23
 211 8 211 8 233.5 26.5 c 128,-1,24
 256 45 256 45 269 72.5 c 128,-1,25
 282 100 282 100 282 137 c 0,26,27
 282 178 282 178 263 216 c 1,28,29
 272 232 272 232 272 256 c 0,30,31
 272 283 272 283 266.5 310 c 128,-1,32
 261 337 261 337 249 358.5 c 128,-1,33
 237 380 237 380 217.5 393 c 128,-1,34
 198 406 198 406 171 406 c 0,35,36
 170 406 170 406 159.5 407 c 128,-1,37
 149 408 149 408 137 408.5 c 128,-1,38
 125 409 125 409 115 410 c 128,-1,39
 105 411 105 411 104 411 c 1,40,-1
 104 424 l 2,41,42
 104 449 104 449 116.5 464.5 c 128,-1,43
 129 480 129 480 148 488.5 c 128,-1,44
 167 497 167 497 190 500.5 c 128,-1,45
 213 504 213 504 234 505 c 1,46,47
 235 508 235 508 237 516.5 c 128,-1,48
 239 525 239 525 241 534.5 c 128,-1,49
 243 544 243 544 244.5 552.5 c 128,-1,50
 246 561 246 561 246 564 c 0,51,52
 246 565 246 565 246.5 570 c 128,-1,53
 247 575 247 575 247 578 c 0,54,55
 247 588 247 588 239.5 593 c 128,-1,56
 232 598 232 598 221.5 599.5 c 128,-1,57
 211 601 211 601 199.5 600.5 c 128,-1,58
 188 600 188 600 181 600 c 0,59,60
 147 600 147 600 116.5 589 c 128,-1,61
 86 578 86 578 62.5 558 c 128,-1,62
 39 538 39 538 25 509 c 128,-1,63
 11 480 11 480 11 443 c 0,64,65
 11 414 11 414 19 391 c 128,-1,66
 27 368 27 368 41 348 c 1,67,68
 36 329 36 329 35.5 310 c 128,-1,69
 35 291 35 291 35 274 c 0,70,71
 35 272 35 272 35 265 c 0,72,73
 35 259 35 259 35.5 251.5 c 128,-1,74
 36 244 36 244 36 237 c 0,75,76
 36 231 36 231 36 229 c 1,0,1
EndSplineSet
Validated: 41
EndChar

StartChar: FL00A8h
Encoding: 168 168 132
Width: 337
Flags: W
LayerCount: 2
Fore
SplineSet
12 689 m 1,0,-1
 10 607 l 1,1,-1
 104 605 l 1,2,-1
 107 689 l 1,3,-1
 12 689 l 1,0,-1
172 685 m 1,4,-1
 170 603 l 1,5,-1
 264 601 l 1,6,-1
 267 685 l 1,7,-1
 172 685 l 1,4,-1
EndSplineSet
Validated: 9
EndChar

StartChar: FL00A9h
Encoding: 169 169 133
Width: 700
Flags: W
LayerCount: 2
Fore
SplineSet
20 320 m 1,0,-1
 10 330 l 1,1,-1
 100 440 l 1,2,3
 122 447 122 447 139.5 462 c 128,-1,4
 157 477 157 477 173 493.5 c 128,-1,5
 189 510 189 510 205 525.5 c 128,-1,6
 221 541 221 541 240 550 c 0,7,8
 243 551 243 551 256 553.5 c 128,-1,9
 269 556 269 556 284.5 559.5 c 128,-1,10
 300 563 300 563 313.5 566 c 128,-1,11
 327 569 327 569 330 570 c 0,12,13
 332 570 332 570 339.5 572.5 c 128,-1,14
 347 575 347 575 355 578.5 c 128,-1,15
 363 582 363 582 370.5 585.5 c 128,-1,16
 378 589 378 589 380 590 c 0,17,18
 386 592 386 592 397.5 596 c 128,-1,19
 409 600 409 600 410 600 c 0,20,21
 458 600 458 600 508 585.5 c 128,-1,22
 558 571 558 571 598.5 543 c 128,-1,23
 639 515 639 515 665 473 c 128,-1,24
 691 431 691 431 691 376 c 0,25,26
 691 350 691 350 689 321 c 128,-1,27
 687 292 687 292 670 270 c 0,28,29
 644 235 644 235 605 195 c 128,-1,30
 566 155 566 155 520 120.5 c 128,-1,31
 474 86 474 86 425 63 c 128,-1,32
 376 40 376 40 330 40 c 0,33,34
 313 40 313 40 285.5 45.5 c 128,-1,35
 258 51 258 51 225.5 61.5 c 128,-1,36
 193 72 193 72 159.5 86.5 c 128,-1,37
 126 101 126 101 98.5 118.5 c 128,-1,38
 71 136 71 136 52 156.5 c 128,-1,39
 33 177 33 177 30 200 c 0,40,41
 29 207 29 207 27 224 c 128,-1,42
 25 241 25 241 23.5 260 c 128,-1,43
 22 279 22 279 21 296 c 128,-1,44
 20 313 20 313 20 320 c 1,0,-1
92 249 m 1,45,46
 92 215 92 215 105.5 192 c 128,-1,47
 119 169 119 169 141.5 154.5 c 128,-1,48
 164 140 164 140 192.5 134 c 128,-1,49
 221 128 221 128 250 128 c 0,50,51
 304 128 304 128 358.5 148.5 c 128,-1,52
 413 169 413 169 456 204 c 1,53,54
 501 239 501 239 531 287 c 128,-1,55
 561 335 561 335 561 396 c 0,56,57
 561 408 561 408 557 425 c 1,58,59
 554 447 554 447 554 455 c 1,60,61
 533 485 533 485 501 506 c 128,-1,62
 469 527 469 527 431 527 c 1,63,64
 408 528 408 528 374 515.5 c 128,-1,65
 340 503 340 503 302 481.5 c 128,-1,66
 264 460 264 460 226 431.5 c 128,-1,67
 188 403 188 403 158 372 c 128,-1,68
 128 341 128 341 109.5 309 c 128,-1,69
 91 277 91 277 92 249 c 1,45,46
191 312 m 1,70,71
 196 314 196 314 202.5 321 c 128,-1,72
 209 328 209 328 216 336.5 c 128,-1,73
 223 345 223 345 229.5 353 c 128,-1,74
 236 361 236 361 241 365 c 0,75,76
 281 394 281 394 329.5 416.5 c 128,-1,77
 378 439 378 439 439 439 c 0,78,79
 449 439 449 439 457.5 434 c 128,-1,80
 466 429 466 429 466 421 c 0,81,82
 466 420 466 420 459.5 418.5 c 128,-1,83
 453 417 453 417 428 410 c 0,84,85
 416 407 416 407 407 404.5 c 128,-1,86
 398 402 398 402 391 400 c 0,87,88
 378 396 378 396 368 393 c 128,-1,89
 358 390 358 390 353 387 c 0,90,91
 343 380 343 380 328.5 369.5 c 128,-1,92
 314 359 314 359 301 346.5 c 128,-1,93
 288 334 288 334 279.5 320.5 c 128,-1,94
 271 307 271 307 273 295 c 0,95,96
 275 281 275 281 285 276.5 c 128,-1,97
 295 272 295 272 312 272 c 0,98,99
 319 272 319 272 329.5 274.5 c 128,-1,100
 340 277 340 277 350.5 280 c 128,-1,101
 361 283 361 283 370 286.5 c 128,-1,102
 379 290 379 290 385 293 c 0,103,104
 398 298 398 298 413.5 306.5 c 128,-1,105
 429 315 429 315 441 321 c 1,106,107
 441 320 441 320 443.5 318 c 128,-1,108
 446 316 446 316 447 316 c 0,109,110
 460 316 460 316 470.5 325.5 c 128,-1,111
 481 335 481 335 495 335 c 1,112,113
 495 323 495 323 488.5 312.5 c 128,-1,114
 482 302 482 302 471.5 292.5 c 128,-1,115
 461 283 461 283 448 275 c 128,-1,116
 435 267 435 267 422 260 c 1,117,-1
 410 255 l 1,118,119
 405 254 405 254 398 251 c 128,-1,120
 391 248 391 248 390 247 c 1,121,122
 390 250 390 250 388 240 c 1,123,124
 388 233 388 233 381 233 c 2,125,-1
 375 233 l 2,126,127
 372 233 372 233 369.5 233.5 c 128,-1,128
 367 234 367 234 366 234 c 0,129,130
 363 234 363 234 353.5 231.5 c 128,-1,131
 344 229 344 229 341 229 c 2,132,-1
 335 229 l 2,133,134
 332 229 332 229 326 228.5 c 128,-1,135
 320 228 320 228 313 228 c 2,136,-1
 304 228 l 1,137,-1
 296 228 l 2,138,139
 291 228 291 228 285 228.5 c 128,-1,140
 279 229 279 229 273 229 c 2,141,-1
 267 229 l 1,142,143
 266 230 266 230 263.5 231.5 c 128,-1,144
 261 233 261 233 260 234 c 0,145,146
 240 242 240 242 228 249.5 c 128,-1,147
 216 257 216 257 209 265.5 c 128,-1,148
 202 274 202 274 198.5 285 c 128,-1,149
 195 296 195 296 191 312 c 1,70,71
EndSplineSet
Validated: 33
EndChar

StartChar: FL00AAh
Encoding: 170 170 134
Width: 288
Flags: W
LayerCount: 2
Fore
SplineSet
160 323 m 1,0,1
 161 320 161 320 162.5 312 c 128,-1,2
 164 304 164 304 165.5 295.5 c 128,-1,3
 167 287 167 287 168.5 279 c 128,-1,4
 170 271 170 271 171 268 c 128,-1,5
 172 265 172 265 174 261 c 128,-1,6
 176 257 176 257 177 257 c 2,7,-1
 226 257 l 1,8,-1
 166 515 l 2,9,10
 166 517 166 517 165.5 521.5 c 128,-1,11
 165 526 165 526 165 528 c 0,12,13
 165 533 165 533 167 540.5 c 128,-1,14
 169 548 169 548 183 543 c 1,15,-1
 183 587 l 1,16,-1
 103 587 l 1,17,-1
 3 262 l 1,18,-1
 51 262 l 1,19,-1
 56 268 l 1,20,21
 57 271 57 271 59 279 c 128,-1,22
 61 287 61 287 64 295.5 c 128,-1,23
 67 304 67 304 69 312 c 128,-1,24
 71 320 71 320 72 323 c 0,25,26
 74 326 74 326 75.5 330 c 128,-1,27
 77 334 77 334 78 334 c 2,28,-1
 155 328 l 1,29,-1
 160 323 l 1,0,1
88 384 m 1,30,-1
 117 499 l 1,31,-1
 122 505 l 1,32,-1
 128 494 l 2,33,34
 128 493 128 493 130 482.5 c 128,-1,35
 132 472 132 472 134.5 457.5 c 128,-1,36
 137 443 137 443 139.5 428.5 c 128,-1,37
 142 414 142 414 144 405 c 2,38,39
 144 405 144 405 144.5 402 c 128,-1,40
 145 399 145 399 145 397 c 256,41,42
 145 395 145 395 144 389.5 c 128,-1,43
 143 384 143 384 138 384 c 2,44,-1
 88 384 l 1,30,-1
EndSplineSet
Validated: 9
EndChar

StartChar: FL00ABh
Encoding: 171 171 135
Width: 537
Flags: W
LayerCount: 2
Fore
SplineSet
452 20 m 1,0,-1
 338 296 l 1,1,-1
 461 592 l 1,2,-1
 344 592 l 1,3,4
 337 570 337 570 328 539 c 128,-1,5
 319 508 319 508 309 476.5 c 128,-1,6
 299 445 299 445 289 416.5 c 128,-1,7
 279 388 279 388 270 372 c 1,8,-1
 236 294 l 1,9,-1
 332 92 l 2,10,11
 339 76 339 76 343 66 c 128,-1,12
 347 56 347 56 350 49 c 128,-1,13
 353 42 353 42 355.5 37.5 c 128,-1,14
 358 33 358 33 361 29 c 0,15,16
 374 12 374 12 381 12 c 2,17,-1
 393 12 l 2,18,19
 397 12 397 12 405.5 13 c 128,-1,20
 414 14 414 14 423 15.5 c 128,-1,21
 432 17 432 17 440.5 18.5 c 128,-1,22
 449 20 449 20 452 20 c 1,0,-1
221 12 m 1,23,-1
 107 288 l 1,24,-1
 230 584 l 1,25,-1
 113 584 l 1,26,27
 106 562 106 562 97 531 c 128,-1,28
 88 500 88 500 78 468.5 c 128,-1,29
 68 437 68 437 58 408.5 c 128,-1,30
 48 380 48 380 39 364 c 1,31,-1
 5 286 l 1,32,-1
 101 84 l 2,33,34
 108 68 108 68 112 58 c 128,-1,35
 116 48 116 48 119 41 c 128,-1,36
 122 34 122 34 124.5 29.5 c 128,-1,37
 127 25 127 25 130 21 c 0,38,39
 143 4 143 4 150 4 c 2,40,-1
 162 4 l 2,41,42
 166 4 166 4 174.5 5 c 128,-1,43
 183 6 183 6 192 7.5 c 128,-1,44
 201 9 201 9 209.5 10.5 c 128,-1,45
 218 12 218 12 221 12 c 1,23,-1
EndSplineSet
Validated: 9
EndChar

StartChar: FL00ACh
Encoding: 172 172 136
Width: 370
Flags: W
LayerCount: 2
Fore
SplineSet
10 288 m 1,0,-1
 10 208 l 1,1,-1
 80 205 l 1,2,-1
 231 206 l 1,3,-1
 231 85 l 1,4,-1
 303 89 l 1,5,-1
 303 288 l 1,6,-1
 231 290 l 1,7,-1
 80 290 l 1,8,-1
 10 288 l 1,0,-1
EndSplineSet
Validated: 9
EndChar

StartChar: FL00ADh
Encoding: 173 173 137
Width: 238
Flags: W
LayerCount: 2
Fore
SplineSet
10 288 m 1,0,-1
 80 290 l 1,1,-1
 170 290 l 1,2,-1
 170 205 l 1,3,-1
 80 205 l 1,4,-1
 10 208 l 1,5,-1
 10 288 l 1,0,-1
EndSplineSet
Validated: 1
EndChar

StartChar: FL00AEh
Encoding: 174 174 138
Width: 700
Flags: W
LayerCount: 2
Fore
SplineSet
20 320 m 1,0,-1
 10 330 l 1,1,-1
 100 440 l 1,2,3
 122 447 122 447 139.5 462 c 128,-1,4
 157 477 157 477 173 493.5 c 128,-1,5
 189 510 189 510 205 525.5 c 128,-1,6
 221 541 221 541 240 550 c 0,7,8
 243 551 243 551 256 553.5 c 128,-1,9
 269 556 269 556 284.5 559.5 c 128,-1,10
 300 563 300 563 313.5 566 c 128,-1,11
 327 569 327 569 330 570 c 0,12,13
 332 570 332 570 339.5 572.5 c 128,-1,14
 347 575 347 575 355 578.5 c 128,-1,15
 363 582 363 582 370.5 585.5 c 128,-1,16
 378 589 378 589 380 590 c 0,17,18
 386 592 386 592 397.5 596 c 128,-1,19
 409 600 409 600 410 600 c 0,20,21
 458 600 458 600 508 585.5 c 128,-1,22
 558 571 558 571 598.5 543 c 128,-1,23
 639 515 639 515 665 473 c 128,-1,24
 691 431 691 431 691 376 c 0,25,26
 691 350 691 350 689 321 c 128,-1,27
 687 292 687 292 670 270 c 0,28,29
 644 235 644 235 605 195 c 128,-1,30
 566 155 566 155 520 120.5 c 128,-1,31
 474 86 474 86 425 63 c 128,-1,32
 376 40 376 40 330 40 c 0,33,34
 313 40 313 40 285.5 45.5 c 128,-1,35
 258 51 258 51 225.5 61.5 c 128,-1,36
 193 72 193 72 159.5 86.5 c 128,-1,37
 126 101 126 101 98.5 118.5 c 128,-1,38
 71 136 71 136 52 156.5 c 128,-1,39
 33 177 33 177 30 200 c 0,40,41
 29 207 29 207 27 224 c 128,-1,42
 25 241 25 241 23.5 260 c 128,-1,43
 22 279 22 279 21 296 c 128,-1,44
 20 313 20 313 20 320 c 1,0,-1
92 249 m 1,45,46
 92 215 92 215 105.5 192 c 128,-1,47
 119 169 119 169 141.5 154.5 c 128,-1,48
 164 140 164 140 192.5 134 c 128,-1,49
 221 128 221 128 250 128 c 0,50,51
 304 128 304 128 358.5 148.5 c 128,-1,52
 413 169 413 169 456 204 c 1,53,54
 501 239 501 239 531 287 c 128,-1,55
 561 335 561 335 561 396 c 0,56,57
 561 408 561 408 557 425 c 1,58,59
 554 447 554 447 554 455 c 1,60,61
 533 485 533 485 501 506 c 128,-1,62
 469 527 469 527 431 527 c 1,63,64
 408 528 408 528 374 515.5 c 128,-1,65
 340 503 340 503 302 481.5 c 128,-1,66
 264 460 264 460 226 431.5 c 128,-1,67
 188 403 188 403 158 372 c 128,-1,68
 128 341 128 341 109.5 309 c 128,-1,69
 91 277 91 277 92 249 c 1,45,46
377 413 m 2,70,71
 353 413 353 413 341 404 c 0,72,73
 330 396 330 396 301 335 c 1,74,75
 291 309 291 309 285 292.5 c 128,-1,76
 279 276 279 276 275 269 c 0,77,78
 269 258 269 258 265.5 248.5 c 128,-1,79
 262 239 262 239 257 226 c 1,80,81
 252 209 252 209 239 197 c 128,-1,82
 226 185 226 185 196 185 c 0,83,84
 185 185 185 185 173.5 191 c 128,-1,85
 162 197 162 197 162 208 c 0,86,87
 162 217 162 217 167.5 229.5 c 128,-1,88
 173 242 173 242 180 255.5 c 128,-1,89
 187 269 187 269 194.5 281.5 c 128,-1,90
 202 294 202 294 206 303 c 0,91,92
 207 304 207 304 208.5 308 c 128,-1,93
 210 312 210 312 211.5 316.5 c 128,-1,94
 213 321 213 321 214.5 324 c 128,-1,95
 216 327 216 327 216 327 c 1,96,-1
 216 331 l 1,97,-1
 216 341 l 1,98,-1
 216 344 l 1,99,-1
 231 357 l 2,100,101
 233 360 233 360 240 370 c 128,-1,102
 247 380 247 380 255.5 391 c 128,-1,103
 264 402 264 402 271.5 412 c 128,-1,104
 279 422 279 422 281 425 c 0,105,106
 284 428 284 428 299.5 431.5 c 128,-1,107
 315 435 315 435 333.5 438 c 128,-1,108
 352 441 352 441 369 443 c 128,-1,109
 386 445 386 445 392 445 c 0,110,111
 419 445 419 445 441.5 440.5 c 128,-1,112
 464 436 464 436 481 416 c 1,113,-1
 481 399 l 1,114,115
 477 364 477 364 440.5 350.5 c 128,-1,116
 404 337 404 337 350 335 c 1,117,-1
 361 330 l 1,118,119
 361 328 361 328 369.5 316 c 128,-1,120
 378 304 378 304 389 290 c 128,-1,121
 400 276 400 276 410.5 262.5 c 128,-1,122
 421 249 421 249 426 243 c 0,123,124
 431 238 431 238 441.5 235 c 128,-1,125
 452 232 452 232 452 227 c 0,126,127
 452 216 452 216 446 209.5 c 128,-1,128
 440 203 440 203 431.5 199.5 c 128,-1,129
 423 196 423 196 413 194.5 c 128,-1,130
 403 193 403 193 394 193 c 0,131,132
 381 193 381 193 367.5 204.5 c 128,-1,133
 354 216 354 216 340 231 c 0,134,135
 333 239 333 239 327 246 c 128,-1,136
 321 253 321 253 314 261 c 0,137,138
 301 275 301 275 318 326 c 0,139,140
 335 375 335 375 348 376 c 0,141,142
 353 377 353 377 362 377 c 0,143,144
 366 377 366 377 370 377 c 256,145,146
 374 377 374 377 378 378 c 0,147,148
 396 380 396 380 403.5 387.5 c 128,-1,149
 411 395 411 395 411 404 c 0,150,151
 411 408 411 408 402 410.5 c 128,-1,152
 393 413 393 413 383 413 c 2,153,-1
 377 413 l 2,70,71
EndSplineSet
Validated: 33
EndChar

StartChar: FL00AFh
Encoding: 175 175 139
Width: 269
Flags: W
LayerCount: 2
Fore
SplineSet
-21 733 m 1,0,-1
 127 733 l 1,1,-1
 292 733 l 1,2,-1
 292 651 l 1,3,-1
 -25 651 l 1,4,-1
 -21 733 l 1,0,-1
EndSplineSet
Validated: 1
EndChar

StartChar: FL00B0h
Encoding: 176 176 140
Width: 240
Flags: W
LayerCount: 2
Fore
SplineSet
169 436 m 0,0,1
 169 407 169 407 163.5 377.5 c 128,-1,2
 158 348 158 348 145 323 c 0,3,4
 138 310 138 310 132.5 300.5 c 128,-1,5
 127 291 127 291 123 286 c 0,6,7
 116 276 116 276 90 267 c 1,8,9
 64 265 64 265 47.5 280 c 128,-1,10
 31 295 31 295 22 318 c 128,-1,11
 13 341 13 341 10 368 c 128,-1,12
 7 395 7 395 8 417 c 1,13,14
 8 447 8 447 13.5 476.5 c 128,-1,15
 19 506 19 506 33 532 c 0,16,17
 46 557 46 557 55 569 c 128,-1,18
 64 581 64 581 81 588 c 1,19,20
 111 588 111 588 128.5 573 c 128,-1,21
 146 558 146 558 155 535.5 c 128,-1,22
 164 513 164 513 166.5 486 c 128,-1,23
 169 459 169 459 169 436 c 0,0,1
102 530 m 1,24,25
 84 525 84 525 70 504 c 1,26,27
 46 463 46 463 46 414 c 0,28,29
 46 404 46 404 47 386.5 c 128,-1,30
 48 369 48 369 53 352 c 128,-1,31
 58 335 58 335 64 331.5 c 128,-1,32
 70 328 70 328 78 330 c 0,33,34
 88 332 88 332 94 337 c 128,-1,35
 100 342 100 342 110 357 c 0,36,37
 130 386 130 386 130 440 c 0,38,39
 130 450 130 450 129 467 c 128,-1,40
 128 484 128 484 123 502 c 0,41,42
 120 510 120 510 119 515.5 c 128,-1,43
 118 521 118 521 117 523 c 0,44,45
 117 525 117 525 102 530 c 1,24,25
EndSplineSet
Validated: 33
EndChar

StartChar: FL00B1h
Encoding: 177 177 141
Width: 286
Flags: W
LayerCount: 2
Fore
SplineSet
9 309 m 1,0,-1
 9 244 l 1,1,-1
 73 242 l 1,2,-1
 73 154 l 1,3,-1
 157 158 l 1,4,-1
 157 242 l 1,5,-1
 217 246 l 1,6,-1
 217 311 l 1,7,-1
 158 311 l 1,8,-1
 157 403 l 1,9,-1
 73 403 l 1,10,-1
 73 311 l 1,11,-1
 9 309 l 1,0,-1
23 92 m 1,12,-1
 23 12 l 1,13,-1
 93 9 l 1,14,-1
 218 9 l 1,15,-1
 218 94 l 1,16,-1
 93 94 l 1,17,-1
 23 92 l 1,12,-1
EndSplineSet
Validated: 9
EndChar

StartChar: FL00B2h
Encoding: 178 178 142
Width: 235
Flags: W
LayerCount: 2
Fore
SplineSet
160 263 m 1,0,1
 158 261 158 261 146 258.5 c 128,-1,2
 134 256 134 256 103 256 c 2,3,-1
 12 254 l 1,4,-1
 12 335 l 2,5,6
 12 356 12 356 20.5 374 c 128,-1,7
 29 392 29 392 42.5 408 c 128,-1,8
 56 424 56 424 72 437.5 c 128,-1,9
 88 451 88 451 103 464 c 0,10,11
 109 470 109 470 109.5 475.5 c 128,-1,12
 110 481 110 481 110 489 c 0,13,14
 110 502 110 502 103 510.5 c 128,-1,15
 96 519 96 519 85.5 523.5 c 128,-1,16
 75 528 75 528 62.5 530 c 128,-1,17
 50 532 50 532 38 532 c 1,18,19
 10 536 10 536 23 573 c 1,20,21
 31 577 31 577 35.5 579.5 c 128,-1,22
 40 582 40 582 45 583 c 0,23,24
 47 584 47 584 51 584 c 2,25,-1
 57 584 l 1,26,-1
 68 584 l 2,27,28
 105 584 105 584 133 561 c 128,-1,29
 161 538 161 538 161 499 c 0,30,31
 161 471 161 471 147 452 c 128,-1,32
 133 433 133 433 115.5 416.5 c 128,-1,33
 98 400 98 400 84 383.5 c 128,-1,34
 70 367 70 367 70 344 c 1,35,-1
 72 307 l 1,36,-1
 109 306 l 2,37,38
 120 306 120 306 155 309 c 1,39,-1
 160 263 l 1,0,1
EndSplineSet
Validated: 33
EndChar

StartChar: FL00B3h
Encoding: 179 179 143
Width: 235
Flags: W
LayerCount: 2
Fore
SplineSet
10 571 m 1,0,1
 11 579 11 579 20.5 578.5 c 128,-1,2
 30 578 30 578 32 578 c 2,3,-1
 38 578 l 1,4,-1
 49 578 l 1,5,-1
 59 578 l 1,6,-1
 68 578 l 1,7,-1
 73 578 l 2,8,9
 78 578 78 578 79 579 c 1,10,11
 110 579 110 579 114 577 c 1,12,13
 123 575 123 575 134 567 c 128,-1,14
 145 559 145 559 150 548 c 1,15,16
 154 536 154 536 150 520.5 c 128,-1,17
 146 505 146 505 138 496 c 0,18,19
 130 486 130 486 124 478.5 c 128,-1,20
 118 471 118 471 110 461 c 1,21,-1
 106 455 l 1,22,-1
 106 452 l 1,23,-1
 106 449 l 1,24,25
 130 428 130 428 150 402.5 c 128,-1,26
 170 377 170 377 170 342 c 0,27,28
 170 295 170 295 138.5 272 c 128,-1,29
 107 249 107 249 64 249 c 0,30,31
 51 249 51 249 37.5 249.5 c 128,-1,32
 24 250 24 250 15 250 c 1,33,-1
 15 257 l 1,34,-1
 15 264 l 1,35,-1
 15 278 l 2,36,37
 15 291 15 291 20.5 298.5 c 128,-1,38
 26 306 26 306 41 307 c 1,39,-1
 71 307 l 2,40,41
 84 307 84 307 97.5 311 c 128,-1,42
 111 315 111 315 119 326 c 1,43,44
 119 330 119 330 120 339.5 c 128,-1,45
 121 349 121 349 121 352 c 0,46,47
 121 378 121 378 101 398 c 0,48,49
 96 403 96 403 92 408 c 128,-1,50
 88 413 88 413 83 418 c 0,51,52
 73 429 73 429 39 432 c 1,53,54
 30 441 30 441 39 473 c 1,55,56
 78 480 78 480 89 500 c 0,57,58
 94 510 94 510 96.5 516.5 c 128,-1,59
 99 523 99 523 101 526 c 0,60,61
 105 538 105 538 59 541 c 1,62,63
 42 540 42 540 30.5 539.5 c 128,-1,64
 19 539 19 539 11 539 c 1,65,-1
 10 571 l 1,0,1
EndSplineSet
Validated: 33
EndChar

StartChar: FL00B4h
Encoding: 180 180 144
Width: 174
Flags: W
LayerCount: 2
Fore
SplineSet
56 750 m 1,0,-1
 20 622 l 1,1,-1
 121 674 l 1,2,-1
 140 750 l 1,3,-1
 56 750 l 1,0,-1
EndSplineSet
Validated: 9
EndChar

StartChar: FL00B5h
Encoding: 181 181 145
Width: 364
Flags: W
LayerCount: 2
Fore
SplineSet
23 492 m 1,0,1
 23 448 23 448 22.5 414 c 128,-1,2
 22 380 22 380 21.5 353 c 128,-1,3
 21 326 21 326 20.5 304.5 c 128,-1,4
 20 283 20 283 20 265 c 0,5,6
 20 250 20 250 21 216.5 c 128,-1,7
 22 183 22 183 24.5 140 c 128,-1,8
 27 97 27 97 30.5 50 c 128,-1,9
 34 3 34 3 38.5 -39 c 128,-1,10
 43 -81 43 -81 48.5 -113.5 c 128,-1,11
 54 -146 54 -146 61 -159 c 128,-1,12
 68 -172 68 -172 71.5 -164.5 c 128,-1,13
 75 -157 75 -157 76.5 -138.5 c 128,-1,14
 78 -120 78 -120 78.5 -95.5 c 128,-1,15
 79 -71 79 -71 81.5 -49.5 c 128,-1,16
 84 -28 84 -28 88.5 -14.5 c 128,-1,17
 93 -1 93 -1 102 -5 c 1,18,19
 110 -5 110 -5 131.5 -4.5 c 128,-1,20
 153 -4 153 -4 181 -2.5 c 128,-1,21
 209 -1 209 -1 240 0.5 c 128,-1,22
 271 2 271 2 298 4 c 128,-1,23
 325 6 325 6 344.5 8.5 c 128,-1,24
 364 11 364 11 369 13 c 0,25,26
 374 16 374 16 367.5 18.5 c 128,-1,27
 361 21 361 21 348 24 c 128,-1,28
 335 27 335 27 319 30.5 c 128,-1,29
 303 34 303 34 290 38 c 128,-1,30
 277 42 277 42 268.5 46.5 c 128,-1,31
 260 51 260 51 263 57 c 0,32,33
 271 73 271 73 274.5 106 c 128,-1,34
 278 139 278 139 284 184 c 1,35,-1
 296 488 l 1,36,-1
 212 492 l 1,37,38
 204 160 204 160 194 132 c 128,-1,39
 184 104 184 104 178 100 c 0,40,41
 174 97 174 97 156 92 c 1,42,43
 135 98 135 98 119 129 c 0,44,45
 104 160 104 160 100 194 c 128,-1,46
 96 228 96 228 96 264 c 0,47,48
 96 309 96 309 98 370 c 128,-1,49
 100 431 100 431 100 488 c 1,50,-1
 23 492 l 1,0,1
EndSplineSet
Validated: 9
EndChar

StartChar: FL00B6h
Encoding: 182 182 146
Width: 555
Flags: W
LayerCount: 2
Fore
SplineSet
388 -17 m 1,0,1
 418 -17 418 -17 432.5 -15 c 128,-1,2
 447 -13 447 -13 456 -10 c 1,3,4
 463 -6 463 -6 465 -1 c 0,5,6
 466 0 466 0 466 82 c 1,7,-1
 473 391 l 2,8,9
 473 398 473 398 473.5 414.5 c 128,-1,10
 474 431 474 431 475 451 c 128,-1,11
 476 471 476 471 476.5 492.5 c 128,-1,12
 477 514 477 514 477 531 c 2,13,-1
 477 566 l 1,14,-1
 267 566 l 1,15,16
 259 570 259 570 248.5 571 c 128,-1,17
 238 572 238 572 227 572 c 2,18,-1
 189 571 l 2,19,20
 153 571 153 571 121 561 c 128,-1,21
 89 551 89 551 64.5 530.5 c 128,-1,22
 40 510 40 510 26 479 c 128,-1,23
 12 448 12 448 12 407 c 0,24,25
 12 378 12 378 21 352 c 128,-1,26
 30 326 30 326 45 304 c 0,27,28
 69 268 69 268 98 256 c 0,29,30
 125 245 125 245 186 240 c 1,31,-1
 204 238 l 1,32,-1
 200 12 l 2,33,34
 200 4 200 4 211 1.5 c 128,-1,35
 222 -1 222 -1 232 -1 c 2,36,-1
 242 -1 l 2,37,38
 244 -1 244 -1 250 -1.5 c 128,-1,39
 256 -2 256 -2 262 -1.5 c 128,-1,40
 268 -1 268 -1 273.5 2 c 128,-1,41
 279 5 279 5 280 12 c 1,42,-1
 280 179 l 2,43,44
 280 194 280 194 279.5 230 c 128,-1,45
 279 266 279 266 277.5 310.5 c 128,-1,46
 276 355 276 355 274.5 401.5 c 128,-1,47
 273 448 273 448 272 484 c 1,48,-1
 388 484 l 1,49,-1
 388 -17 l 1,0,1
EndSplineSet
Validated: 9
EndChar

StartChar: FL00B7h
Encoding: 183 183 147
Width: 265
Flags: W
LayerCount: 2
Fore
SplineSet
8 264 m 1,0,1
 22 247 22 247 45 231 c 128,-1,2
 68 215 68 215 92 215 c 0,3,4
 110 215 110 215 127.5 218.5 c 128,-1,5
 145 222 145 222 158.5 230 c 128,-1,6
 172 238 172 238 180.5 251 c 128,-1,7
 189 264 189 264 189 284 c 0,8,9
 189 305 189 305 177.5 325.5 c 128,-1,10
 166 346 166 346 148.5 362 c 128,-1,11
 131 378 131 378 109 388.5 c 128,-1,12
 87 399 87 399 66 399 c 256,13,14
 45 399 45 399 33 388.5 c 128,-1,15
 21 378 21 378 15.5 363 c 128,-1,16
 10 348 10 348 8.5 330 c 128,-1,17
 7 312 7 312 7 298 c 0,18,19
 7 294 7 294 7.5 281 c 128,-1,20
 8 268 8 268 8 264 c 1,0,1
EndSplineSet
Validated: 9
EndChar

StartChar: FL00B8h
Encoding: 184 184 148
Width: 344
Flags: W
LayerCount: 2
Fore
SplineSet
191 17 m 1,0,1
 191 17 191 17 197 14 c 128,-1,2
 203 11 203 11 206.5 8 c 128,-1,3
 210 5 210 5 207.5 3 c 128,-1,4
 205 1 205 1 188 2 c 1,5,-1
 200 -52 l 1,6,7
 176 -165 176 -165 82 -140 c 1,8,-1
 80 -78 l 1,9,10
 140 -74 140 -74 140 -24 c 1,11,-1
 124 26 l 1,12,-1
 191 17 l 1,0,1
EndSplineSet
Validated: 33
EndChar

StartChar: FL00B9h
Encoding: 185 185 149
Width: 161
Flags: W
LayerCount: 2
Fore
SplineSet
75 587 m 1,0,-1
 77 537 l 1,1,-1
 77 318 l 2,2,3
 77 313 77 313 75 303 c 0,4,5
 75 299 75 299 51 298 c 0,6,7
 49 298 49 298 44.5 298.5 c 128,-1,8
 40 299 40 299 32 301 c 1,9,10
 30 309 30 309 30 383 c 0,11,12
 30 402 30 402 30 418 c 0,13,14
 30 435 30 435 30.5 451.5 c 128,-1,15
 31 468 31 468 31 488 c 256,16,17
 31 508 31 508 31 535 c 1,18,-1
 11 536 l 1,19,-1
 6 580 l 1,20,21
 9 589 9 589 17 589 c 2,22,-1
 75 587 l 1,0,-1
EndSplineSet
Validated: 1
EndChar

StartChar: FL00BAh
Encoding: 186 186 150
Width: 255
Flags: W
LayerCount: 2
Fore
SplineSet
169 436 m 0,0,1
 169 407 169 407 163.5 377.5 c 128,-1,2
 158 348 158 348 145 323 c 0,3,4
 138 310 138 310 132.5 300.5 c 128,-1,5
 127 291 127 291 123 286 c 0,6,7
 116 276 116 276 90 267 c 1,8,9
 64 265 64 265 47.5 280 c 128,-1,10
 31 295 31 295 22 318 c 128,-1,11
 13 341 13 341 10 368 c 128,-1,12
 7 395 7 395 8 417 c 1,13,14
 8 447 8 447 13.5 476.5 c 128,-1,15
 19 506 19 506 33 532 c 0,16,17
 46 557 46 557 55 569 c 128,-1,18
 64 581 64 581 81 588 c 1,19,20
 111 588 111 588 128.5 573 c 128,-1,21
 146 558 146 558 155 535.5 c 128,-1,22
 164 513 164 513 166.5 486 c 128,-1,23
 169 459 169 459 169 436 c 0,0,1
102 530 m 1,24,25
 84 525 84 525 70 504 c 1,26,27
 46 463 46 463 46 414 c 0,28,29
 46 404 46 404 47 386.5 c 128,-1,30
 48 369 48 369 53 352 c 128,-1,31
 58 335 58 335 64 331.5 c 128,-1,32
 70 328 70 328 78 330 c 0,33,34
 88 332 88 332 94 337 c 128,-1,35
 100 342 100 342 110 357 c 0,36,37
 130 386 130 386 130 440 c 0,38,39
 130 450 130 450 129 467 c 128,-1,40
 128 484 128 484 123 502 c 0,41,42
 120 510 120 510 119 515.5 c 128,-1,43
 118 521 118 521 117 523 c 0,44,45
 117 525 117 525 102 530 c 1,24,25
EndSplineSet
Validated: 33
EndChar

StartChar: FL00BBh
Encoding: 187 187 151
Width: 537
Flags: W
LayerCount: 2
Fore
SplineSet
14 20 m 1,0,-1
 128 296 l 1,1,-1
 5 592 l 1,2,-1
 122 592 l 1,3,4
 129 570 129 570 138 539 c 128,-1,5
 147 508 147 508 156.5 476.5 c 128,-1,6
 166 445 166 445 176.5 416.5 c 128,-1,7
 187 388 187 388 196 372 c 1,8,-1
 230 294 l 1,9,-1
 134 92 l 2,10,11
 127 76 127 76 123 66 c 128,-1,12
 119 56 119 56 116 49 c 128,-1,13
 113 42 113 42 110.5 37.5 c 128,-1,14
 108 33 108 33 105 29 c 0,15,16
 92 12 92 12 85 12 c 2,17,-1
 73 12 l 2,18,19
 69 12 69 12 60.5 13 c 128,-1,20
 52 14 52 14 43 15.5 c 128,-1,21
 34 17 34 17 25.5 18.5 c 128,-1,22
 17 20 17 20 14 20 c 1,0,-1
245 12 m 1,23,-1
 359 288 l 1,24,-1
 236 584 l 1,25,-1
 353 584 l 1,26,27
 360 562 360 562 369 531 c 128,-1,28
 378 500 378 500 387.5 468.5 c 128,-1,29
 397 437 397 437 407.5 408.5 c 128,-1,30
 418 380 418 380 427 364 c 1,31,-1
 461 286 l 1,32,-1
 365 84 l 2,33,34
 358 68 358 68 354 58 c 128,-1,35
 350 48 350 48 347 41 c 128,-1,36
 344 34 344 34 341.5 29.5 c 128,-1,37
 339 25 339 25 336 21 c 0,38,39
 323 4 323 4 316 4 c 2,40,-1
 304 4 l 2,41,42
 300 4 300 4 291.5 5 c 128,-1,43
 283 6 283 6 274 7.5 c 128,-1,44
 265 9 265 9 256.5 10.5 c 128,-1,45
 248 12 248 12 245 12 c 1,23,-1
EndSplineSet
Validated: 1
EndChar

StartChar: FL00BCh
Encoding: 188 188 152
Width: 406
Flags: W
LayerCount: 2
Fore
SplineSet
178 552 m 1,0,-1
 24 -28 l 1,1,-1
 91 -33 l 1,2,-1
 246 556 l 1,3,-1
 178 552 l 1,0,-1
81 584 m 1,4,-1
 23 586 l 2,5,6
 15 586 15 586 12 577 c 1,7,-1
 17 533 l 1,8,-1
 37 532 l 1,9,-1
 37 485 l 2,10,11
 37 465 37 465 36.5 448.5 c 128,-1,12
 36 432 36 432 36 415 c 2,13,-1
 36 380 l 2,14,15
 36 308 36 308 38 298 c 1,16,17
 46 296 46 296 50.5 295.5 c 128,-1,18
 55 295 55 295 57 295 c 0,19,20
 81 296 81 296 81 300 c 0,21,22
 82 305 82 305 82.5 309 c 128,-1,23
 83 313 83 313 83 315 c 2,24,-1
 83 534 l 1,25,-1
 81 584 l 1,4,-1
198 294 m 0,26,27
 194 215 194 215 195 118 c 1,28,-1
 287 118 l 1,29,-1
 288 -24 l 1,30,-1
 331 -24 l 1,31,32
 332 13 332 13 334 54.5 c 128,-1,33
 336 96 336 96 337.5 138.5 c 128,-1,34
 339 181 339 181 340 223.5 c 128,-1,35
 341 266 341 266 341 305 c 1,36,-1
 285 305 l 1,37,-1
 285 177 l 1,38,-1
 241 172 l 1,39,40
 244 271 244 271 242 277 c 0,41,42
 241 279 241 279 238 288 c 1,43,44
 228 294 228 294 221 295 c 128,-1,45
 214 296 214 296 210 296 c 0,46,47
 209 296 209 296 204 295 c 128,-1,48
 199 294 199 294 198 294 c 0,26,27
EndSplineSet
Validated: 41
EndChar

StartChar: FL00BDh
Encoding: 189 189 153
Width: 409
Flags: W
LayerCount: 2
Fore
SplineSet
176 556 m 1,0,-1
 24 -28 l 1,1,-1
 90 -27 l 1,2,-1
 246 556 l 1,3,-1
 176 556 l 1,0,-1
80 586 m 1,4,-1
 22 588 l 2,5,6
 14 588 14 588 11 579 c 1,7,-1
 16 535 l 1,8,-1
 36 534 l 1,9,-1
 36 487 l 2,10,11
 36 467 36 467 35.5 450.5 c 128,-1,12
 35 434 35 434 35 417 c 2,13,-1
 35 382 l 2,14,15
 35 310 35 310 37 300 c 1,16,17
 45 298 45 298 49.5 297.5 c 128,-1,18
 54 297 54 297 56 297 c 0,19,20
 80 298 80 298 80 302 c 0,21,22
 81 307 81 307 81.5 311 c 128,-1,23
 82 315 82 315 82 317 c 2,24,-1
 82 536 l 1,25,-1
 80 586 l 1,4,-1
347 11 m 1,26,-1
 342 57 l 1,27,28
 307 54 307 54 296 54 c 2,29,-1
 259 55 l 1,30,-1
 257 92 l 1,31,32
 257 115 257 115 271 131.5 c 128,-1,33
 285 148 285 148 302.5 164.5 c 128,-1,34
 320 181 320 181 334 200 c 128,-1,35
 348 219 348 219 348 247 c 0,36,37
 348 286 348 286 320 309 c 128,-1,38
 292 332 292 332 255 332 c 2,39,-1
 244 332 l 1,40,-1
 238 332 l 2,41,42
 233 332 233 332 232 331 c 0,43,44
 227 330 227 330 222.5 327.5 c 128,-1,45
 218 325 218 325 210 321 c 1,46,47
 197 284 197 284 225 280 c 1,48,49
 237 280 237 280 249.5 278 c 128,-1,50
 262 276 262 276 272.5 271.5 c 128,-1,51
 283 267 283 267 290 258.5 c 128,-1,52
 297 250 297 250 297 237 c 0,53,54
 297 229 297 229 296.5 223.5 c 128,-1,55
 296 218 296 218 290 212 c 0,56,57
 275 199 275 199 259 185.5 c 128,-1,58
 243 172 243 172 229.5 156 c 128,-1,59
 216 140 216 140 207.5 122 c 128,-1,60
 199 104 199 104 199 83 c 2,61,-1
 199 2 l 1,62,-1
 290 4 l 2,63,64
 321 4 321 4 333 6.5 c 128,-1,65
 345 9 345 9 347 11 c 1,26,-1
EndSplineSet
Validated: 41
EndChar

StartChar: FL00BEh
Encoding: 190 190 154
Width: 507
Flags: W
LayerCount: 2
Fore
SplineSet
258 551 m 1,0,-1
 328 550 l 1,1,-1
 166 -38 l 1,2,-1
 106 -34 l 1,3,-1
 258 551 l 1,0,-1
8 573 m 1,4,5
 9 581 9 581 18.5 580.5 c 128,-1,6
 28 580 28 580 30 580 c 2,7,-1
 36 580 l 1,8,-1
 47 580 l 1,9,-1
 57 580 l 1,10,-1
 66 580 l 1,11,-1
 71 580 l 2,12,13
 76 580 76 580 77 581 c 1,14,15
 102 581 102 581 112 579 c 0,16,17
 121 577 121 577 132 569 c 128,-1,18
 143 561 143 561 148 550 c 1,19,20
 152 538 152 538 148 522.5 c 128,-1,21
 144 507 144 507 136 498 c 0,22,23
 128 488 128 488 122 480.5 c 128,-1,24
 116 473 116 473 108 463 c 1,25,-1
 104 457 l 1,26,-1
 104 454 l 1,27,-1
 104 451 l 1,28,29
 116 440 116 440 128 432.5 c 128,-1,30
 140 425 140 425 149 416 c 128,-1,31
 158 407 158 407 164 395.5 c 128,-1,32
 170 384 170 384 170 366 c 0,33,34
 170 319 170 319 138.5 296 c 128,-1,35
 107 273 107 273 64 273 c 0,36,37
 51 273 51 273 37.5 273.5 c 128,-1,38
 24 274 24 274 15 274 c 1,39,-1
 15 281 l 1,40,-1
 15 288 l 1,41,-1
 15 302 l 2,42,43
 15 315 15 315 20.5 322.5 c 128,-1,44
 26 330 26 330 41 331 c 1,45,-1
 71 331 l 2,46,47
 84 331 84 331 97.5 335 c 128,-1,48
 111 339 111 339 119 350 c 1,49,50
 119 354 119 354 120 363.5 c 128,-1,51
 121 373 121 373 121 376 c 0,52,53
 121 402 121 402 101 422 c 0,54,55
 96 427 96 427 92 432 c 128,-1,56
 88 437 88 437 83 442 c 0,57,58
 72 453 72 453 39 456 c 1,59,60
 34 461 34 461 34 460 c 1,61,62
 34 461 34 461 34.5 464 c 128,-1,63
 35 467 35 467 37 475 c 1,64,65
 77 483 77 483 87 502 c 0,66,67
 92 512 92 512 94.5 518.5 c 128,-1,68
 97 525 97 525 99 528 c 0,69,70
 103 540 103 540 57 543 c 1,71,72
 40 542 40 542 28.5 541.5 c 128,-1,73
 17 541 17 541 9 541 c 1,74,-1
 8 573 l 1,4,5
286 287 m 0,75,76
 287 287 287 287 292 288 c 128,-1,77
 297 289 297 289 298 289 c 0,78,79
 302 289 302 289 309 288 c 128,-1,80
 316 287 316 287 326 281 c 1,81,82
 329 270 329 270 330 270 c 0,83,84
 332 262 332 262 329 165 c 1,85,-1
 373 170 l 1,86,-1
 373 298 l 1,87,-1
 429 298 l 1,88,89
 429 259 429 259 428 216.5 c 128,-1,90
 427 174 427 174 425.5 131.5 c 128,-1,91
 424 89 424 89 422 47.5 c 128,-1,92
 420 6 420 6 419 -31 c 1,93,-1
 376 -31 l 1,94,-1
 375 111 l 1,95,-1
 283 111 l 1,96,97
 282 208 282 208 286 287 c 0,75,76
EndSplineSet
Validated: 33
EndChar

StartChar: FL00BFh
Encoding: 191 191 155
Width: 348
Flags: W
LayerCount: 2
Fore
SplineSet
280 104 m 1,0,1
 283 44 283 44 257.5 20.5 c 128,-1,2
 232 -3 232 -3 175 -3 c 0,3,4
 141 -3 141 -3 111 6.5 c 128,-1,5
 81 16 81 16 58.5 34.5 c 128,-1,6
 36 53 36 53 23 80.5 c 128,-1,7
 10 108 10 108 10 145 c 0,8,9
 10 184 10 184 25.5 218 c 128,-1,10
 41 252 41 252 65 281 c 128,-1,11
 89 310 89 310 118.5 336 c 128,-1,12
 148 362 148 362 175 385 c 1,13,14
 186 396 186 396 186 444 c 1,15,-1
 266 444 l 1,16,17
 281 416 281 416 269 389 c 0,18,19
 256 362 256 362 238 339.5 c 128,-1,20
 220 317 220 317 198 298 c 0,21,22
 166 269 166 269 140.5 236.5 c 128,-1,23
 115 204 115 204 115 162 c 0,24,25
 115 128 115 128 133 109.5 c 128,-1,26
 151 91 151 91 186 91 c 0,27,28
 208 91 208 91 228 97.5 c 128,-1,29
 248 104 248 104 269 104 c 2,30,-1
 280 104 l 1,0,1
258 516 m 1,31,-1
 163 516 l 1,32,-1
 166 600 l 1,33,-1
 260 598 l 1,34,-1
 258 516 l 1,31,-1
EndSplineSet
Validated: 33
EndChar

StartChar: FL00C0h
Encoding: 192 192 156
Width: 458
Flags: W
LayerCount: 2
Fore
SplineSet
290 120 m 1,0,-1
 280 130 l 1,1,-1
 140 140 l 2,2,3
 139 140 139 140 135.5 132.5 c 128,-1,4
 132 125 132 125 130 120 c 0,5,6
 128 114 128 114 123.5 100 c 128,-1,7
 119 86 119 86 114 70.5 c 128,-1,8
 109 55 109 55 105 40.5 c 128,-1,9
 101 26 101 26 100 20 c 1,10,-1
 90 10 l 1,11,-1
 4 10 l 1,12,-1
 186 600 l 1,13,-1
 330 600 l 1,14,-1
 330 520 l 1,15,16
 318 525 318 525 311.5 523 c 128,-1,17
 305 521 305 521 302 515.5 c 128,-1,18
 299 510 299 510 298.5 503 c 128,-1,19
 298 496 298 496 298 492 c 256,20,21
 298 488 298 488 299 480 c 128,-1,22
 300 472 300 472 300 470 c 2,23,-1
 409 0 l 1,24,-1
 320 0 l 2,25,26
 319 0 319 0 315 7.5 c 128,-1,27
 311 15 311 15 310 20 c 0,28,29
 308 26 308 26 305 40 c 128,-1,30
 302 54 302 54 299 70 c 128,-1,31
 296 86 296 86 293.5 100 c 128,-1,32
 291 114 291 114 290 120 c 1,0,-1
158 230 m 1,33,-1
 250 230 l 2,34,35
 259 230 259 230 260 240 c 128,-1,36
 261 250 261 250 261 254 c 0,37,38
 261 257 261 257 260.5 263 c 128,-1,39
 260 269 260 269 260 270 c 0,40,41
 257 286 257 286 252 312.5 c 128,-1,42
 247 339 247 339 242.5 364.5 c 128,-1,43
 238 390 238 390 234.5 409 c 128,-1,44
 231 428 231 428 230 430 c 2,45,-1
 220 450 l 1,46,-1
 210 440 l 1,47,-1
 158 230 l 1,33,-1
268 786 m 1,48,-1
 300 658 l 1,49,-1
 199 710 l 1,50,-1
 182 786 l 1,51,-1
 268 786 l 1,48,-1
EndSplineSet
Validated: 1
EndChar

StartChar: FL00C1h
Encoding: 193 193 157
Width: 458
Flags: W
LayerCount: 2
Fore
SplineSet
290 120 m 1,0,-1
 280 130 l 1,1,-1
 140 140 l 2,2,3
 139 140 139 140 135.5 132.5 c 128,-1,4
 132 125 132 125 130 120 c 0,5,6
 128 114 128 114 123.5 100 c 128,-1,7
 119 86 119 86 114 70.5 c 128,-1,8
 109 55 109 55 105 40.5 c 128,-1,9
 101 26 101 26 100 20 c 1,10,-1
 90 10 l 1,11,-1
 4 10 l 1,12,-1
 186 600 l 1,13,-1
 330 600 l 1,14,-1
 330 520 l 1,15,16
 318 525 318 525 311.5 523 c 128,-1,17
 305 521 305 521 302 515.5 c 128,-1,18
 299 510 299 510 298.5 503 c 128,-1,19
 298 496 298 496 298 492 c 256,20,21
 298 488 298 488 299 480 c 128,-1,22
 300 472 300 472 300 470 c 2,23,-1
 409 0 l 1,24,-1
 320 0 l 2,25,26
 319 0 319 0 315 7.5 c 128,-1,27
 311 15 311 15 310 20 c 0,28,29
 308 26 308 26 305 40 c 128,-1,30
 302 54 302 54 299 70 c 128,-1,31
 296 86 296 86 293.5 100 c 128,-1,32
 291 114 291 114 290 120 c 1,0,-1
158 230 m 1,33,-1
 250 230 l 2,34,35
 259 230 259 230 260 240 c 128,-1,36
 261 250 261 250 261 254 c 0,37,38
 261 257 261 257 260.5 263 c 128,-1,39
 260 269 260 269 260 270 c 0,40,41
 257 286 257 286 252 312.5 c 128,-1,42
 247 339 247 339 242.5 364.5 c 128,-1,43
 238 390 238 390 234.5 409 c 128,-1,44
 231 428 231 428 230 430 c 2,45,-1
 220 450 l 1,46,-1
 210 440 l 1,47,-1
 158 230 l 1,33,-1
250 788 m 1,48,-1
 334 788 l 1,49,-1
 315 712 l 1,50,-1
 214 660 l 1,51,-1
 250 788 l 1,48,-1
EndSplineSet
Validated: 1
EndChar

StartChar: FL00C2h
Encoding: 194 194 158
Width: 458
Flags: W
LayerCount: 2
Fore
SplineSet
290 120 m 1,0,1
 291 114 291 114 293.5 100 c 128,-1,2
 296 86 296 86 299 70 c 128,-1,3
 302 54 302 54 305 40 c 128,-1,4
 308 26 308 26 310 20 c 0,5,6
 311 15 311 15 315 7.5 c 128,-1,7
 319 0 319 0 320 0 c 2,8,-1
 409 0 l 1,9,-1
 300 470 l 2,10,11
 300 472 300 472 299 480 c 128,-1,12
 298 488 298 488 298 492 c 256,13,14
 298 496 298 496 298.5 503 c 128,-1,15
 299 510 299 510 302 515.5 c 128,-1,16
 305 521 305 521 311.5 523 c 128,-1,17
 318 525 318 525 330 520 c 1,18,-1
 330 600 l 1,19,-1
 186 600 l 1,20,-1
 4 10 l 1,21,-1
 90 10 l 1,22,-1
 100 20 l 1,23,24
 101 26 101 26 105 40.5 c 128,-1,25
 109 55 109 55 114 70.5 c 128,-1,26
 119 86 119 86 123.5 100 c 128,-1,27
 128 114 128 114 130 120 c 0,28,29
 132 125 132 125 135.5 132.5 c 128,-1,30
 139 140 139 140 140 140 c 2,31,-1
 280 130 l 1,32,-1
 290 120 l 1,0,1
158 230 m 1,33,-1
 210 440 l 1,34,-1
 220 450 l 1,35,-1
 230 430 l 2,36,37
 231 428 231 428 234.5 409 c 128,-1,38
 238 390 238 390 242.5 364.5 c 128,-1,39
 247 339 247 339 252 312.5 c 128,-1,40
 257 286 257 286 260 270 c 0,41,42
 260 269 260 269 260.5 263 c 128,-1,43
 261 257 261 257 261 254 c 0,44,45
 261 250 261 250 260 240 c 128,-1,46
 259 230 259 230 250 230 c 2,47,-1
 158 230 l 1,33,-1
160 663 m 1,48,49
 161 662 161 662 166.5 661.5 c 128,-1,50
 172 661 172 661 178.5 660.5 c 128,-1,51
 185 660 185 660 190.5 659.5 c 128,-1,52
 196 659 196 659 198 659 c 2,53,-1
 206 659 l 2,54,55
 210 659 210 659 214.5 659.5 c 128,-1,56
 219 660 219 660 221 663 c 2,57,-1
 244 694 l 1,58,-1
 256 706 l 1,59,60
 260 700 260 700 265.5 691.5 c 128,-1,61
 271 683 271 683 275.5 674 c 128,-1,62
 280 665 280 665 284 657 c 128,-1,63
 288 649 288 649 289 643 c 1,64,-1
 297 636 l 1,65,-1
 367 636 l 1,66,-1
 283 785 l 2,67,68
 277 795 277 795 255 795 c 2,69,-1
 242 795 l 1,70,71
 242 795 242 795 240.5 792.5 c 128,-1,72
 239 790 239 790 237 785 c 2,73,-1
 160 663 l 1,48,49
EndSplineSet
Validated: 9
EndChar

StartChar: FL00C3h
Encoding: 195 195 159
Width: 458
Flags: W
LayerCount: 2
Fore
SplineSet
290 120 m 1,0,1
 291 114 291 114 293.5 100 c 128,-1,2
 296 86 296 86 299 70 c 128,-1,3
 302 54 302 54 305 40 c 128,-1,4
 308 26 308 26 310 20 c 0,5,6
 311 15 311 15 315 7.5 c 128,-1,7
 319 0 319 0 320 0 c 2,8,-1
 409 0 l 1,9,-1
 300 470 l 2,10,11
 300 472 300 472 299 480 c 128,-1,12
 298 488 298 488 298 492 c 256,13,14
 298 496 298 496 298.5 503 c 128,-1,15
 299 510 299 510 302 515.5 c 128,-1,16
 305 521 305 521 311.5 523 c 128,-1,17
 318 525 318 525 330 520 c 1,18,-1
 330 600 l 1,19,-1
 186 600 l 1,20,-1
 4 10 l 1,21,-1
 90 10 l 1,22,-1
 100 20 l 1,23,24
 101 26 101 26 105 40.5 c 128,-1,25
 109 55 109 55 114 70.5 c 128,-1,26
 119 86 119 86 123.5 100 c 128,-1,27
 128 114 128 114 130 120 c 0,28,29
 132 125 132 125 135.5 132.5 c 128,-1,30
 139 140 139 140 140 140 c 2,31,-1
 280 130 l 1,32,-1
 290 120 l 1,0,1
158 230 m 1,33,-1
 210 440 l 1,34,-1
 220 450 l 1,35,-1
 230 430 l 2,36,37
 231 428 231 428 234.5 409 c 128,-1,38
 238 390 238 390 242.5 364.5 c 128,-1,39
 247 339 247 339 252 312.5 c 128,-1,40
 257 286 257 286 260 270 c 0,41,42
 260 269 260 269 260.5 263 c 128,-1,43
 261 257 261 257 261 254 c 0,44,45
 261 250 261 250 260 240 c 128,-1,46
 259 230 259 230 250 230 c 2,47,-1
 158 230 l 1,33,-1
153 756 m 1,48,-1
 153 676 l 1,49,-1
 228 693 l 1,50,-1
 278 642 l 1,51,52
 338 634 338 634 395 660 c 1,53,-1
 398 749 l 1,54,55
 333 692 333 692 278 731 c 1,56,-1
 228 778 l 1,57,-1
 153 756 l 1,48,-1
EndSplineSet
Validated: 41
EndChar

StartChar: FL00C4h
Encoding: 196 196 160
Width: 458
Flags: W
LayerCount: 2
Fore
SplineSet
290 120 m 1,0,1
 291 114 291 114 293.5 100 c 128,-1,2
 296 86 296 86 299 70 c 128,-1,3
 302 54 302 54 305 40 c 128,-1,4
 308 26 308 26 310 20 c 0,5,6
 311 15 311 15 315 7.5 c 128,-1,7
 319 0 319 0 320 0 c 2,8,-1
 409 0 l 1,9,-1
 300 470 l 2,10,11
 300 472 300 472 299 480 c 128,-1,12
 298 488 298 488 298 492 c 256,13,14
 298 496 298 496 298.5 503 c 128,-1,15
 299 510 299 510 302 515.5 c 128,-1,16
 305 521 305 521 311.5 523 c 128,-1,17
 318 525 318 525 330 520 c 1,18,-1
 330 600 l 1,19,-1
 186 600 l 1,20,-1
 4 10 l 1,21,-1
 90 10 l 1,22,-1
 100 20 l 1,23,24
 101 26 101 26 105 40.5 c 128,-1,25
 109 55 109 55 114 70.5 c 128,-1,26
 119 86 119 86 123.5 100 c 128,-1,27
 128 114 128 114 130 120 c 0,28,29
 132 125 132 125 135.5 132.5 c 128,-1,30
 139 140 139 140 140 140 c 2,31,-1
 280 130 l 1,32,-1
 290 120 l 1,0,1
158 230 m 1,33,-1
 210 440 l 1,34,-1
 220 450 l 1,35,-1
 230 430 l 2,36,37
 231 428 231 428 234.5 409 c 128,-1,38
 238 390 238 390 242.5 364.5 c 128,-1,39
 247 339 247 339 252 312.5 c 128,-1,40
 257 286 257 286 260 270 c 0,41,42
 260 269 260 269 260.5 263 c 128,-1,43
 261 257 261 257 261 254 c 0,44,45
 261 250 261 250 260 240 c 128,-1,46
 259 230 259 230 250 230 c 2,47,-1
 158 230 l 1,33,-1
136 732 m 1,48,-1
 134 650 l 1,49,-1
 228 648 l 1,50,-1
 231 732 l 1,51,-1
 136 732 l 1,48,-1
296 728 m 1,52,-1
 294 646 l 1,53,-1
 388 644 l 1,54,-1
 391 728 l 1,55,-1
 296 728 l 1,52,-1
EndSplineSet
Validated: 9
EndChar

StartChar: FL00C5h
Encoding: 197 197 161
Width: 458
Flags: W
LayerCount: 2
Fore
SplineSet
290 120 m 1,0,-1
 280 130 l 1,1,-1
 140 140 l 2,2,3
 139 140 139 140 135.5 132.5 c 128,-1,4
 132 125 132 125 130 120 c 0,5,6
 128 114 128 114 123.5 100 c 128,-1,7
 119 86 119 86 114 70.5 c 128,-1,8
 109 55 109 55 105 40.5 c 128,-1,9
 101 26 101 26 100 20 c 1,10,-1
 90 10 l 1,11,-1
 4 10 l 1,12,-1
 186 600 l 1,13,-1
 330 600 l 1,14,-1
 330 520 l 1,15,16
 318 525 318 525 311.5 523 c 128,-1,17
 305 521 305 521 302 515.5 c 128,-1,18
 299 510 299 510 298.5 503 c 128,-1,19
 298 496 298 496 298 492 c 256,20,21
 298 488 298 488 299 480 c 128,-1,22
 300 472 300 472 300 470 c 2,23,-1
 409 0 l 1,24,-1
 320 0 l 2,25,26
 319 0 319 0 315 7.5 c 128,-1,27
 311 15 311 15 310 20 c 0,28,29
 308 26 308 26 305 40 c 128,-1,30
 302 54 302 54 299 70 c 128,-1,31
 296 86 296 86 293.5 100 c 128,-1,32
 291 114 291 114 290 120 c 1,0,-1
158 230 m 1,33,-1
 250 230 l 2,34,35
 259 230 259 230 260 240 c 128,-1,36
 261 250 261 250 261 254 c 0,37,38
 261 257 261 257 260.5 263 c 128,-1,39
 260 269 260 269 260 270 c 0,40,41
 257 286 257 286 252 312.5 c 128,-1,42
 247 339 247 339 242.5 364.5 c 128,-1,43
 238 390 238 390 234.5 409 c 128,-1,44
 231 428 231 428 230 430 c 2,45,-1
 220 450 l 1,46,-1
 210 440 l 1,47,-1
 158 230 l 1,33,-1
366 772 m 1,48,-1
 289 658 l 1,49,50
 287 653 287 653 285.5 650.5 c 128,-1,51
 284 648 284 648 284 648 c 2,52,53
 284 647 284 647 271 647 c 0,54,55
 249 647 249 647 243 658 c 2,56,-1
 159 796 l 1,57,-1
 229 796 l 1,58,-1
 237 790 l 1,59,60
 239 780 239 780 247.5 773.5 c 128,-1,61
 256 767 256 767 258 758 c 0,62,63
 258 756 258 756 261 749 c 128,-1,64
 264 742 264 742 266 740 c 1,65,-1
 274 743 l 1,66,-1
 305 772 l 2,67,68
 307 775 307 775 311 775 c 0,69,70
 316 775 316 775 320 775 c 2,71,-1
 328 775 l 2,72,73
 329 775 329 775 335 775 c 256,74,75
 341 775 341 775 347.5 774.5 c 128,-1,76
 354 774 354 774 359.5 773.5 c 128,-1,77
 365 773 365 773 366 772 c 1,48,-1
EndSplineSet
Validated: 1
EndChar

StartChar: FL00C6h
Encoding: 198 198 162
Width: 614
Flags: W
LayerCount: 2
Fore
SplineSet
352 580 m 1,0,1
 348 508 348 508 346.5 432.5 c 128,-1,2
 345 357 345 357 344 279 c 1,3,-1
 300 470 l 2,4,5
 300 472 300 472 299 480 c 128,-1,6
 298 488 298 488 298 492 c 256,7,8
 298 496 298 496 298.5 503 c 128,-1,9
 299 510 299 510 302 515.5 c 128,-1,10
 305 521 305 521 311.5 523 c 128,-1,11
 318 525 318 525 330 520 c 1,12,-1
 330 600 l 1,13,-1
 186 600 l 1,14,-1
 4 10 l 1,15,-1
 90 10 l 1,16,-1
 100 20 l 1,17,18
 101 26 101 26 105 40.5 c 128,-1,19
 109 55 109 55 114 70.5 c 128,-1,20
 119 86 119 86 123.5 100 c 128,-1,21
 128 114 128 114 130 120 c 0,22,23
 132 125 132 125 135.5 132.5 c 128,-1,24
 139 140 139 140 140 140 c 2,25,-1
 280 130 l 1,26,-1
 290 120 l 1,27,28
 291 114 291 114 293.5 100 c 128,-1,29
 296 86 296 86 299 70 c 128,-1,30
 302 54 302 54 305 40 c 128,-1,31
 308 26 308 26 310 20 c 0,32,33
 311 15 311 15 315 7.5 c 128,-1,34
 319 0 319 0 320 0 c 2,35,-1
 409 0 l 1,36,-1
 407 6 l 1,37,-1
 545 6 l 1,38,-1
 545 88 l 1,39,-1
 439 88 l 1,40,-1
 439 258 l 1,41,-1
 533 258 l 1,42,-1
 533 351 l 1,43,-1
 428 351 l 1,44,-1
 428 492 l 1,45,-1
 568 492 l 1,46,-1
 568 579 l 1,47,-1
 556 591 l 2,48,49
 555 591 555 591 542.5 591.5 c 128,-1,50
 530 592 530 592 524 592 c 0,51,52
 500 592 500 592 481 591 c 128,-1,53
 462 590 462 590 443 588.5 c 128,-1,54
 424 587 424 587 402 585 c 128,-1,55
 380 583 380 583 352 580 c 1,0,1
158 230 m 1,56,-1
 210 440 l 1,57,-1
 220 450 l 1,58,-1
 230 430 l 2,59,60
 231 428 231 428 234.5 409 c 128,-1,61
 238 390 238 390 242.5 364.5 c 128,-1,62
 247 339 247 339 252 312.5 c 128,-1,63
 257 286 257 286 260 270 c 0,64,65
 260 269 260 269 260.5 263 c 128,-1,66
 261 257 261 257 261 254 c 0,67,68
 261 250 261 250 260 240 c 128,-1,69
 259 230 259 230 250 230 c 2,70,-1
 158 230 l 1,56,-1
EndSplineSet
Validated: 9
EndChar

StartChar: FL00C7h
Encoding: 199 199 163
Width: 344
Flags: W
LayerCount: 2
Fore
SplineSet
11 310 m 0,0,1
 11 258 11 258 20.5 203 c 128,-1,2
 30 148 30 148 54 102 c 0,3,4
 78 57 78 57 82 53 c 0,5,6
 86 48 86 48 124 26 c 1,7,-1
 140 -24 l 1,8,9
 140 -74 140 -74 80 -78 c 1,10,-1
 82 -140 l 1,11,12
 176 -165 176 -165 200 -52 c 1,13,-1
 188 2 l 1,14,-1
 223 -1 l 2,15,16
 231 -1 231 -1 243.5 -0.5 c 128,-1,17
 256 0 256 0 257 0 c 2,18,-1
 269 12 l 1,19,-1
 269 110 l 1,20,21
 217 110 217 110 181.5 124 c 128,-1,22
 146 138 146 138 123.5 164.5 c 128,-1,23
 101 191 101 191 91 229.5 c 128,-1,24
 81 268 81 268 81 316 c 0,25,26
 81 335 81 335 83.5 366.5 c 128,-1,27
 86 398 86 398 94 428.5 c 128,-1,28
 102 459 102 459 118.5 481.5 c 128,-1,29
 135 504 135 504 163 504 c 1,30,31
 179 503 179 503 187.5 499 c 128,-1,32
 196 495 196 495 201.5 490.5 c 128,-1,33
 207 486 207 486 212 481.5 c 128,-1,34
 217 477 217 477 226 475 c 1,35,-1
 275 522 l 1,36,37
 272 525 272 525 265.5 534 c 128,-1,38
 259 543 259 543 248 557 c 0,39,40
 225 586 225 586 170 586 c 0,41,42
 114 586 114 586 82.5 558.5 c 128,-1,43
 51 531 51 531 35 490 c 128,-1,44
 19 449 19 449 15 400.5 c 128,-1,45
 11 352 11 352 11 310 c 0,0,1
EndSplineSet
Validated: 41
EndChar

StartChar: FL00C8h
Encoding: 200 200 164
Width: 302
Flags: W
LayerCount: 2
Fore
SplineSet
18 574 m 1,0,1
 46 577 46 577 68 579 c 128,-1,2
 90 581 90 581 109 582.5 c 128,-1,3
 128 584 128 584 147 585 c 128,-1,4
 166 586 166 586 190 586 c 0,5,6
 196 586 196 586 208.5 585.5 c 128,-1,7
 221 585 221 585 222 585 c 2,8,-1
 234 573 l 1,9,-1
 234 486 l 1,10,-1
 94 486 l 1,11,-1
 94 345 l 1,12,-1
 199 345 l 1,13,-1
 199 252 l 1,14,-1
 105 252 l 1,15,-1
 105 82 l 1,16,-1
 211 82 l 1,17,-1
 211 0 l 1,18,-1
 8 0 l 1,19,-1
 8 133 l 1,20,21
 10 244 10 244 11.5 357.5 c 128,-1,22
 13 471 13 471 18 574 c 1,0,1
150 778 m 1,23,-1
 182 650 l 1,24,-1
 81 702 l 1,25,-1
 64 778 l 1,26,-1
 150 778 l 1,23,-1
EndSplineSet
Validated: 1
EndChar

StartChar: FL00C9h
Encoding: 201 201 165
Width: 302
Flags: W
LayerCount: 2
Fore
SplineSet
18 574 m 1,0,1
 46 577 46 577 68 579 c 128,-1,2
 90 581 90 581 109 582.5 c 128,-1,3
 128 584 128 584 147 585 c 128,-1,4
 166 586 166 586 190 586 c 0,5,6
 196 586 196 586 208.5 585.5 c 128,-1,7
 221 585 221 585 222 585 c 2,8,-1
 234 573 l 1,9,-1
 234 486 l 1,10,-1
 94 486 l 1,11,-1
 94 345 l 1,12,-1
 199 345 l 1,13,-1
 199 252 l 1,14,-1
 105 252 l 1,15,-1
 105 82 l 1,16,-1
 211 82 l 1,17,-1
 211 0 l 1,18,-1
 8 0 l 1,19,-1
 8 133 l 1,20,21
 10 244 10 244 11.5 357.5 c 128,-1,22
 13 471 13 471 18 574 c 1,0,1
96 778 m 1,23,-1
 182 778 l 1,24,-1
 165 702 l 1,25,-1
 64 650 l 1,26,-1
 96 778 l 1,23,-1
EndSplineSet
Validated: 1
EndChar

StartChar: FL00CAh
Encoding: 202 202 166
Width: 302
Flags: W
LayerCount: 2
Fore
SplineSet
18 574 m 1,0,1
 46 577 46 577 68 579 c 128,-1,2
 90 581 90 581 109 582.5 c 128,-1,3
 128 584 128 584 147 585 c 128,-1,4
 166 586 166 586 190 586 c 0,5,6
 196 586 196 586 208.5 585.5 c 128,-1,7
 221 585 221 585 222 585 c 2,8,-1
 234 573 l 1,9,-1
 234 486 l 1,10,-1
 94 486 l 1,11,-1
 94 345 l 1,12,-1
 199 345 l 1,13,-1
 199 252 l 1,14,-1
 105 252 l 1,15,-1
 105 82 l 1,16,-1
 211 82 l 1,17,-1
 211 0 l 1,18,-1
 8 0 l 1,19,-1
 8 133 l 1,20,21
 10 244 10 244 11.5 357.5 c 128,-1,22
 13 471 13 471 18 574 c 1,0,1
34 645 m 1,23,-1
 111 767 l 2,24,25
 113 772 113 772 114.5 774.5 c 128,-1,26
 116 777 116 777 116 777 c 1,27,-1
 129 777 l 2,28,29
 151 777 151 777 157 767 c 2,30,-1
 241 618 l 1,31,-1
 171 618 l 1,32,-1
 163 625 l 1,33,34
 162 631 162 631 158 639 c 128,-1,35
 154 647 154 647 149.5 656 c 128,-1,36
 145 665 145 665 139.5 673.5 c 128,-1,37
 134 682 134 682 130 688 c 1,38,-1
 118 676 l 1,39,-1
 95 645 l 2,40,41
 93 642 93 642 88.5 641.5 c 128,-1,42
 84 641 84 641 80 641 c 2,43,-1
 72 641 l 2,44,45
 70 641 70 641 64.5 641.5 c 128,-1,46
 59 642 59 642 52.5 642.5 c 128,-1,47
 46 643 46 643 40.5 643.5 c 128,-1,48
 35 644 35 644 34 645 c 1,23,-1
EndSplineSet
Validated: 1
EndChar

StartChar: FL00CBh
Encoding: 203 203 167
Width: 308
Flags: W
LayerCount: 2
Fore
SplineSet
32 574 m 1,0,1
 60 577 60 577 82 579 c 128,-1,2
 104 581 104 581 123 582.5 c 128,-1,3
 142 584 142 584 161 585 c 128,-1,4
 180 586 180 586 204 586 c 0,5,6
 210 586 210 586 222.5 585.5 c 128,-1,7
 235 585 235 585 236 585 c 2,8,-1
 248 573 l 1,9,-1
 248 486 l 1,10,-1
 108 486 l 1,11,-1
 108 345 l 1,12,-1
 213 345 l 1,13,-1
 213 252 l 1,14,-1
 119 252 l 1,15,-1
 119 82 l 1,16,-1
 225 82 l 1,17,-1
 225 0 l 1,18,-1
 22 0 l 1,19,-1
 22 133 l 1,20,21
 24 244 24 244 25.5 357.5 c 128,-1,22
 27 471 27 471 32 574 c 1,0,1
16 724 m 1,23,-1
 111 724 l 1,24,-1
 108 640 l 1,25,-1
 14 642 l 1,26,-1
 16 724 l 1,23,-1
170 724 m 1,27,-1
 265 724 l 1,28,-1
 262 640 l 1,29,-1
 168 642 l 1,30,-1
 170 724 l 1,27,-1
EndSplineSet
Validated: 1
EndChar

StartChar: FL00CCh
Encoding: 204 204 168
Width: 205
Flags: W
LayerCount: 2
Fore
SplineSet
35 121 m 2,0,-1
 35 98 l 2,1,2
 35 84 35 84 35.5 69.5 c 128,-1,3
 36 55 36 55 36 44 c 2,4,-1
 36 33 l 1,5,-1
 47 0 l 1,6,-1
 118 0 l 1,7,8
 126 60 126 60 129 132 c 128,-1,9
 132 204 132 204 136 276 c 128,-1,10
 140 348 140 348 142.5 418.5 c 128,-1,11
 145 489 145 489 145 558 c 1,12,-1
 47 558 l 1,13,14
 44 495 44 495 41.5 441 c 128,-1,15
 39 387 39 387 37.5 335 c 128,-1,16
 36 283 36 283 35.5 231 c 128,-1,17
 35 179 35 179 35 121 c 2,0,-1
118 732 m 1,18,-1
 32 732 l 1,19,-1
 49 656 l 1,20,-1
 150 604 l 1,21,-1
 118 732 l 1,18,-1
EndSplineSet
Validated: 9
EndChar

StartChar: FL00CDh
Encoding: 205 205 169
Width: 205
Flags: W
LayerCount: 2
Fore
SplineSet
35 121 m 2,0,-1
 35 98 l 2,1,2
 35 84 35 84 35.5 69.5 c 128,-1,3
 36 55 36 55 36 44 c 2,4,-1
 36 33 l 1,5,-1
 47 0 l 1,6,-1
 118 0 l 1,7,8
 126 60 126 60 129 132 c 128,-1,9
 132 204 132 204 136 276 c 128,-1,10
 140 348 140 348 142.5 418.5 c 128,-1,11
 145 489 145 489 145 558 c 1,12,-1
 47 558 l 1,13,14
 44 495 44 495 41.5 441 c 128,-1,15
 39 387 39 387 37.5 335 c 128,-1,16
 36 283 36 283 35.5 231 c 128,-1,17
 35 179 35 179 35 121 c 2,0,-1
93 736 m 1,18,-1
 57 608 l 1,19,-1
 158 660 l 1,20,-1
 177 736 l 1,21,-1
 93 736 l 1,18,-1
EndSplineSet
Validated: 9
EndChar

StartChar: FL00CEh
Encoding: 206 206 170
Width: 225
Flags: W
LayerCount: 2
Fore
SplineSet
35 121 m 2,0,-1
 35 98 l 2,1,2
 35 84 35 84 35.5 69.5 c 128,-1,3
 36 55 36 55 36 44 c 2,4,-1
 36 33 l 1,5,-1
 47 0 l 1,6,-1
 118 0 l 1,7,8
 126 60 126 60 129 132 c 128,-1,9
 132 204 132 204 136 276 c 128,-1,10
 140 348 140 348 142.5 418.5 c 128,-1,11
 145 489 145 489 145 558 c 1,12,-1
 47 558 l 1,13,14
 44 495 44 495 41.5 441 c 128,-1,15
 39 387 39 387 37.5 335 c 128,-1,16
 36 283 36 283 35.5 231 c 128,-1,17
 35 179 35 179 35 121 c 2,0,-1
7 645 m 1,18,19
 8 644 8 644 13.5 643.5 c 128,-1,20
 19 643 19 643 25.5 642.5 c 128,-1,21
 32 642 32 642 37.5 641.5 c 128,-1,22
 43 641 43 641 45 641 c 2,23,-1
 53 641 l 2,24,25
 57 641 57 641 61.5 641.5 c 128,-1,26
 66 642 66 642 68 645 c 2,27,-1
 91 676 l 1,28,-1
 103 688 l 1,29,30
 107 682 107 682 112.5 673.5 c 128,-1,31
 118 665 118 665 122.5 656 c 128,-1,32
 127 647 127 647 131 639 c 128,-1,33
 135 631 135 631 136 625 c 1,34,-1
 144 618 l 1,35,-1
 214 618 l 1,36,-1
 130 767 l 2,37,38
 124 777 124 777 102 777 c 2,39,-1
 89 777 l 1,40,41
 89 777 89 777 87.5 774.5 c 128,-1,42
 86 772 86 772 84 767 c 2,43,-1
 7 645 l 1,18,19
EndSplineSet
Validated: 9
EndChar

StartChar: FL00CFh
Encoding: 207 207 171
Width: 299
Flags: W
LayerCount: 2
Fore
SplineSet
71 121 m 2,0,-1
 71 98 l 2,1,2
 71 84 71 84 71.5 69.5 c 128,-1,3
 72 55 72 55 72 44 c 2,4,-1
 72 33 l 1,5,-1
 83 0 l 1,6,-1
 154 0 l 1,7,8
 162 60 162 60 165 132 c 128,-1,9
 168 204 168 204 172 276 c 128,-1,10
 176 348 176 348 178.5 418.5 c 128,-1,11
 181 489 181 489 181 558 c 1,12,-1
 83 558 l 1,13,14
 80 495 80 495 77.5 441 c 128,-1,15
 75 387 75 387 73.5 335 c 128,-1,16
 72 283 72 283 71.5 231 c 128,-1,17
 71 179 71 179 71 121 c 2,0,-1
12 702 m 1,18,-1
 10 620 l 1,19,-1
 104 618 l 1,20,-1
 107 702 l 1,21,-1
 12 702 l 1,18,-1
172 698 m 1,22,-1
 170 616 l 1,23,-1
 264 614 l 1,24,-1
 267 698 l 1,25,-1
 172 698 l 1,22,-1
EndSplineSet
Validated: 9
EndChar

StartChar: FL00D0h
Encoding: 208 208 172
Width: 390
Flags: W
LayerCount: 2
Fore
SplineSet
9 339 m 1,0,-1
 8 257 l 1,1,-1
 91 257 l 1,2,-1
 95 71 l 2,3,4
 96 63 96 63 97 45 c 128,-1,5
 98 27 98 27 99 -2 c 1,6,-1
 193 3 l 1,7,8
 248 3 248 3 279.5 30.5 c 128,-1,9
 311 58 311 58 327 99 c 128,-1,10
 343 140 343 140 347.5 188.5 c 128,-1,11
 352 237 352 237 352 279 c 0,12,13
 352 333 352 333 342 387.5 c 128,-1,14
 332 442 332 442 308 486.5 c 128,-1,15
 284 531 284 531 244 560.5 c 128,-1,16
 204 590 204 590 145 594 c 1,17,-1
 84 594 l 1,18,-1
 89 339 l 1,19,-1
 9 339 l 1,0,-1
152 483 m 1,20,21
 167 484 167 484 190 470.5 c 128,-1,22
 213 457 213 457 234 431 c 128,-1,23
 255 405 255 405 268 366.5 c 128,-1,24
 281 328 281 328 277 279 c 1,25,26
 277 261 277 261 275 229.5 c 128,-1,27
 273 198 273 198 265 166 c 0,28,29
 257 135 257 135 242.5 119.5 c 128,-1,30
 228 104 228 104 196 93 c 1,31,32
 186 92 186 92 179 91.5 c 128,-1,33
 172 91 172 91 167 91 c 0,34,35
 159 91 159 91 155 94 c 0,36,37
 153 95 153 95 151 257 c 1,38,-1
 223 257 l 1,39,-1
 223 339 l 1,40,-1
 151 339 l 1,41,42
 151 372 151 372 151.5 406.5 c 128,-1,43
 152 441 152 441 152 483 c 1,20,21
EndSplineSet
Validated: 41
EndChar

StartChar: FL00D1h
Encoding: 209 209 173
Width: 349
Flags: W
LayerCount: 2
Fore
SplineSet
23 526 m 1,0,1
 17 394 17 394 13 264 c 128,-1,2
 9 134 9 134 9 0 c 1,3,-1
 94 0 l 1,4,-1
 94 269 l 1,5,-1
 187 0 l 1,6,-1
 257 0 l 1,7,8
 262 68 262 68 267 143 c 128,-1,9
 272 218 272 218 275.5 295 c 128,-1,10
 279 372 279 372 281.5 448.5 c 128,-1,11
 284 525 284 525 284 597 c 1,12,-1
 181 597 l 1,13,-1
 181 281 l 1,14,15
 179 283 179 283 172.5 292 c 128,-1,16
 166 301 166 301 164 304 c 0,17,18
 159 316 159 316 147 346 c 128,-1,19
 135 376 135 376 122 409.5 c 128,-1,20
 109 443 109 443 97.5 473 c 128,-1,21
 86 503 86 503 82 515 c 0,22,23
 79 526 79 526 66.5 527 c 128,-1,24
 54 528 54 528 47 528 c 0,25,26
 44 528 44 528 35 527 c 128,-1,27
 26 526 26 526 23 526 c 1,0,1
41 770 m 1,28,-1
 41 690 l 1,29,-1
 116 707 l 1,30,-1
 166 656 l 1,31,32
 226 648 226 648 283 674 c 1,33,-1
 286 763 l 1,34,35
 221 706 221 706 166 745 c 1,36,-1
 116 792 l 1,37,-1
 41 770 l 1,28,-1
EndSplineSet
Validated: 41
EndChar

StartChar: FL00D2h
Encoding: 210 210 174
Width: 374
Flags: W
LayerCount: 2
Fore
SplineSet
15 275 m 0,0,1
 15 329 15 329 25 383 c 128,-1,2
 35 437 35 437 58 482 c 1,3,4
 71 505 71 505 81 521.5 c 128,-1,5
 91 538 91 538 99 548 c 0,6,7
 116 568 116 568 159 583 c 1,8,9
 206 586 206 586 235.5 559 c 128,-1,10
 265 532 265 532 281.5 490.5 c 128,-1,11
 298 449 298 449 303.5 400 c 128,-1,12
 309 351 309 351 308 310 c 1,13,14
 308 256 308 256 298 202 c 128,-1,15
 288 148 288 148 263 102 c 0,16,17
 251 79 251 79 241.5 62.5 c 128,-1,18
 232 46 232 46 222.5 34 c 128,-1,19
 213 22 213 22 201.5 13.5 c 128,-1,20
 190 5 190 5 174 -1 c 1,21,22
 119 -1 119 -1 87.5 26.5 c 128,-1,23
 56 54 56 54 40 95 c 128,-1,24
 24 136 24 136 19.5 184.5 c 128,-1,25
 15 233 15 233 15 275 c 0,0,1
136 105 m 1,26,27
 171 114 171 114 195 152 c 1,28,29
 218 191 218 191 228 229.5 c 128,-1,30
 238 268 238 268 238 316 c 0,31,32
 238 334 238 334 235.5 365.5 c 128,-1,33
 233 397 233 397 225 428 c 128,-1,34
 217 459 217 459 206.5 465 c 128,-1,35
 196 471 196 471 180 468 c 0,36,37
 163 465 163 465 151.5 456 c 128,-1,38
 140 447 140 447 123 420 c 1,39,40
 105 394 105 394 95 355.5 c 128,-1,41
 85 317 85 317 85 269 c 0,42,43
 85 251 85 251 87.5 219.5 c 128,-1,44
 90 188 90 188 98 156 c 0,45,46
 100 148 100 148 102 142 c 128,-1,47
 104 136 104 136 105 131 c 0,48,49
 107 126 107 126 107.5 122.5 c 128,-1,50
 108 119 108 119 109 117 c 0,51,52
 110 112 110 112 136 105 c 1,26,27
204 758 m 1,53,-1
 236 630 l 1,54,-1
 135 682 l 1,55,-1
 118 758 l 1,56,-1
 204 758 l 1,53,-1
EndSplineSet
Validated: 33
EndChar

StartChar: FL00D3h
Encoding: 211 211 175
Width: 374
Flags: W
LayerCount: 2
Fore
SplineSet
15 275 m 0,0,1
 15 329 15 329 25 383 c 128,-1,2
 35 437 35 437 58 482 c 1,3,4
 71 505 71 505 81 521.5 c 128,-1,5
 91 538 91 538 99 548 c 0,6,7
 116 568 116 568 159 583 c 1,8,9
 206 586 206 586 235.5 559 c 128,-1,10
 265 532 265 532 281.5 490.5 c 128,-1,11
 298 449 298 449 303.5 400 c 128,-1,12
 309 351 309 351 308 310 c 1,13,14
 308 256 308 256 298 202 c 128,-1,15
 288 148 288 148 263 102 c 0,16,17
 251 79 251 79 241.5 62.5 c 128,-1,18
 232 46 232 46 222.5 34 c 128,-1,19
 213 22 213 22 201.5 13.5 c 128,-1,20
 190 5 190 5 174 -1 c 1,21,22
 119 -1 119 -1 87.5 26.5 c 128,-1,23
 56 54 56 54 40 95 c 128,-1,24
 24 136 24 136 19.5 184.5 c 128,-1,25
 15 233 15 233 15 275 c 0,0,1
136 105 m 1,26,27
 171 114 171 114 195 152 c 1,28,29
 218 191 218 191 228 229.5 c 128,-1,30
 238 268 238 268 238 316 c 0,31,32
 238 334 238 334 235.5 365.5 c 128,-1,33
 233 397 233 397 225 428 c 128,-1,34
 217 459 217 459 206.5 465 c 128,-1,35
 196 471 196 471 180 468 c 0,36,37
 163 465 163 465 151.5 456 c 128,-1,38
 140 447 140 447 123 420 c 1,39,40
 105 394 105 394 95 355.5 c 128,-1,41
 85 317 85 317 85 269 c 0,42,43
 85 251 85 251 87.5 219.5 c 128,-1,44
 90 188 90 188 98 156 c 0,45,46
 100 148 100 148 102 142 c 128,-1,47
 104 136 104 136 105 131 c 0,48,49
 107 126 107 126 107.5 122.5 c 128,-1,50
 108 119 108 119 109 117 c 0,51,52
 110 112 110 112 136 105 c 1,26,27
176 758 m 5,53,-1
 262 758 l 5,54,-1
 245 682 l 5,55,-1
 144 630 l 5,56,-1
 176 758 l 5,53,-1
EndSplineSet
Validated: 33
EndChar

StartChar: FL00D4h
Encoding: 212 212 176
Width: 374
Flags: W
LayerCount: 2
Fore
SplineSet
15 275 m 0,0,1
 15 329 15 329 25 383 c 128,-1,2
 35 437 35 437 58 482 c 1,3,4
 71 505 71 505 81 521.5 c 128,-1,5
 91 538 91 538 99 548 c 0,6,7
 116 568 116 568 159 583 c 1,8,9
 206 586 206 586 235.5 559 c 128,-1,10
 265 532 265 532 281.5 490.5 c 128,-1,11
 298 449 298 449 303.5 400 c 128,-1,12
 309 351 309 351 308 310 c 1,13,14
 308 256 308 256 298 202 c 128,-1,15
 288 148 288 148 263 102 c 0,16,17
 251 79 251 79 241.5 62.5 c 128,-1,18
 232 46 232 46 222.5 34 c 128,-1,19
 213 22 213 22 201.5 13.5 c 128,-1,20
 190 5 190 5 174 -1 c 1,21,22
 119 -1 119 -1 87.5 26.5 c 128,-1,23
 56 54 56 54 40 95 c 128,-1,24
 24 136 24 136 19.5 184.5 c 128,-1,25
 15 233 15 233 15 275 c 0,0,1
136 105 m 1,26,27
 171 114 171 114 195 152 c 1,28,29
 218 191 218 191 228 229.5 c 128,-1,30
 238 268 238 268 238 316 c 0,31,32
 238 334 238 334 235.5 365.5 c 128,-1,33
 233 397 233 397 225 428 c 128,-1,34
 217 459 217 459 206.5 465 c 128,-1,35
 196 471 196 471 180 468 c 0,36,37
 163 465 163 465 151.5 456 c 128,-1,38
 140 447 140 447 123 420 c 1,39,40
 105 394 105 394 95 355.5 c 128,-1,41
 85 317 85 317 85 269 c 0,42,43
 85 251 85 251 87.5 219.5 c 128,-1,44
 90 188 90 188 98 156 c 0,45,46
 100 148 100 148 102 142 c 128,-1,47
 104 136 104 136 105 131 c 0,48,49
 107 126 107 126 107.5 122.5 c 128,-1,50
 108 119 108 119 109 117 c 0,51,52
 110 112 110 112 136 105 c 1,26,27
88 650 m 1,53,-1
 165 766 l 1,54,55
 167 771 167 771 168.5 773 c 128,-1,56
 170 775 170 775 170 775 c 1,57,-1
 183 775 l 2,58,59
 205 775 205 775 211 766 c 2,60,-1
 295 624 l 1,61,-1
 225 624 l 1,62,-1
 217 631 l 1,63,64
 215 642 215 642 203.5 661 c 128,-1,65
 192 680 192 680 184 691 c 1,66,-1
 172 680 l 1,67,-1
 149 650 l 2,68,69
 147 647 147 647 142.5 646.5 c 128,-1,70
 138 646 138 646 134 646 c 2,71,-1
 126 646 l 2,72,73
 124 646 124 646 118.5 646.5 c 128,-1,74
 113 647 113 647 106.5 647.5 c 128,-1,75
 100 648 100 648 94.5 648.5 c 128,-1,76
 89 649 89 649 88 650 c 1,53,-1
EndSplineSet
Validated: 33
EndChar

StartChar: FL00D5h
Encoding: 213 213 177
Width: 374
Flags: W
LayerCount: 2
Fore
SplineSet
15 275 m 0,0,1
 15 329 15 329 25 383 c 128,-1,2
 35 437 35 437 58 482 c 1,3,4
 71 505 71 505 81 521.5 c 128,-1,5
 91 538 91 538 99 548 c 0,6,7
 116 568 116 568 159 583 c 1,8,9
 206 586 206 586 235.5 559 c 128,-1,10
 265 532 265 532 281.5 490.5 c 128,-1,11
 298 449 298 449 303.5 400 c 128,-1,12
 309 351 309 351 308 310 c 1,13,14
 308 256 308 256 298 202 c 128,-1,15
 288 148 288 148 263 102 c 0,16,17
 251 79 251 79 241.5 62.5 c 128,-1,18
 232 46 232 46 222.5 34 c 128,-1,19
 213 22 213 22 201.5 13.5 c 128,-1,20
 190 5 190 5 174 -1 c 1,21,22
 119 -1 119 -1 87.5 26.5 c 128,-1,23
 56 54 56 54 40 95 c 128,-1,24
 24 136 24 136 19.5 184.5 c 128,-1,25
 15 233 15 233 15 275 c 0,0,1
136 105 m 1,26,27
 171 114 171 114 195 152 c 1,28,29
 218 191 218 191 228 229.5 c 128,-1,30
 238 268 238 268 238 316 c 0,31,32
 238 334 238 334 235.5 365.5 c 128,-1,33
 233 397 233 397 225 428 c 128,-1,34
 217 459 217 459 206.5 465 c 128,-1,35
 196 471 196 471 180 468 c 0,36,37
 163 465 163 465 151.5 456 c 128,-1,38
 140 447 140 447 123 420 c 1,39,40
 105 394 105 394 95 355.5 c 128,-1,41
 85 317 85 317 85 269 c 0,42,43
 85 251 85 251 87.5 219.5 c 128,-1,44
 90 188 90 188 98 156 c 0,45,46
 100 148 100 148 102 142 c 128,-1,47
 104 136 104 136 105 131 c 0,48,49
 107 126 107 126 107.5 122.5 c 128,-1,50
 108 119 108 119 109 117 c 0,51,52
 110 112 110 112 136 105 c 1,26,27
83 742 m 1,53,-1
 158 764 l 1,54,-1
 208 717 l 1,55,56
 263 678 263 678 328 735 c 1,57,-1
 325 646 l 1,58,59
 268 620 268 620 208 628 c 1,60,-1
 158 679 l 1,61,-1
 83 662 l 1,62,-1
 83 742 l 1,53,-1
EndSplineSet
Validated: 33
EndChar

StartChar: FL00D6h
Encoding: 214 214 178
Width: 374
Flags: W
LayerCount: 2
Fore
SplineSet
15 275 m 0,0,1
 15 329 15 329 25 383 c 128,-1,2
 35 437 35 437 58 482 c 1,3,4
 71 505 71 505 81 521.5 c 128,-1,5
 91 538 91 538 99 548 c 0,6,7
 116 568 116 568 159 583 c 1,8,9
 206 586 206 586 235.5 559 c 128,-1,10
 265 532 265 532 281.5 490.5 c 128,-1,11
 298 449 298 449 303.5 400 c 128,-1,12
 309 351 309 351 308 310 c 1,13,14
 308 256 308 256 298 202 c 128,-1,15
 288 148 288 148 263 102 c 0,16,17
 251 79 251 79 241.5 62.5 c 128,-1,18
 232 46 232 46 222.5 34 c 128,-1,19
 213 22 213 22 201.5 13.5 c 128,-1,20
 190 5 190 5 174 -1 c 1,21,22
 119 -1 119 -1 87.5 26.5 c 128,-1,23
 56 54 56 54 40 95 c 128,-1,24
 24 136 24 136 19.5 184.5 c 128,-1,25
 15 233 15 233 15 275 c 0,0,1
136 105 m 1,26,27
 171 114 171 114 195 152 c 1,28,29
 218 191 218 191 228 229.5 c 128,-1,30
 238 268 238 268 238 316 c 0,31,32
 238 334 238 334 235.5 365.5 c 128,-1,33
 233 397 233 397 225 428 c 128,-1,34
 217 459 217 459 206.5 465 c 128,-1,35
 196 471 196 471 180 468 c 0,36,37
 163 465 163 465 151.5 456 c 128,-1,38
 140 447 140 447 123 420 c 1,39,40
 105 394 105 394 95 355.5 c 128,-1,41
 85 317 85 317 85 269 c 0,42,43
 85 251 85 251 87.5 219.5 c 128,-1,44
 90 188 90 188 98 156 c 0,45,46
 100 148 100 148 102 142 c 128,-1,47
 104 136 104 136 105 131 c 0,48,49
 107 126 107 126 107.5 122.5 c 128,-1,50
 108 119 108 119 109 117 c 0,51,52
 110 112 110 112 136 105 c 1,26,27
52 714 m 1,53,-1
 147 714 l 1,54,-1
 144 630 l 1,55,-1
 50 632 l 1,56,-1
 52 714 l 1,53,-1
228 714 m 1,57,-1
 323 714 l 1,58,-1
 320 630 l 1,59,-1
 226 632 l 1,60,-1
 228 714 l 1,57,-1
EndSplineSet
Validated: 33
EndChar

StartChar: FL00D7h
Encoding: 215 215 179
Width: 338
Flags: W
LayerCount: 2
Fore
SplineSet
12 17 m 1,0,-1
 84 252 l 1,1,-1
 4 506 l 1,2,-1
 92 506 l 1,3,-1
 104 506 l 1,4,5
 106 498 106 498 110 476.5 c 128,-1,6
 114 455 114 455 119 431 c 128,-1,7
 124 407 124 407 128 386 c 128,-1,8
 132 365 132 365 134 357 c 0,9,10
 134 356 134 356 135.5 350.5 c 128,-1,11
 137 345 137 345 138.5 338.5 c 128,-1,12
 140 332 140 332 141.5 327 c 128,-1,13
 143 322 143 322 144 321 c 1,14,-1
 154 328 l 1,15,-1
 194 471 l 2,16,17
 196 476 196 476 202 477 c 128,-1,18
 208 478 208 478 213 478 c 2,19,-1
 224 478 l 2,20,21
 227 478 227 478 234 477 c 128,-1,22
 241 476 241 476 249 474.5 c 128,-1,23
 257 473 257 473 264 472 c 128,-1,24
 271 471 271 471 274 471 c 1,25,-1
 200 232 l 1,26,-1
 282 -18 l 1,27,-1
 194 -18 l 1,28,-1
 182 -18 l 1,29,30
 180 -10 180 -10 176 11.5 c 128,-1,31
 172 33 172 33 167 57 c 128,-1,32
 162 81 162 81 158 102 c 128,-1,33
 154 123 154 123 152 131 c 0,34,35
 152 132 152 132 150.5 137.5 c 128,-1,36
 149 143 149 143 147.5 149 c 128,-1,37
 146 155 146 155 144.5 160 c 128,-1,38
 143 165 143 165 142 167 c 1,39,-1
 132 160 l 1,40,-1
 92 17 l 2,41,42
 90 12 90 12 84 11 c 128,-1,43
 78 10 78 10 73 10 c 2,44,-1
 62 10 l 2,45,46
 59 10 59 10 52 11 c 128,-1,47
 45 12 45 12 37 13.5 c 128,-1,48
 29 15 29 15 22 16 c 128,-1,49
 15 17 15 17 12 17 c 1,0,-1
EndSplineSet
Validated: 1
EndChar

StartChar: FL00D8h
Encoding: 216 216 180
Width: 374
Flags: W
LayerCount: 2
Fore
SplineSet
249 658 m 1,0,-1
 220 569 l 1,1,2
 194 585 194 585 159 583 c 1,3,4
 116 568 116 568 99 548 c 0,5,6
 91 538 91 538 81 521.5 c 128,-1,7
 71 505 71 505 58 482 c 1,8,9
 35 437 35 437 25 383 c 128,-1,10
 15 329 15 329 15 275 c 0,11,12
 15 250 15 250 16 222 c 128,-1,13
 17 194 17 194 21.5 166 c 128,-1,14
 26 138 26 138 33.5 112 c 128,-1,15
 41 86 41 86 55 64 c 1,16,-1
 -3 -114 l 1,17,-1
 53 -119 l 1,18,-1
 98 19 l 1,19,20
 129 -1 129 -1 174 -1 c 1,21,22
 190 5 190 5 201.5 13.5 c 128,-1,23
 213 22 213 22 222.5 34 c 128,-1,24
 232 46 232 46 241.5 62.5 c 128,-1,25
 251 79 251 79 263 102 c 0,26,27
 288 148 288 148 298 202 c 128,-1,28
 308 256 308 256 308 310 c 1,29,30
 309 335 309 335 307 363 c 128,-1,31
 305 391 305 391 300 419.5 c 128,-1,32
 295 448 295 448 286.5 475 c 128,-1,33
 278 502 278 502 265 524 c 1,34,-1
 309 657 l 1,35,-1
 249 658 l 1,0,-1
136 105 m 1,36,37
 134 106 134 106 131 106 c 0,38,39
 129 106 129 106 127 107 c 1,40,-1
 228 413 l 1,41,42
 234 385 234 385 236 358.5 c 128,-1,43
 238 332 238 332 238 316 c 0,44,45
 238 268 238 268 228 229.5 c 128,-1,46
 218 191 218 191 195 152 c 1,47,48
 171 114 171 114 136 105 c 1,36,37
187 469 m 1,49,-1
 93 180 l 1,50,51
 88 206 88 206 86.5 230 c 128,-1,52
 85 254 85 254 85 269 c 0,53,54
 85 317 85 317 95 355.5 c 128,-1,55
 105 394 105 394 123 420 c 1,56,57
 140 447 140 447 151.5 456 c 128,-1,58
 163 465 163 465 180 468 c 0,59,60
 182 468 182 468 183.5 468.5 c 128,-1,61
 185 469 185 469 187 469 c 1,49,-1
EndSplineSet
Validated: 41
EndChar

StartChar: FL00D9h
Encoding: 217 217 181
Width: 410
Flags: W
LayerCount: 2
Fore
SplineSet
27 576 m 1,0,1
 27 525 27 525 26.5 484.5 c 128,-1,2
 26 444 26 444 25 412.5 c 128,-1,3
 24 381 24 381 23.5 356 c 128,-1,4
 23 331 23 331 23 310 c 0,5,6
 23 256 23 256 33 202 c 128,-1,7
 43 148 43 148 67 102 c 0,8,9
 79 79 79 79 88.5 62.5 c 128,-1,10
 98 46 98 46 108 34 c 128,-1,11
 118 22 118 22 129.5 13.5 c 128,-1,12
 141 5 141 5 157 -1 c 1,13,14
 207 -1 207 -1 246 16 c 1,15,16
 281 36 281 36 300 75 c 0,17,18
 310 96 310 96 317.5 131 c 128,-1,19
 325 166 325 166 332 215 c 1,20,-1
 346 571 l 1,21,-1
 248 576 l 1,22,23
 239 189 239 189 227 154 c 0,24,25
 217 124 217 124 208 117 c 0,26,27
 205 114 205 114 198.5 112 c 128,-1,28
 192 110 192 110 183 108 c 1,29,30
 158 114 158 114 139 151 c 1,31,32
 122 187 122 187 117 227 c 128,-1,33
 112 267 112 267 112 309 c 0,34,35
 112 335 112 335 113 366.5 c 128,-1,36
 114 398 114 398 114.5 432.5 c 128,-1,37
 115 467 115 467 116 502.5 c 128,-1,38
 117 538 117 538 117 571 c 1,39,-1
 27 576 l 1,0,1
216 758 m 1,40,-1
 130 758 l 1,41,-1
 147 682 l 1,42,-1
 248 630 l 1,43,-1
 216 758 l 1,40,-1
EndSplineSet
Validated: 9
EndChar

StartChar: FL00DAh
Encoding: 218 218 182
Width: 410
Flags: W
LayerCount: 2
Fore
SplineSet
27 576 m 1,0,1
 27 525 27 525 26.5 484.5 c 128,-1,2
 26 444 26 444 25 412.5 c 128,-1,3
 24 381 24 381 23.5 356 c 128,-1,4
 23 331 23 331 23 310 c 0,5,6
 23 256 23 256 33 202 c 128,-1,7
 43 148 43 148 67 102 c 0,8,9
 79 79 79 79 88.5 62.5 c 128,-1,10
 98 46 98 46 108 34 c 128,-1,11
 118 22 118 22 129.5 13.5 c 128,-1,12
 141 5 141 5 157 -1 c 1,13,14
 207 -1 207 -1 246 16 c 1,15,16
 281 36 281 36 300 75 c 0,17,18
 310 96 310 96 317.5 131 c 128,-1,19
 325 166 325 166 332 215 c 1,20,-1
 346 571 l 1,21,-1
 248 576 l 1,22,23
 239 189 239 189 227 154 c 0,24,25
 217 124 217 124 208 117 c 0,26,27
 205 114 205 114 198.5 112 c 128,-1,28
 192 110 192 110 183 108 c 1,29,30
 158 114 158 114 139 151 c 1,31,32
 122 187 122 187 117 227 c 128,-1,33
 112 267 112 267 112 309 c 0,34,35
 112 335 112 335 113 366.5 c 128,-1,36
 114 398 114 398 114.5 432.5 c 128,-1,37
 115 467 115 467 116 502.5 c 128,-1,38
 117 538 117 538 117 571 c 1,39,-1
 27 576 l 1,0,1
197 770 m 1,40,-1
 161 642 l 1,41,-1
 262 694 l 1,42,-1
 281 770 l 1,43,-1
 197 770 l 1,40,-1
EndSplineSet
Validated: 9
EndChar

StartChar: FL00DBh
Encoding: 219 219 183
Width: 410
Flags: W
LayerCount: 2
Fore
SplineSet
27 576 m 1,0,-1
 117 571 l 1,1,2
 117 538 117 538 116 502.5 c 128,-1,3
 115 467 115 467 114.5 432.5 c 128,-1,4
 114 398 114 398 113 366.5 c 128,-1,5
 112 335 112 335 112 309 c 0,6,7
 112 267 112 267 117 227 c 128,-1,8
 122 187 122 187 139 151 c 1,9,10
 158 114 158 114 183 108 c 1,11,12
 192 110 192 110 198.5 112 c 128,-1,13
 205 114 205 114 208 117 c 0,14,15
 217 124 217 124 227 154 c 0,16,17
 239 188 239 188 248 576 c 1,18,-1
 346 571 l 1,19,-1
 332 215 l 1,20,21
 325 166 325 166 317.5 131 c 128,-1,22
 310 96 310 96 300 75 c 0,23,24
 280 35 280 35 246 16 c 1,25,26
 206 -1 206 -1 157 -1 c 1,27,28
 141 5 141 5 129.5 13.5 c 128,-1,29
 118 22 118 22 108 34 c 128,-1,30
 98 46 98 46 88.5 62.5 c 128,-1,31
 79 79 79 79 67 102 c 0,32,33
 43 148 43 148 33 202 c 128,-1,34
 23 256 23 256 23 310 c 0,35,36
 23 331 23 331 23.5 356 c 128,-1,37
 24 381 24 381 25 412.5 c 128,-1,38
 26 444 26 444 26.5 484.5 c 128,-1,39
 27 525 27 525 27 576 c 1,0,-1
97 653 m 1,40,-1
 174 775 l 2,41,42
 176 780 176 780 177.5 782.5 c 128,-1,43
 179 785 179 785 179 785 c 1,44,-1
 192 785 l 2,45,46
 214 785 214 785 220 775 c 2,47,-1
 304 626 l 1,48,-1
 234 626 l 1,49,-1
 226 633 l 1,50,51
 225 639 225 639 221 647 c 128,-1,52
 217 655 217 655 212.5 664 c 128,-1,53
 208 673 208 673 202.5 681.5 c 128,-1,54
 197 690 197 690 193 696 c 1,55,-1
 181 684 l 1,56,-1
 158 653 l 2,57,58
 156 650 156 650 151.5 649.5 c 128,-1,59
 147 649 147 649 143 649 c 2,60,-1
 135 649 l 2,61,62
 133 649 133 649 127.5 649.5 c 128,-1,63
 122 650 122 650 115.5 650.5 c 128,-1,64
 109 651 109 651 103.5 651.5 c 128,-1,65
 98 652 98 652 97 653 c 1,40,-1
EndSplineSet
Validated: 1
EndChar

StartChar: FL00DCh
Encoding: 220 220 184
Width: 410
Flags: W
LayerCount: 2
Fore
SplineSet
27 576 m 1,0,-1
 117 571 l 1,1,2
 117 538 117 538 116 502.5 c 128,-1,3
 115 467 115 467 114.5 432.5 c 128,-1,4
 114 398 114 398 113 366.5 c 128,-1,5
 112 335 112 335 112 309 c 0,6,7
 112 267 112 267 117 227 c 128,-1,8
 122 187 122 187 139 151 c 1,9,10
 158 114 158 114 183 108 c 1,11,12
 192 110 192 110 198.5 112 c 128,-1,13
 205 114 205 114 208 117 c 0,14,15
 217 124 217 124 227 154 c 0,16,17
 239 188 239 188 248 576 c 1,18,-1
 346 571 l 1,19,-1
 332 215 l 1,20,21
 325 166 325 166 317.5 131 c 128,-1,22
 310 96 310 96 300 75 c 0,23,24
 280 35 280 35 246 16 c 1,25,26
 206 -1 206 -1 157 -1 c 1,27,28
 141 5 141 5 129.5 13.5 c 128,-1,29
 118 22 118 22 108 34 c 128,-1,30
 98 46 98 46 88.5 62.5 c 128,-1,31
 79 79 79 79 67 102 c 0,32,33
 43 148 43 148 33 202 c 128,-1,34
 23 256 23 256 23 310 c 0,35,36
 23 331 23 331 23.5 356 c 128,-1,37
 24 381 24 381 25 412.5 c 128,-1,38
 26 444 26 444 26.5 484.5 c 128,-1,39
 27 525 27 525 27 576 c 1,0,-1
68 737 m 1,40,-1
 163 737 l 1,41,-1
 160 653 l 1,42,-1
 66 655 l 1,43,-1
 68 737 l 1,40,-1
228 733 m 1,44,-1
 323 733 l 1,45,-1
 320 649 l 1,46,-1
 226 651 l 1,47,-1
 228 733 l 1,44,-1
EndSplineSet
Validated: 1
EndChar

StartChar: FL00DDh
Encoding: 221 221 185
Width: 377
Flags: W
LayerCount: 2
Fore
SplineSet
14 574 m 1,0,1
 17 574 17 574 25.5 575.5 c 128,-1,2
 34 577 34 577 43 578.5 c 128,-1,3
 52 580 52 580 60.5 581.5 c 128,-1,4
 69 583 69 583 73 583 c 2,5,-1
 85 583 l 2,6,7
 92 583 92 583 98.5 582 c 128,-1,8
 105 581 105 581 108 574 c 1,9,-1
 154 407 l 1,10,-1
 166 399 l 1,11,12
 167 401 167 401 169 407 c 128,-1,13
 171 413 171 413 173 420 c 128,-1,14
 175 427 175 427 176.5 433 c 128,-1,15
 178 439 178 439 178 441 c 0,16,17
 180 450 180 450 185 475 c 128,-1,18
 190 500 190 500 195.5 528 c 128,-1,19
 201 556 201 556 206 581 c 128,-1,20
 211 606 211 606 213 615 c 1,21,-1
 227 615 l 1,22,-1
 330 615 l 1,23,-1
 208 236 l 1,24,-1
 204 -2 l 1,25,-1
 124 2 l 1,26,-1
 124 222 l 1,27,-1
 14 574 l 1,0,1
161 771 m 1,28,-1
 245 771 l 1,29,-1
 226 695 l 1,30,-1
 125 643 l 1,31,-1
 161 771 l 1,28,-1
EndSplineSet
Validated: 1
EndChar

